<?xml version="1.0" encoding="UTF-8" standalone="no"?>
<svg
   xmlns:dc="http://purl.org/dc/elements/1.1/"
   xmlns:cc="http://creativecommons.org/ns#"
   xmlns:rdf="http://www.w3.org/1999/02/22-rdf-syntax-ns#"
   xmlns:svg="http://www.w3.org/2000/svg"
   xmlns="http://www.w3.org/2000/svg"
   xmlns:sodipodi="http://sodipodi.sourceforge.net/DTD/sodipodi-0.dtd"
   xmlns:inkscape="http://www.inkscape.org/namespaces/inkscape"
   version="1.1"
   viewBox="0 0 888.40326 650.11029"
   width="888.40326pt"
   height="650.11029pt"
   id="svg6359"
   sodipodi:docname="gcvLogo.svg"
   inkscape:version="0.92.4 (5da689c313, 2019-01-14)">
  <metadata
     id="metadata6365">
    <rdf:RDF>
      <cc:Work
         rdf:about="">
        <dc:format>image/svg+xml</dc:format>
        <dc:type
           rdf:resource="http://purl.org/dc/dcmitype/StillImage" />
        <dc:title></dc:title>
      </cc:Work>
    </rdf:RDF>
  </metadata>
  <defs
     id="defs6363" />
  <sodipodi:namedview
     pagecolor="#ffffff"
     bordercolor="#666666"
     borderopacity="1"
     objecttolerance="10"
     gridtolerance="10"
     guidetolerance="10"
     inkscape:pageopacity="0"
     inkscape:pageshadow="2"
     inkscape:window-width="1841"
     inkscape:window-height="1051"
     id="namedview6361"
     showgrid="false"
     inkscape:zoom="0.76508705"
     inkscape:cx="303.94757"
     inkscape:cy="420.36504"
     inkscape:window-x="-9"
     inkscape:window-y="-9"
     inkscape:window-maximized="1"
     inkscape:current-layer="svg6359" />
  <path
     d="m 417.01,3.3343027 c 15.42,6.34 26.7,21.4100003 34.46,35.6300003 7.13,-0.88 14.06,-1.37 21.07,0.57 9.97,2.38 19.01,7.76 24.49,16.61 4.7,7.34 5.83,15.95 4.99,24.5 -1.03,4.7 -3.53,9.22 -6.18,13.2 -6.82,10.309997 -17.56,17.589997 -29.22,21.379997 0.44,4.17 1.34,8.25 1.91,12.4 1.69,11.6 1.93,23.29 1.45,34.98 13.85,-4.23 28.2,-7.86 42.59,-9.66 2.25,-0.45 2.48,2.37 2.37,3.96 -5.77,1.32 -11.65,1.95 -17.42,3.27 -9.58,1.81 -18.86,4.62 -28.18,7.43 -0.2,2.48 -0.41,4.96 -0.6,7.44 2.56,-0.64 5.13,-1.21 7.73,-1.65 13.3,-2.31 27.17,-4.71 40.69,-4.19 0.04,1.35 0.07,2.71 0.09,4.06 -5.95,0.77 -11.93,0.47 -17.88,1.28 -10.53,1.34 -21.23,2.82 -31.54,5.35 -0.83,2.31 -1.24,4.8 -1.75,7.19 7.63,-0.92 15.43,-1.47 23.1,-0.99 2,0.4 1.83,2.1 1.71,3.76 -3.23,1.18 -7.12,0.34 -10.54,0.69 -5.19,0.49 -10.66,0.23 -15.73,1.46 -3.89,11.05 -8.91,21.45 -16.92,30.15 30.22,2.07 60.3,3.97 89.72,12.22 1.34,-0.08 2.68,-0.2 4.02,-0.38 -1.21,-3.5 -2.9,-6.71 -3.81,-10.33 -3.25,-11.99 -2.64,-24.1 -0.22,-36.17 1.08,-6.69 8.41,-9.38 14.11,-10.97 8.97,-2.3 18.79,-2.58 28,-2.25 12.66,0.68 24.96,2.35 37.01,6.41 4.56,1.57 9.22,3.82 12.84,7.07 3.1,2.88 3.68,6.89 4.23,10.87 1.03,10.38 -1.18,21.05 -5.41,30.54 -1.34,2.44 0.5,4.17 1.53,6.27 7.32,12.61 10.31,28.3 4.8,42.18 -4.25,10.73 -12.45,18.86 -21.98,25.07 -4.86,2.95 -8.44,7.3 -13.61,9.83 0.87,8.92 6.34,15.17 9.46,23.19 1.03,2.88 0.9,6.12 -1.81,8 -4.36,2.79 -9.53,4.53 -14.52,5.81 -1.14,2.49 -1.09,5.02 -1.14,7.69 4.21,-0.7 8.39,-1.54 12.62,-2.12 2.53,-0.53 5.11,-0.38 6.15,-3.22 -2.2,-0.39 -4.45,-0.56 -6.62,-1.04 -1.86,-0.65 -1.46,-3.81 0.5,-4.13 2.2,-0.42 4.75,0.26 6.87,0.91 1.75,0.59 3.79,1.94 3.77,4.01 0.48,3.99 -3.69,6.84 -7.16,7.47 -5.08,0.85 -10.19,1.68 -15.28,2.5 0.33,1.49 -0.03,4.22 1.53,5.02 3,1.77 6.05,3.24 8.69,5.58 4.01,3.6 6.95,8.26 8.4,13.45 4.62,-3.48 9.04,-6.02 15.11,-4.89 5.28,0.8 8.83,3.55 12.09,7.61 1.96,-2.51 3.06,-5.08 5.98,-6.7 5.48,-3.3 12.72,-1.5 17.24,2.64 7.34,6.39 9.76,18 2.84,25.69 3.3,0.48 6.26,1.69 9.21,3.19 -0.24,-0.45 -0.49,-0.9 -0.74,-1.36 0.02,-4.82 0.72,-9.73 4.39,-13.2 2.99,-2.91 6.85,-3.67 10.91,-3.53 -2.29,-1.09 -3.8,-1.6 -4.17,-4.44 0.58,-5.43 2.45,-10.72 3.53,-16.08 -1.84,-0.37 -4.49,-0.18 -5.47,-2.16 -2.81,-5.01 2.02,-10.85 3.88,-15.47 -5.83,5.17 -8.47,12.35 -15.55,16.79 -3.42,2.24 -7.27,1.82 -11.16,2.25 -3.42,0.37 -6.41,2.98 -9.97,2.41 -1.57,-0.18 -3.18,-1.35 -3.69,-2.85 -1.26,-3.57 -0.52,-7.91 0.15,-11.53 -1.69,0.09 -3.1,0.65 -4.68,-0.2 -2.06,-5.29 1.78,-12.34 3.48,-17.37 -0.42,-1.68 -3.63,-1.99 -4.63,-3.59 -0.32,-1.68 -0.31,-3.36 0.89,-4.71 2.61,-3.62 6.8,-4.94 9.44,-8.55 -1.65,-1.03 -4.17,-1.77 -5.29,-3.44 -1.43,-3.28 1.44,-6.17 3.36,-8.5 4.99,-5.69 11.76,-7.72 18.96,-8.97 -1.17,-2.24 -1.9,-3.86 -1.53,-6.47 1.83,-0.71 3.55,-1.24 5.55,-0.99 6.27,0.59 12.5,1.66 18.75,2.4 -3.52,-3.93 -4.85,-8.33 -8.98,-11.62 -4.6,-3.92 -9.8,-5.81 -15.21,-8.25 0.06,-1.16 0.13,-2.31 0.19,-3.46 1.78,-0.11 3.29,-0.09 4.93,0.69 5.47,2.25 11.28,5.26 15.36,9.62 2.63,2.72 4.35,6.64 6.65,9.58 0.54,0.34 0.94,0.14 1.2,-0.61 1.47,-3.23 4.16,-4.88 6.4,-7.41 2.47,-5.61 4.09,-11.38 5.36,-17.37 1.22,-5.11 6.1,-8.87 11.35,-8.79 3.84,-0.1 6.88,1.72 10.21,3.34 2.65,-1.7 3.86,-4.34 5.89,-6.6 2.18,-2.21 6.01,-2.89 8.32,-0.51 2.3,2.29 2.54,6.42 3.18,9.44 5.69,-1 11.17,-7.56 16.85,-4.37 0.1,2.21 0.02,4.4 -0.15,6.6 2.46,0.44 4.04,-0.22 4.97,2.55 0.54,5.13 -4.87,10.25 -8.08,13.73 1.37,-0.06 2.73,-0.12 4.1,-0.19 0.74,0.84 2.1,1.62 2.34,2.76 0.95,3.13 -1.14,6.13 -2.37,8.87 7.54,-1.2 15.28,-0.79 22.65,1.2 9.19,2.59 17.12,8.64 22.83,16.21 2.02,2.66 3.13,6.5 0.99,9.41 -2.12,2.77 -6.21,3.31 -9.38,4.18 3.27,3.45 7.75,7.19 9.11,11.85 0.59,2.87 0.71,5.87 -1.85,7.82 -3.3,2.64 -8.04,1.91 -11.96,1.76 -0.3,3.4 0.78,7.73 -3.55,8.87 -3.56,0.17 -7.12,-3.21 -10.08,-4.95 3.63,10.28 6.3,21.01 9.07,31.56 0.87,3.68 1.33,7.22 -0.72,10.61 -1.75,0.28 -3.55,1.07 -5.26,0.3 -2.23,-0.95 -4.23,-2.64 -6.21,-4.03 -2.71,7.15 1.37,15.86 -1.83,23.28 -1.24,2.32 -3.55,2.75 -5.86,1.66 -6.3,-2.73 -8.62,-9.19 -12.87,-14.17 -0.54,-0.02 -1.08,-0.04 -1.62,-0.06 -0.76,1.63 -1.46,3.35 -2.41,4.88 -0.77,1.65 -3.22,1.65 -4.66,1.03 -2.75,-1.77 -3.75,-6.05 -4.84,-8.92 -0.77,-0.42 -1.39,0.98 -1.96,1.35 -1.26,1.62 -2.91,1.88 -4.77,2.43 -0.82,-0.34 -1.64,-0.68 -2.46,-1.02 -1.49,-6.42 -2.92,-12.37 -1.34,-18.96 -1.89,4.04 -3.37,9.12 -6.54,12.32 -1.93,2.07 -4.28,2.3 -6.84,3.17 -1.61,0.43 -3.32,1.16 -4.99,0.82 -1.4,-0.5 -2.7,-1.44 -3.95,-2.25 -2.52,3.4 -4.75,3.92 -8.85,4.04 1.46,3.36 2.13,6.45 2.42,10.1 7.87,-3.23 15.48,1.91 18.38,9.23 8.22,-2.46 16.62,-3.2 25.09,-4.23 3.48,-0.16 6.89,-0.82 9.54,1.96 1.91,1.6 0.85,4.36 0.7,6.47 4.63,1.4 10.73,2.96 13.99,6.74 1.9,2.1 1.59,4.24 0.47,6.62 5.05,5.13 12.62,8.36 16.57,14.27 1.58,2.3 0.72,4.03 0.12,6.43 -1.39,0.6 -2.78,1.21 -4.16,1.82 3.39,8.28 8.5,15.96 11.37,24.74 0.63,2 0.74,4.01 0.93,6.08 -6.96,-3.65 -13.71,-7.63 -20.53,-11.52 4.58,9.19 9.64,17.22 10.31,27.9 0.08,5.25 0.63,10.66 0.04,15.88 -0.68,2.8 -4.28,2.98 -5.71,0.57 -3.24,-5.19 -5.59,-10.51 -10.38,-14.59 0.49,7.72 0.7,15.43 0.44,23.16 -0.16,4.54 -1.34,9.13 -3.52,13.13 -1.56,2.69 -3.58,5.12 -5.35,7.68 -0.99,1.28 -1.97,2.82 -3.83,2.64 -1.96,0.26 -3.57,-1.84 -4.03,-3.56 -1.55,-5.26 -1.72,-10.6 -4.2,-15.63 -4.85,6.56 -8.01,13.7 -13.96,19.69 -2.93,2.62 -5.93,4.59 -10.05,3.49 -0.65,-1.86 -1.5,-3.42 -1.05,-5.47 1.04,-4.6 2.74,-9.06 4.17,-13.56 -2.82,-0.01 -5.48,0.83 -7.42,-1.79 -1.83,-2.44 0.06,-5.75 0.73,-8.36 -3.59,5.52 -6.64,10.86 -11.96,14.98 -4.17,3.55 -9.07,5.45 -14.21,7.12 -0.87,-0.37 -1.75,-0.73 -2.62,-1.09 -0.41,-4.47 2.47,-6.88 4.36,-10.63 -2.62,0.77 -6.3,2.65 -8.98,1.67 -3.02,-1.01 -2.47,-4.8 -3.24,-7.32 -0.48,-3.46 -2.67,-5.57 -5.07,-7.85 -2.37,3.32 -4.72,5.88 -8.68,7.28 1.69,3.49 3.4,6.61 3.73,10.58 0.32,4.36 -1.07,9.21 -4.12,12.43 -4.16,4.25 -10.5,5.35 -15.98,3.18 -3.43,-1.15 -5.85,-3.49 -8.23,-6.09 -1.35,3.38 -3.63,5.46 -6.52,7.54 1.96,2.32 3.88,4.42 4.86,7.38 2.24,6.2 0.42,14.06 -5.22,17.85 -5.83,4.25 -13.95,3.44 -19.13,-1.45 -3.33,-2.78 -4.47,-6.47 -5.68,-10.47 -6.22,4.94 -14.99,4.24 -20.55,-1.33 -6.86,-6.8 -6.55,-18.65 1.51,-24.41 -6.18,-2.91 -10.6,-8.09 -10.62,-15.18 -0.46,-1.61 -2.28,-2.02 0.09,-2 l 0.52,-2.43 c -3.48,-0.44 -3.72,-0.73 -5.35,-3.75 -1.36,-0.06 -3.44,-1.02 -4.26,0.48 -2.63,4.15 -4.17,8.26 -8.73,10.77 -1.13,-0.64 -2.77,-1.04 -3.39,-2.27 -1.62,-3.15 -0.37,-6.37 -0.02,-9.72 -2.3,-0.89 -3.84,-0.62 -6.15,-0.04 -4.01,13.4 -11.79,24.78 -20.57,35.48 -6.15,7.48 -12.63,14.68 -19.4,21.6 -8.26,9.04 -16.86,17.83 -25.47,26.53 -5.41,5.78 -10.78,11.64 -14.33,18.74 -1.8,3.22 -2.91,6.81 -4.77,9.98 -22.8,-1.07 -45.51,0.86 -68,4.67 -19.01,3.3 -39.44,3.09 -57.18,-5.29 -11.17,-5.28 -21.22,-13.49 -28.72,-23.3 -9.8,-12.04 -16.56,-26.51 -22.14,-40.88 -7.84,-19.16 -15.96,-39.44 -27.28,-56.82 -9.85,-15.44 -23.75,-28.27 -38.95,-38.33 -0.18,1.8 -0.36,3.61 -0.55,5.41 -4.66,-1.29 -6.73,-4.84 -9.64,-8.32 -1.09,5.67 -0.68,11.44 -1.83,17.11 -2.09,-1.19 -4.12,-2.49 -6.11,-3.84 -0.15,5.67 0.28,11.53 -0.55,17.15 -0.99,3.68 -2.36,5.02 -6.04,6.03 -2.08,-0.7 -3.95,-1.51 -5.72,-2.82 -0.43,-0.04 -0.86,-0.08 -1.29,-0.12 -4.92,9.59 -6.9,19.85 -9.18,30.28 -3.33,-4.17 -5.49,-8.83 -7.4,-13.77 -4.85,3.45 -5.21,9.34 -10.34,12.35 -1.08,-0.37 -2.17,-0.73 -3.25,-1.08 -2.27,-3.81 -2.51,-7.88 -2.83,-12.18 -1.22,1.76 -2.3,5.19 -5,4.69 -2.32,-0.02 -3.66,-2.63 -4.3,-4.53 -3.1,-10.4 -7.4,-19.26 -7.34,-30.4 -5.06,4.43 -9.51,9.53 -14.47,14.07 -1.85,1.49 -3.53,2.93 -6.07,2.3 -2.29,-1.27 -2.15,-3.95 -2.05,-6.22 0.45,-5.33 0.78,-10.65 0.7,-15.99 -4.07,4.63 -5.19,10.04 -5.97,15.97 -2.39,-1.95 -4.61,-3.87 -5.94,-6.74 -2.68,-5.13 -2.21,-10.23 -1.82,-15.78 -1.84,1.59 -4.24,3.96 -6.75,4.19 -1.99,0.31 -3.45,-1.82 -3.26,-3.61 1.03,-9.71 6.47,-19.03 13.85,-25.33 2.88,-2.57 8.62,-4.49 9.88,-8.28 0.48,-4.89 -0.07,-9.38 1.9,-14.08 -2.86,2.46 -5.56,5.16 -8.6,7.4 -1.56,1.15 -3.82,1.37 -5.09,-0.31 -1.09,-6.72 0.95,-12.85 3.18,-19.06 -2.37,0.91 -4.73,1.83 -7.14,2.61 -0.21,-3.7 -0.46,-7.17 0.41,-10.82 1.32,-5.73 3.98,-10.74 6.88,-15.79 -3.39,-0.15 -6.58,-0.25 -9.57,-2.04 0.14,-1.36 -0.42,-3.08 0.88,-3.97 5.7,-4.98 12.42,-7.05 19.51,-9.16 -1.14,-1.97 -3.68,-4.73 -1.52,-6.87 2.47,-1.71 5.85,-2.47 8.7,-3.42 3.31,-0.46 6.59,-0.46 9.92,-0.56 -1.24,-1.51 -2.6,-2.91 -3.97,-4.3 -1.28,-2.26 -0.31,-4.89 1.74,-6.37 3.56,-3.14 8.08,-1.51 12.31,-1.11 6.29,1.19 12.99,1.22 18.56,3.96 3.27,1.52 6.32,3.73 9.4,5.62 -0.96,-5.62 -2.37,-11.43 -2.29,-17.14 1.33,-14.53 5.4,-28.81 13.06,-41.3 1.81,-2.93 2.13,-6.11 2.68,-9.47 1.03,-11.06 0.76,-21.68 -5.34,-31.35 -4.55,-6.92 -8.33,-14.93 -13.92,-21.03 -4.17,-4.66 -10.07,-6.51 -16.17,-6.66 -5.81,-0.18 -12.03,0.13 -16.58,4.21 -5.16,4.39 -6.14,12.49 -3.17,18.37 1,1.78 2.57,3.83 4.76,4.02 3.96,0.13 7.75,-3.05 9.29,-6.53 0.84,-5.28 -5.5,-5.45 -8.94,-6.93 0.29,-1.75 -0.15,-2.93 1.79,-3.73 4.16,0.14 10.01,2.52 11.38,6.83 1.72,6.39 -3.34,11.94 -8.89,14.15 -4.09,1.63 -8.65,0.84 -11.5,-2.63 -6.76,-8.56 -4.99,-23.42 4.87,-28.94 6.46,-4 14.35,-3.53 21.63,-3.25 -5.73,-7.39 -10.19,-14.84 -18.46,-19.97 -6.24,-3.94 -14.43,-4.33 -21.22,-1.66 3.7,3.56 8.73,3.63 13.53,4.6 -0.02,1.25 -0.04,2.5 -0.06,3.75 -2.55,0.3 -4.95,0.3 -7.43,-0.41 -3.26,-0.85 -7.22,-1.94 -9.29,-4.79 -0.88,-1.72 -1.74,-4.28 -0.1,-5.8 2.88,-3.51 9.27,-3.37 13.4,-3.63 10.44,0.21 17.44,6.09 24.32,13.17 -0.41,-8.79 0.7,-17.2 6.52,-24.15 3.22,-3.73 8.04,-6.45 13.03,-4.58 5.6,1.98 8.89,8.34 10.56,13.67 1.56,4.5 1.51,9.9 -1.97,13.49 -3.46,3.01 -8.57,4.09 -12.97,2.96 -4.86,-2.77 -7.29,-10.13 -3.82,-14.83 1.78,-1.85 4.85,-3.73 7.49,-2.9 0.73,1.2 0.56,2.38 0.66,3.73 -1.35,0.46 -2.7,0.93 -4.06,1.38 -2.75,2.9 -0.2,9.84 4.29,8.45 2.98,-0.25 4.85,-1.76 6.71,-3.95 0.35,-5.97 -1.82,-11.86 -5.88,-16.22 -2.86,-2.37 -5.93,-2.23 -8.79,0.04 -5.74,4.98 -7.68,13.6 -7.27,20.9 0.4,4.23 0.95,9.17 3.38,12.75 1.85,2.75 2.86,5.55 6.03,7.05 5.8,3.02 9.22,7.98 12.59,13.36 3.69,6.18 7.73,12.2 11.15,18.53 0.77,-5.36 1.79,-10.41 4.58,-15.14 2.12,-3.46 4.61,-6.7 7.18,-9.83 2.1,-2.56 4.94,-4.66 8.28,-5.14 3.6,-0.39 6.85,1.65 9.21,4.2 3.39,3.49 5.44,8.33 4.6,13.23 -0.82,6.47 -6.37,12.6 -12.97,13.34 -3.43,0.46 -6.88,-1.98 -7.55,-5.34 -0.91,-3.75 0.08,-7.18 1.36,-10.69 1.24,0.15 3.21,-0.36 3.74,1.13 0.32,3.13 -2.35,7.61 0.38,10.14 7.94,1.16 13.63,-10.07 8.97,-16.3 -1.83,-2.63 -4.98,-6.34 -8.59,-4.77 -3.78,1.86 -6.45,6.44 -8.92,9.73 -4.25,5.4 -5.44,12.97 -6.42,19.6 -1.24,7.76 0.37,15.4 -0.63,23.19 8.72,-10.19 19.28,-18.08 30.41,-25.42 10.78,-6.78 20.01,-16.07 29.05,-24.97 6.56,-6.47 12.83,-13.23 19.27,-19.83 -4.8,-3.83 -9.22,-7.85 -13.45,-12.31 -14.24,-14.23 -23.61,-32.59 -29.06,-51.83 -9.11,2.73 -18.83,0.99 -26.33,-4.86 -6,-4.75 -11.52,-11.45 -13.42,-18.99 -2.68,-9.3 -0.37,-20.1 3.33,-28.83 7.92,-17.99 22.5,-33.419997 38.43,-44.669997 1.18,-0.81 1.52,-2.26 2.12,-3.52 4.19,-10.54 9.87,-20.43 17.05,-29.22 1.04,-1.23 2.19,-2.57 3.56,-3.44 1.36,-0.95 2.9,0.04 4.26,0.46 1.42,4.78 0.86,10.04 1.45,15 0.57,-0.04 1.14,-0.09 1.71,-0.16 2.09,-1.81 3.87,-4.03 5.77,-6.04 5.12,-5.9 10.58,-11.44 16.02,-17.04 7.03,-7.02 13.51,-13.86 22.56,-18.34 14.84,-8.0600003 31.59,-9.3700003 48.05,-6.6900003 1.7,0.19 3.84,0.85 5.49,0.24 3.49,-1.33 6.9,-2.74 10.54,-3.57 11.93,-2.96000004 23.87,-4.33 35.49,0.68 z"
     id="path6099"
     inkscape:connector-curvature="0"
     style="fill:#1e191d" />
  <path
     d="m 404.52,4.6043027 c 5.13,0.24 9.96,2.38 14.6,4.47 4.95,2.2800003 8.38,5.9000003 12.37,9.5200003 3.41,3.16 5.83,6.75 8.66,10.43 2.41,3.18 4.68,6.39 6.24,10.08 -10.66,1.7 -21.09,0.89 -31.87,1.67 -19.07,0.34 -37.98,0.65 -57,-1.18 -13.16,-0.51 -25.74,-2.02 -39,-0.98 -7.26,0.63 -13.6,3.32 -20.46,5.46 -4.7,1.45 -8.12,4.47 -13.26,4.51 1.76,-3.14 4.2,-5.43 6.87,-7.78 7.05,-7.31 14.31,-15.49 22.62,-21.39 7.6,-4.86 16.39,-7.99 25.23,-9.6300003 7.77,-1.15 16.02,-0.53 23.77,0.3300003 -3.09,2.34 -6.28,4.52 -9.31,6.95 -0.03,0.8 -0.07,1.6 -0.1,2.39 1.66,-0.09 3.17,0.04 4.61,-0.94 4.13,-2.45 8.18,-5.11 12.47,-7.26 10.33,-4.8700003 22.14,-7.5500003 33.56,-6.6500003 z"
     id="path6101"
     inkscape:connector-curvature="0"
     style="fill:#0e5b38" />
  <path
     d="m 813.5,32.814303 c 9.79,1.6 17.97,8.33 21.39,17.64 5.05,14.38 4.86,30.3 2.47,45.19 -1.7,9.989997 -3.92,19.999997 -7.27,29.579997 -6.42,18.98 -13.99,37.6 -21.37,56.23 9.37,0.15 18.75,0.05 28.12,0.06 -0.02,9.82 0.01,19.64 -0.01,29.46 -18.87,-0.05 -37.73,-0.07 -56.6,0 -0.06,-7.44 0.01,-14.89 -0.05,-22.34 -0.09,-2.71 0.94,-4.96 1.78,-7.47 7.1,-19.44 13.96,-38.98 20.92,-58.47 5.25,-15.5 10.32,-31.759997 12.15,-48.059997 0.14,-4.15 1.38,-10.37 -1.93,-13.58 -2.17,-2.47 -5.98,-2.75 -8.01,0.05 -1.95,3.36 -2.18,7.74 -2.19,11.53 0.04,7.44 0.04,14.87 0.03,22.31 -7.57,-0.16 -15.16,-0.15 -22.72,0 0.26,-13.54 -1.16,-25.64 2.79,-38.86 2.28,-7.32 5.88,-15.98 12.1,-20.81 5.14,-3.32 12.55,-3.39 18.4,-2.46 z"
     id="path6103"
     inkscape:connector-curvature="0"
     style="fill:#1e191d" />
  <path
     d="m 320.52,42.734303 c 6.37,-0.56 12.63,0.19 19,0.15 5.36,-0.01 10.65,0.61 16,0.82 7.03,0.13 13.93,1.44 20.98,1.43 15.33,0.24 30.7,0.29 46.02,-0.3 7.02,-0.04 13.98,-0.89 21.01,-0.92 7.89,0.05 15.1,-2.07 23.01,-0.97 9.98,0.93 20.51,6.05 26.18,14.54 4.14,6.11 5.54,13.41 5.19,20.7 -0.69,4.93 -3.3,9.71 -6.07,13.78 -5.52,7.03 -12.05,13.079997 -20.35,16.639997 -2.03,0.74 -5.02,2.88 -6.89,0.89 -4.67,-3.75 -8.73,-7.99 -14.05,-10.919997 -16.31,-11.35 -35.62,-16.06 -55.02,-18.78 -20.79,-1.96 -41.79,-1.17 -62.36,2.36 -5.57,1.23 -11.23,1.73 -16.76,3.12 -11.07,2.51 -22.01,5.49 -32.84,8.89 -2.81,-5.98 -5.03,-12.29 -6.88,-18.63 -1.96,-5.37 -3.72,-10.68 -3.91,-16.46 8.53,-3.6 17.03,-7.31 25.65,-10.67 7.16,-2.5 14.46,-5.38 22.09,-5.67 z"
     id="path6105"
     inkscape:connector-curvature="0"
     style="fill:#0e5b38" />
  <path
     d="m 266.04,44.714303 c 0.69,13.12 4.31,26.52 8.52,38.92 6,17.099997 14.67,33.669997 26.71,47.309997 1.63,2.45 4.88,1.5 7.28,1.07 13.59,-3.55 26.31,-11.29 39.98,-15.44 9.83,-3.1 20.16,-4.66 30.13,-1.18 7.89,2.81 13.55,8.34 18.48,14.91 3.72,-0.74 7.38,-1.46 10.95,-2.76 4.31,-1.49 7.95,-3.52 12.42,-4.49 10.36,-2.1 20.77,-2.44 30.98,0.64 4.54,1.49 9.21,3.95 12.47,7.5 1.49,3.36 0.92,7.82 1.38,11.45 0.8,7.18 0.29,14.25 -0.14,21.42 -12.16,4.44 -24.74,9.15 -36.3,15.01 -1.82,0.7 -0.87,2.84 -0.91,4.29 3.26,0.14 5.59,-1.5 8.41,-2.8 9.26,-4.37 18.79,-7.96 28.41,-11.42 -0.38,2.26 -0.71,4.53 -1.02,6.81 -9.89,2.08 -19.72,4.47 -29.46,7.14 -1.64,0.35 -2.51,1.41 -3.65,2.53 0.61,0.71 1.25,1.41 1.91,2.08 1.16,0.64 2.84,-0.25 4.09,-0.46 8.66,-2.31 17.36,-4.74 26.19,-6.3 -0.58,2.16 -1.14,4.33 -1.73,6.49 -10.42,1.54 -20.99,2.52 -31.31,4.64 0.11,1.47 -0.78,4.27 1.66,4.01 9.31,-1.07 18.57,-2.77 27.92,-3.8 -4.51,14.91 -14.28,28.26 -26.81,37.47 -7.34,5.19 -15.98,9.07 -24.18,12.75 -11.54,4.8 -23.58,8.83 -35.92,10.98 -19.54,3.67 -39.82,2.6 -58.44,-4.63 -18.94,-7.29 -34.97,-20.38 -47.88,-35.84 -12.92,-16.25 -20.31,-36.03 -24.21,-56.24 -2.92,-16.56 -3.59,-33.44 -1.29,-50.12 3,-22.609997 10.74,-44.199997 25.36,-61.939997 z"
     id="path6107"
     inkscape:connector-curvature="0"
     style="fill:#ffffff" />
  <path
     d="m 720.51,78.934303 c 5.99,-1.39 12.31,-0.36 17.11,3.59 3.6,3.27 6.79,6.65 8.55,11.27 3.22,8.139997 4.78,17.119997 5.82,25.769997 -8.47,2.43 -16.83,5.27 -25.25,7.85 -1.02,-6.86 -0.61,-13.53 -3.95,-19.84 -1.13,-0.45 -2.27,-0.91 -3.4,-1.37 -3.67,1.32 -5.12,4.78 -5.07,8.45 1.35,13.34 2.47,26.63 3.77,39.98 1.93,-7 4.73,-13.81 12.25,-16.21 8.14,-3.29 16.99,1 21.09,8.31 1.74,3.78 2.7,7.98 3.57,12.04 3.03,15.08 4.63,30.54 5.99,45.86 0.89,13.5 0.58,27.23 -6.09,39.39 -4.51,8.46 -12.82,14.45 -22.24,16.18 -5.36,1.32 -10.97,0.88 -15.77,-1.94 -4.52,-2.75 -7.92,-7.03 -10.31,-11.7 -4.94,-9.39 -6.9,-20.65 -8.32,-31.07 -3.19,-30.29 -6.24,-60.61 -8.89,-90.94 -0.15,-11.36 2.44,-24.33 9.61,-33.449997 5.4,-6.94 13.19,-10.24 21.53,-12.17 z"
     id="path6109"
     inkscape:connector-curvature="0"
     style="fill:#1e191d" />
  <path
     d="m 241.22,81.884303 c -1.24,6.9 -3.78,13.31 -4.33,20.349997 -3.09,18.69 -2.42,37.59 0.96,56.18 0.7,3.25 2.3,5.74 1.94,9.09 -3.18,1.88 -7.74,1.73 -11.29,1.25 -5.34,-0.65 -10.23,-3.26 -13.93,-7.14 -3.05,-3.23 -6.64,-6.75 -8.08,-11.01 -2.13,-5.8 -2.27,-12.46 -1.38,-18.53 1.6,-9.39 6.89,-17.94 12.04,-25.79 6.54,-9.279997 14.89,-17.739997 24.07,-24.399997 z"
     id="path6111"
     inkscape:connector-curvature="0"
     style="fill:#0e5b38" />
  <path
     d="m 366.55,119.8843 c 2.69,-0.49 2.27,2.06 2.28,3.87 -11.91,3.21 -22.23,10.68 -28.22,21.55 -1.12,-0.1 -2.41,0 -3.43,-0.49 -0.8,-2.75 1.32,-4.8 2.68,-6.97 6.46,-8.64 16.14,-15.48 26.69,-17.96 z"
     id="path6113"
     inkscape:connector-curvature="0"
     style="fill:#1e191d" />
  <path
     d="m 445.02,126.2543 c 3.86,1.85 7.73,4.45 7.31,9.28 -1.03,0.17 -2.12,0.47 -3.17,0.4 -1.62,-1.71 -2.71,-4.03 -4.9,-5.01 -6.25,-2.96 -12.36,-1.72 -18.86,-1.01 -2.1,0.35 -1.52,-2.76 -1.72,-4.01 6.88,-1.74 14.61,-2.3 21.34,0.35 z"
     id="path6115"
     inkscape:connector-curvature="0"
     style="fill:#1e191d" />
  <path
     d="m 369.98,128.1443 c 3.47,-0.77 7.58,-0.57 10.7,1.3 4.28,2.31 7.16,6.6 8.76,11.09 3.17,9.06 1.69,19.59 -3.62,27.55 -2.75,3.91 -6.52,7.35 -11.31,8.4 -6.22,1.64 -12.62,-1.5 -16.1,-6.68 -6.13,-8.67 -5.72,-21.3 -1.14,-30.55 2.83,-5 6.97,-9.59 12.71,-11.11 z"
     id="path6117"
     inkscape:connector-curvature="0"
     style="fill:#1e191d" />
  <path
     d="m 373.5,131.4343 c 3.48,0.06 6.44,1.62 8.76,4.15 -3.19,3.08 -6.37,6.1 -8.98,9.72 -5.03,7.03 -8.34,15.16 -10.55,23.48 -3.71,-3.91 -5.1,-9.9 -4.96,-15.15 -0.01,-5.36 1.62,-10.68 4.6,-15.12 2.61,-3.77 6.45,-6.7 11.13,-7.08 z"
     id="path6119"
     inkscape:connector-curvature="0"
     style="fill:#ffffff" />
  <path
     d="m 429.63,133.6943 c 4.7,-1.35 9.64,0.52 12.62,4.3 4.51,5.59 5.42,13.89 3.46,20.67 -1.45,5.67 -5.58,11.56 -11.33,13.44 -3.66,1.53 -8.25,0.23 -11.3,-2.08 -5.61,-4.89 -6.94,-12.3 -6.09,-19.41 0.82,-7.01 5.5,-14.9 12.64,-16.92 z"
     id="path6121"
     inkscape:connector-curvature="0"
     style="fill:#1e191d" />
  <path
     d="m 436.27,137.8843 c 1.47,0.85 3.4,2.24 3.96,3.9 -2.91,1.61 -5.79,3.01 -8.2,5.36 -4.92,4.59 -7.33,10.32 -9.4,16.57 -3.97,-7.59 -2.64,-17.49 3.33,-23.65 2.66,-2.64 6.81,-4.13 10.31,-2.18 z"
     id="path6123"
     inkscape:connector-curvature="0"
     style="fill:#ffffff" />
  <path
     d="m 387.19,148.4743 c 0.26,7.81 -1.95,15.63 -7.76,21.09 -3.16,2.72 -6.3,3.71 -10.49,3.45 1.36,-4.11 2.92,-8.1 5.1,-11.85 2.94,-5.04 7.32,-10.93 13.15,-12.69 z"
     id="path6125"
     inkscape:connector-curvature="0"
     style="fill:#ffffff" />
  <path
     d="m 431.02,154.1943 c 1.7,-0.03 3.26,0.56 4.89,1.01 0.43,3.31 1.56,6.41 2.33,9.63 -3.2,4.27 -7.74,5.29 -12.51,2.7 1.08,-4.5 2.4,-9.64 5.29,-13.34 z"
     id="path6127"
     inkscape:connector-curvature="0"
     style="fill:#ffffff" />
  <path
     d="m 730.06,169.3843 c 1.05,2.39 1.34,5.16 1.68,7.73 0.86,9.19 2.01,18.33 2.91,27.51 0.71,7.64 2.01,15.34 1.54,22.97 -0.12,2.04 -1.05,3.83 -2.6,5.16 -1.68,1.08 -4.22,1.06 -5.54,-0.6 -3.13,-3.65 -2.52,-9.96 -3.21,-14.51 -1.38,-12.65 -2.83,-25.31 -3.74,-38.01 -0.13,-3.57 -0.52,-7.8 1.55,-10.92 1.51,-2.54 6.37,-2.19 7.41,0.67 z"
     id="path6129"
     inkscape:connector-curvature="0"
     style="fill:#ffffff" />
  <path
     d="m 403.5,173.4343 c 2.58,1.68 4.31,4.55 6.63,6.59 2.32,2.3 4.6,4.52 3.57,8.09 -1.53,4.17 -4.09,7.97 -5.96,12 9.14,3.69 20.44,3.14 30.06,2.04 0.4,0.87 0.8,1.74 1.21,2.62 -1.72,4.47 -6.97,5.88 -11.03,7.43 -13.77,4.42 -27.72,9.95 -42.46,8.86 -8.96,-0.27 -16.38,-4.15 -24.95,-5.51 -7.37,-0.28 -14.46,-0.6 -21.62,-2.58 0.04,-1.28 0.09,-2.57 0.14,-3.85 1.87,0.01 3.73,0.08 5.57,0.4 8.64,1.48 17.54,1.95 26.28,1.08 7.9,-0.93 15.37,-3.08 21.25,-8.7 -0.4,-2.33 -0.67,-5 -1.68,-7.16 -1.06,-2.08 -3.37,-3.5 -4.58,-5.47 -0.71,-2.14 -0.24,-4.38 1.27,-6.06 2.23,-2.61 4.77,-5.26 7.35,-7.53 2.53,-2.08 5.68,-3.76 8.95,-2.25 z"
     id="path6131"
     inkscape:connector-curvature="0"
     style="fill:#1e191d" />
  <path
     d="m 318.53,176.6943 c 14.02,2.18 27.86,5.61 41.41,9.78 0.09,1.25 0.16,2.51 0.23,3.76 -1.65,0.12 -3.23,0.19 -4.83,-0.33 -8.82,-2.64 -17.77,-5.02 -26.81,-6.76 -14.4,-2.83 -28.62,-4.79 -43.28,-3.09 -0.39,-0.82 -0.77,-1.65 -1.14,-2.48 0.41,-0.69 0.84,-1.38 1.28,-2.05 11.15,-1.3 22.09,-0.44 33.14,1.17 z"
     id="path6133"
     inkscape:connector-curvature="0"
     style="fill:#1e191d" />
  <path
     d="m 401.11,177.0743 c 2.44,2.53 4.98,5 7.31,7.64 1,1.1 0.69,2.82 0.06,4.03 -1.67,3.45 -3.73,6.62 -4.92,10.31 -2.08,0.24 -4.94,1.65 -6.69,0.14 -1.55,-2.53 -1.3,-6.38 -3.48,-8.4 -1.06,-1.4 -3.36,-2.68 -2.36,-4.72 2.65,-3.85 5.56,-7.31 10.08,-9 z"
     id="path6135"
     inkscape:connector-curvature="0"
     style="fill:#db232b" />
  <path
     d="m 564.52,179.0543 c 14.73,-0.93 29.55,0.34 43.85,3.98 6.36,1.88 15.55,4.17 19.3,10.12 -11.93,5.79 -24.82,9.31 -38.15,9.18 -16.97,-0.03 -33.06,-5.73 -47.14,-15 0.62,-1.45 1.23,-2.37 2.62,-3.2 5.59,-3.49 13.07,-4.5 19.52,-5.08 z"
     id="path6137"
     inkscape:connector-curvature="0"
     style="fill:#ffffff" />
  <path
     d="m 353.45,191.8443 c 2.13,1.38 1.81,3.14 -0.31,4.28 -20.42,0.52 -41.36,1.35 -61.46,5.22 -2.7,0.51 -5.42,1.5 -8.16,1.65 -1.22,-0.6 -1.7,-1.74 -1.45,-3.42 1.62,-1.33 3.47,-1.51 5.45,-2.03 11.49,-2.5 23.27,-3.81 34.99,-4.61 10.27,-0.89 20.63,-1.3 30.94,-1.09 z"
     id="path6139"
     inkscape:connector-curvature="0"
     style="fill:#1e191d" />
  <path
     d="m 541.22,191.9643 c 10.54,6.96 22.77,12.05 35.32,13.75 17.39,3.54 36.52,-0.5 52.42,-7.95 0.46,5.9 0.37,11.78 -1.06,17.56 -11.24,-3.02 -22.86,-5.68 -34.4,-7.27 -4.68,-0.42 -9.31,-1.04 -13.97,-1.68 -13.32,-0.76 -26.59,-0.36 -39.51,3.27 -0.2,-6.01 0.23,-11.75 1.2,-17.68 z"
     id="path6141"
     inkscape:connector-curvature="0"
     style="fill:#ffffff" />
  <path
     d="m 347.6,198.4643 c 2.51,0.28 3.26,3.04 0.85,4.21 -4.9,1.48 -10.02,2.23 -14.95,3.62 -11.47,3.13 -24.45,6.55 -34.07,13.77 -1.92,-1.21 -2.1,-1.59 -2.41,-3.77 8.7,-6.71 18.97,-9.71 29.35,-12.86 7.01,-1.82 14.07,-3.84 21.23,-4.97 z"
     id="path6143"
     inkscape:connector-curvature="0"
     style="fill:#1e191d" />
  <path
     d="m 396.96,204.2543 c 4.06,-0.68 8.2,-0.38 12.08,0.99 5.98,1.92 11.99,1.85 18.15,2.42 -9.76,2.96 -20.39,7.11 -30.66,8.62 -6.77,-0.01 -14.41,0.82 -20.72,-1.63 5.07,-1.13 9.89,-2.58 14.23,-5.53 2.37,-1.51 4.43,-3.61 6.92,-4.87 z"
     id="path6145"
     inkscape:connector-curvature="0"
     style="fill:#db232b" />
  <path
     d="m 567.52,211.0143 c 6.76,-0.09 13.29,-0.25 20.01,0.65 13.11,1.72 26.01,4.39 38.76,7.94 -6.42,4.47 -14.65,6.7 -22.22,8.36 -16.28,2.99 -34.08,-0.07 -49.58,-5.46 -4.8,-1.15 -9.11,-3.3 -13.54,-5.39 0,-0.95 0.01,-1.89 0.01,-2.83 8.24,-3.11 17.85,-3.36 26.56,-3.27 z"
     id="path6147"
     inkscape:connector-curvature="0"
     style="fill:#db232b" />
  <path
     d="m 566.69,212.3843 c 2.3,0.95 3.95,3.5 5.44,5.42 2.84,0.76 5.41,1.64 8.39,1.06 5.12,-0.63 9.95,-3.12 15.04,-3.42 3.24,0.79 6.68,1.99 9.59,3.6 1.02,0.45 0.82,2.3 1.15,3.24 -2.22,0.04 -4.25,0.11 -6.3,-0.92 -3.47,-1.74 -7.45,-1.75 -11.02,-0.29 -4.82,2.05 -10.33,2.61 -15.47,1.7 -5.13,-0.75 -6.29,-7.23 -11.86,-6.63 -2.41,-0.09 -5.95,1.91 -7.75,0 -0.07,-1.45 -0.52,-2.4 1.03,-3.19 3.53,-1.89 8.05,-2.05 11.76,-0.57 z"
     id="path6149"
     inkscape:connector-curvature="0"
     style="fill:#1e191d" />
  <path
     d="m 104.16,222.9843 c 7.37,4.05 12.37,10.6 15.96,18.07 4.72,10.24 5.97,21.58 4.5,32.71 -4.57,32.72 -9.39,65.42 -15.03,97.97 -1.49,9.23 -4.93,17.92 -10.99,25.11 -2.44,2.96 -5.54,5.37 -9.19,6.66 -4.57,1.56 -9.51,0.99 -13.9,-0.88 -11,-4.7 -19.82,-14.13 -23.66,-25.47 -4.31,-11.98 -3.75,-26.03 -1.66,-38.42 8.18,3.38 16.14,7.24 24.3,10.64 -0.29,6.81 -2.26,12.75 -1.12,19.72 0.33,3.05 4.16,6.43 7.24,5.79 2.31,-1.22 2.64,-3.85 3.07,-6.18 1.55,-12.45 3.96,-24.76 5.71,-37.17 -2.08,2.36 -3.77,4.82 -7.01,5.64 -3.34,0.72 -7.17,0.48 -10.19,-1.23 -6.61,-3.62 -11.24,-10.28 -13.62,-17.31 -2.47,-6.5 -1.89,-13.25 -1.14,-20.02 2.38,-19.11 5.02,-38.25 8.96,-57.11 1.56,-8.48 7.15,-17.22 15.24,-20.76 7.43,-3.26 15.71,-1.7 22.53,2.24 z"
     id="path6151"
     inkscape:connector-curvature="0"
     style="fill:#1e191d" />
  <path
     d="m 542.62,222.9743 c 11.03,4.12 22.02,7.85 33.76,9.37 6.38,1.26 12.69,0.84 19.14,0.87 7.6,0 14.67,-1.86 21.8,-4.29 2.3,-0.9 4.54,-1.83 7,-2.23 -2.24,6.54 -7.34,11.77 -12.3,16.4 -6.28,4.74 -13.51,8.01 -21.49,8.22 -6.66,0.08 -12.85,0.41 -19.35,-1.23 -9.01,-2.66 -17.17,-6.44 -22.88,-14.22 -2.5,-3.78 -5.44,-8.26 -5.68,-12.89 z"
     id="path6153"
     inkscape:connector-curvature="0"
     style="fill:#db232b" />
  <path
     d="m 444.92,227.1243 c 1.49,-0.29 3.08,-0.24 4.6,-0.23 12.98,0.27 25.97,1.34 38.82,3.24 -5.79,2.93 -12.11,4.39 -17.9,7.34 -18.6,8.11 -35.49,18.35 -52.14,29.87 -2.34,1.66 -4.83,3.02 -7.43,4.22 9.39,-13.11 19.89,-25.23 29.24,-38.37 1.53,-2.05 2.96,-4.3 4.81,-6.07 z"
     id="path6155"
     inkscape:connector-curvature="0"
     style="fill:#0e5b38" />
  <path
     d="m 380.32,227.1243 c 2.17,-0.48 4.61,1.09 6.75,1.59 4.34,1.05 9.06,0.89 13.47,0.38 4.27,-0.48 8.08,-2.12 12.43,-2.08 0.01,1.32 0.02,2.65 0.01,3.98 -8.14,2.31 -16.87,4.04 -25.32,2.53 -3.27,-0.65 -6.31,-1.28 -8.57,-3.95 0.37,-0.82 0.78,-1.64 1.23,-2.45 z"
     id="path6157"
     inkscape:connector-curvature="0"
     style="fill:#1e191d" />
  <path
     d="m 509.03,232.8543 c 7.18,1.12 14.3,2.62 21.37,4.32 -11.2,6.71 -17.77,18.11 -21.1,30.43 -2.01,7.79 -1.66,15.67 0.86,23.29 -12.46,3.48 -25.73,5.63 -38.62,3.53 -2.74,-0.31 -4.67,-2.46 -6.94,-3.92 -9.59,-6.57 -21.67,-9.05 -33.07,-10.05 -8.04,-0.57 -16.01,-0.61 -23.99,0.62 2.76,-3.06 6.57,-5.16 9.78,-7.73 23.93,-17.15 50.9,-32.34 79.19,-40.84 4.3,-1.55 8.15,-0.26 12.52,0.35 z"
     id="path6159"
     inkscape:connector-curvature="0"
     style="fill:#ffffff" />
  <path
     d="m 816.07,233.5743 c 2.34,-0.29 4.67,-0.13 6.97,0.33 -3.53,10.44 -5.8,21.31 -9.27,31.77 -2.21,-0.52 -4.4,-0.45 -6.65,-0.4 -2.86,-10.58 -6.09,-21.11 -8.61,-31.78 2.17,0.02 4.33,0.03 6.5,0.06 1.9,7.6 3.97,15.17 5.65,22.82 2.04,-7.46 3.13,-15.47 5.41,-22.8 z"
     id="path6161"
     inkscape:connector-curvature="0"
     style="fill:#1e191d" />
  <path
     d="m 766.64,233.5743 c 6.24,-0.09 12.48,-0.09 18.73,-0.03 0.01,2.33 0.03,4.66 0.06,6.99 -3.9,0.22 -7.8,0.22 -11.7,0.27 0.05,1.74 0.09,3.48 0.14,5.23 3.64,-0.03 7.28,-0.05 10.93,-0.01 -0.02,1.91 -0.03,3.83 -0.03,5.75 -3.62,0.01 -7.24,0.01 -10.86,-0.04 -0.05,2.23 -0.07,4.47 -0.1,6.71 3.83,0.05 7.65,0.07 11.48,0 0.52,2.31 0.39,4.51 0.1,6.85 -6.2,-0.06 -12.4,-0.05 -18.6,0.02 -0.68,-5.59 -0.35,-11.07 -0.42,-16.68 0.05,-5.05 -0.17,-10.02 0.27,-15.06 z"
     id="path6163"
     inkscape:connector-curvature="0"
     style="fill:#1e191d" />
  <path
     d="m 624.7,235.9943 0.18,0.31 c 5.79,9.09 9.46,20.52 7.65,31.34 -1.08,10.74 -8.01,20.57 -16.73,26.64 3.7,-10.23 1.85,-22.57 -2.66,-32.28 -1.74,-4.04 -4.79,-6.4 -7.82,-9.41 5.31,-3.6 10.61,-6.11 14.68,-11.36 1.4,-1.94 2.87,-3.69 4.7,-5.24 z"
     id="path6165"
     inkscape:connector-curvature="0"
     style="fill:#0e5b38" />
  <path
     d="m 430.68,237.6443 c -2.17,5.24 -6.83,9.44 -10.08,14.07 -4.26,6.38 -9.5,11.94 -13.96,18.16 -4.07,4.85 -7.99,9.92 -12.54,14.33 -1.31,1.41 -2.9,1.86 -4.71,2.3 -1.65,-5.48 -5.39,-10.38 -8.76,-14.93 -3.76,-5.13 -8.76,-8.35 -13.55,-12.38 6.4,-1.8 12.96,-2.16 19.21,-4.5 8.5,-1.85 16.37,-5.19 24.44,-8.34 6.77,-2.58 13.03,-7.22 19.95,-8.71 z"
     id="path6167"
     inkscape:connector-curvature="0"
     style="fill:#db232b" />
  <path
     d="m 287.25,239.2443 c 2.6,1.82 5.17,3.69 7.95,5.25 -0.28,5.12 -2.01,10.23 -3.88,14.97 -2.53,6.4 -8.02,12.36 -9.64,19.06 2.49,2.19 6.77,1.53 9.85,1.4 7.24,-0.81 14.66,-0.56 21.99,-0.47 13.18,0.95 26.79,1.34 39.07,6.77 -23.08,2.81 -44.05,13.15 -63.87,24.77 -18.98,11.31 -36.51,24.26 -53.78,38 -0.92,0.86 -2.07,1.36 -2.11,2.75 -0.21,1.64 1.19,2.74 2.75,2.44 2.91,-1.73 5.38,-4.24 8.1,-6.25 24.74,-19.22 52.08,-38.34 81.34,-49.88 10.83,-4.08 22.62,-7.69 34.31,-7.08 -3.95,7.9 -6.94,16.2 -9.36,24.69 -4.85,17.84 -6.64,36.12 -2.96,54.37 -15.58,7.32 -31.07,14.42 -47.3,20.2 -11.19,4.28 -22.35,9.82 -34.19,12.72 -9.46,2.45 -19.23,3.56 -29,3.45 -7.66,-0.07 -15.63,0.03 -22.82,-3.02 -9.28,-3.63 -16.15,-11.86 -19.87,-20.92 -2.98,-7.49 -4.95,-15.75 -4.99,-23.83 1.55,-17.45 7.54,-34.36 18.73,-47.99 8.04,-10 17.87,-17.41 28.49,-24.43 14.92,-9.4 27.98,-23.18 40.38,-35.66 3.71,-3.66 6.9,-7.88 10.81,-11.31 z"
     id="path6169"
     inkscape:connector-curvature="0"
     style="fill:#ffffff" />
  <path
     d="m 544.48,238.1943 c 4.04,5.3 9.03,9.66 15.11,12.46 11.61,5.41 25.27,6.63 37.78,4.25 3.33,-0.84 5.82,1.76 8.03,3.84 6.43,6.82 8.09,16.84 7.86,25.89 0.14,4.78 -2.23,9.09 -4.62,13.06 -3.63,5.84 -9.28,9.81 -15.54,12.44 -9.69,3.86 -20.35,6.18 -30.58,8.19 -17.98,3.16 -36.61,-6.56 -45.16,-22.51 3.27,2.21 6.3,4.42 10.18,5.47 8.33,2.6 17.21,0.08 24.49,-4.22 1.5,-0.76 0.99,-2.39 1.11,-3.77 -0.85,-0.19 -1.7,-0.38 -2.55,-0.57 -6.15,3.26 -12.99,6.28 -20.09,4.59 -7.4,-1.55 -12.74,-6.89 -16.61,-13.09 -1.12,-1.69 -1.04,-3.64 -1.16,-5.6 -0.49,-8.78 3.11,-17.8 7.63,-25.18 1.61,11.51 8.95,21.82 19.15,27.31 0.86,-0.02 1.71,-0.16 2.57,-0.4 0.11,-0.93 0.23,-1.86 0.35,-2.79 -4.05,-2.95 -8.04,-5.69 -11.12,-9.73 -4.76,-5.81 -6.81,-13 -6.4,-20.47 5.2,-5.52 11.92,-8.9 19.57,-9.17 z"
     id="path6171"
     inkscape:connector-curvature="0"
     style="fill:#ffffff" />
  <path
     d="m 299.65,247.8243 c 2.36,0.34 5.7,0.71 5.51,3.85 -0.74,7.8 -2.23,15.92 -5.59,23.05 -3.5,1.2 -8.04,0.67 -11.75,0.69 2.67,-5.34 6.08,-10.69 8.32,-16.2 1.5,-3.72 1.74,-7.91 3.51,-11.39 z"
     id="path6173"
     inkscape:connector-curvature="0"
     style="fill:#0e5b38" />
  <path
     d="m 98.13,249.0443 c 2.74,2.23 2.79,6.41 2.51,9.63 -1.54,13.71 -3.65,27.37 -5.78,40.99 -0.62,3.46 -1.04,7.07 -2.12,10.41 -0.63,1.59 -1.67,3.71 -3.35,4.36 -1.66,0.24 -3.32,0.18 -4.39,-1.28 -2.66,-3.03 -2.36,-6.76 -2.07,-10.53 0.76,-5.74 1.91,-11.43 2.8,-17.15 1.42,-9.3 3.14,-18.55 4.46,-27.87 0.43,-2.39 0.71,-5.09 1.88,-7.24 1.09,-2.1 4.3,-3.26 6.06,-1.32 z"
     id="path6175"
     inkscape:connector-curvature="0"
     style="fill:#ffffff" />
  <path
     d="m 309.63,252.0943 c 2.41,0.61 4.74,1.56 7.09,2.34 12.2,4.16 24.95,5.73 37.8,5.41 4.27,-0.28 7.5,1.7 11,3.81 7.4,4.93 13.95,11.72 17.82,19.8 -5.8,0.69 -11.13,0.45 -16.77,2.3 -1.97,0.49 -4.31,1.6 -6.36,1.26 -2.69,-1.81 -4.55,-4.3 -7.73,-5.45 -12.63,-5.09 -27.48,-6.09 -40.97,-6.23 -2.29,0 -4.5,-0.41 -6.73,-0.94 1.15,-4.66 2.45,-9.28 3.57,-13.95 0.69,-2.72 0.35,-5.72 1.28,-8.35 z"
     id="path6177"
     inkscape:connector-curvature="0"
     style="fill:#0e5b38" />
  <path
     d="m 789.81,256.5443 0.72,-0.01 c 1.82,-0.05 3.64,0.03 5.46,0.16 -0.04,2.85 -0.04,5.7 0,8.55 -2.04,0.02 -4.08,0.03 -6.11,0.05 -0.01,-2.92 -0.03,-5.83 -0.07,-8.75 z"
     id="path6179"
     inkscape:connector-curvature="0"
     style="fill:#1e191d" />
  <path
     d="m 820.77,256.5243 0.64,-0.03 c 1.7,0.09 3.98,-0.47 5.46,0.49 0.11,2.74 -0.04,5.48 -0.02,8.22 -2.01,0.04 -4.03,0.07 -6.05,0.1 -0.05,-2.93 -0.07,-5.85 -0.03,-8.78 z"
     id="path6181"
     inkscape:connector-curvature="0"
     style="fill:#1e191d" />
  <path
     d="m 29.82,265.0243 c 4.99,-0.47 10.07,-0.07 15.08,-0.2 -0.02,59.54 0.08,119.12 -0.05,178.66 -8.61,-0.13 -17.23,-0.04 -25.84,-0.04 0.02,-38.65 0.18,-77.46 0.01,-116.13 -0.21,-3.65 -0.57,-9.11 -3.45,-11.74 -4.34,-3.15 -10.54,-1.79 -15.57,-2 0.05,-6.79 0.03,-13.59 0.02,-20.38 6.37,-1.86 11.76,-4.9 16.5,-9.57 5.74,-5.35 9.42,-11.91 13.3,-18.6 z"
     id="path6183"
     inkscape:connector-curvature="0"
     style="fill:#1e191d" />
  <path
     d="m 738.01,264.6743 c 0.97,2.93 1.42,6 2.41,8.91 0.56,2 3.38,2.36 5.09,2.01 3.57,-0.88 6.6,-3.1 10.26,-3.82 0.84,3.1 2.55,5.37 4.35,7.93 -0.87,4.31 -7.44,6.5 -7.02,11.95 -0.21,3.54 4.04,3.07 6.39,3.68 -0.93,2.56 -2.4,4.83 -3.49,7.31 0.71,2.89 2.75,3.6 5.51,3.2 10.44,-1.69 22.22,-0.2 31.25,5.53 4.54,2.34 8.19,6.68 11.37,10.61 1.08,1.22 1.55,3.23 0.16,4.39 -2.65,1.51 -6.65,1.36 -8.95,3.21 -2.41,2.39 -0.2,4.83 1.31,6.97 2.68,3.35 7.75,6.9 7.42,11.68 -2.91,3.4 -8.95,0.22 -12.28,1.67 -2.38,1.76 -2.25,5.71 -2.77,8.37 -2.71,-1.65 -5.34,-3.56 -8.2,-4.96 -1.62,-0.74 -3.6,-0.95 -4.71,0.72 -0.36,2.11 -0.47,4.62 0.47,6.6 2.82,5.8 3.66,11.95 5.76,18.1 1.52,5.86 3.46,11.82 3.9,17.88 -2.78,-0.98 -4.85,-2.89 -7.34,-4.37 -2.17,-1.32 -4.92,1.06 -5.75,2.98 -2.4,7.09 0.63,15.35 -1.64,22.28 -5.64,-2.74 -6.88,-7.77 -10.61,-12.25 -1.62,-2.16 -4.46,-2.95 -7.01,-2.24 -1.9,0.86 -2.92,3.29 -4.66,4.38 -1.47,-3.43 -2.58,-7.01 -4.09,-10.43 -1.42,0.04 -2.85,0.04 -4.26,0.2 -1.26,1.5 -1.95,3.54 -2.81,5.29 -1.36,-4.29 -1.85,-8.33 -1.3,-12.83 0.84,-9.11 2.06,-17.49 -1.58,-26.25 -2.2,3.17 -2.45,7.76 -3.46,11.47 -2.01,7.64 -4,16.68 -9.15,22.88 -2.1,1.1 -4.64,1.5 -6.93,2.05 -2.11,-1.31 -4.01,-3.44 -6.71,-2.69 -1.44,1.19 -2.63,2.74 -3.83,4.15 -2.77,-0.06 -5.65,0.29 -8.11,-1.2 -2.13,-1.29 -3.49,-3.92 -4.98,-5.87 -1.21,-1.71 -2.91,-3 -4.13,-4.67 0.06,-5.91 3.79,-11.9 3.37,-17.78 -0.19,-2.24 -4.81,-2.02 -6.46,-2.65 0.78,-4.81 3.33,-8.37 5.85,-12.37 1.26,-2.03 2.17,-4.73 -0.11,-6.43 -2.18,-0.42 -4,0.47 -5.8,1.58 -8.04,5.46 -10.56,14.29 -18.94,19.06 -1.97,0.61 -4.24,0.4 -6.29,0.6 -3.69,0.11 -6.63,1.59 -10.01,2.86 -1.59,-4.33 -0.04,-8.09 -0.42,-12.49 -0.43,-2.35 -2.51,-2.94 -4.29,-4.07 0.47,-4.02 2.51,-7.51 3.25,-11.43 0.25,-2.89 -1.85,-4.09 -3.57,-5.96 2.05,-4.23 8.87,-5.12 8.65,-10.01 0.11,-3.41 -1.94,-4.67 -4.4,-6.43 1.43,-3.1 4.12,-5.3 6.78,-7.33 4.47,-2.91 10.97,-2.6 15.45,-5.56 1.44,-1.51 0.42,-3.46 0.2,-5.28 5.14,0.58 10.28,1.19 15.39,1.94 4.88,0.64 9.25,3.79 12.25,7.59 3.27,3.99 6.92,7.51 11.4,10.13 -5.43,2.41 -10.98,2.63 -16.66,4.04 -3.64,0.89 -7.32,1.43 -11.01,2.02 -1.88,0.42 -3.67,0.42 -4.67,2.33 -0.1,1.4 1.05,2.37 2.41,2.31 4.77,-0.14 9.54,-1.92 14.28,-2.63 6.64,-1.05 13.08,-2.96 19.75,-3.81 -0.33,4.61 0.46,9.62 -0.56,14.11 -3.22,7.08 -7.72,13.59 -11.1,20.6 0.98,0.55 1.97,1.1 2.95,1.64 3.36,-4.23 5.79,-9.22 8.52,-13.88 0.39,7.43 -1.74,14.24 -2.91,21.45 -0.32,2.05 0.83,4.71 3.13,2.84 1.51,-3.47 1.93,-7.48 2.67,-11.17 1.12,-8.05 2.52,-15.59 1.82,-23.68 -0.32,-3.67 -0.2,-7.26 0.2,-10.93 2.53,0.51 4.47,1.34 6.52,2.9 6.62,4.9 12.46,10.97 17.82,17.2 3.04,3.54 6.77,6.59 10.23,9.75 1.89,1.53 4.08,3.58 6.73,2.9 1.77,-2.94 -1.12,-4.04 -2.95,-5.7 -8.4,-5.9 -13.78,-13.92 -21.33,-20.66 -2.34,-2.37 -5.31,-4.13 -6.69,-7.07 8.5,-0.66 16.67,-1.62 25.19,-0.4 5.08,0.39 8.95,2.54 13.97,1.84 -0.1,-1.09 -0.35,-2.1 -0.75,-3.04 -2.16,-1.16 -4.84,-1.6 -7.24,-2.03 -6.04,-0.99 -11.86,-1.85 -18,-1.45 -4.33,0.31 -8.63,0.55 -12.97,0.4 5.53,-2.43 10.5,-5.61 16.4,-7.2 3.72,-1.29 7.58,-0.91 11.33,-1.87 1.58,-1.62 0.11,-3.4 -1.77,-3.41 -6.4,-0.48 -12.69,1.5 -18.36,4.31 -4.98,2.47 -10.25,4.14 -15.55,6.12 0.16,-7.63 5.31,-15.24 8.53,-21.98 0.69,-1.12 -0.38,-2.6 -0.74,-3.71 -0.96,0.61 -2.06,1.15 -2.87,1.97 -5.19,7.58 -7.23,15.61 -10.5,23.99 -2.22,-0.56 -3.76,-1.46 -5.48,-2.95 -4.61,-3.94 -9.37,-8.1 -12.98,-12.99 -1.2,-1.41 -0.81,-3.84 -0.47,-5.52 0.91,-3.81 5.49,-5.11 6.9,-8.98 2.16,-5.36 3.97,-10.92 5.35,-16.53 0.45,-1.55 0.72,-2.99 1.99,-4.12 2.03,-2.19 5.54,-1.79 8.22,-1.45 3.44,0.9 5.58,3.07 9.38,2.02 3.61,-2.29 5.1,-6.36 9.09,-8.37 z"
     id="path6185"
     inkscape:connector-curvature="0"
     style="fill:#0e5b38" />
  <path
     d="m 431.52,285.0843 c 13.65,1.11 26.74,4.68 36.91,14.33 -1.43,-0.09 -2.85,-0.19 -4.28,-0.3 -0.93,1.33 -1.09,2.5 -1.23,4.08 4.15,1.07 9.39,0.8 11.88,4.95 5.82,9.6 7.89,21.45 8.94,32.48 0.67,6.24 -0.79,12.26 -3.43,17.89 -1,-10.82 -3.16,-20.9 -10.19,-29.52 -0.95,-1.49 -2.71,-0.83 -4.21,-0.99 -0.67,3.6 1.81,5.03 3.39,7.86 5.42,8.89 6.62,18.8 5.97,29.02 -6.16,5.61 -13.63,8.38 -21.64,10.16 1.53,-3.08 3.63,-6.11 4.46,-9.41 2.04,-7.11 0.46,-15.17 -3.07,-21.55 -1.57,-1.14 -2.56,-0.22 -4.19,0.18 0.37,3.55 2.41,6.37 3.08,9.85 1.02,5.84 0.33,11.74 -3.28,16.59 -1.27,1.54 -2.94,4.5 -5.1,4.69 -5.45,0.16 -11.01,-1.04 -15.59,-4.08 -7.62,-5.03 -12.85,-13.92 -13.44,-23.03 3.09,0.63 6.17,1.29 9.26,1.96 0.99,-2.03 2.26,-3.08 -0.36,-4.54 -7.98,-2.87 -17.58,-2.58 -25.89,-1.53 -6.92,0.98 -14.16,2.26 -20.67,4.83 -0.11,-4.08 0.14,-8.14 0.64,-12.19 1.26,-12.3 3.15,-24.59 5.73,-36.68 0.87,-3.34 1.62,-7.23 5.11,-8.81 12.19,-6.56 27.65,-7.4 41.2,-6.24 z"
     id="path6187"
     inkscape:connector-curvature="0"
     style="fill:#ffffff" />
  <path
     d="m 384.4,287.8743 c -0.7,4.03 -2.64,7.62 -3.31,11.66 -4.19,17.66 -6.51,35.88 -7.05,54.02 -0.05,1.57 -1.17,2.39 -2.2,3.43 -2.79,2.52 -6.71,4.12 -10.01,5.93 -3.76,1.85 -6.55,4.32 -10.89,4.6 -0.95,-4.36 -1.33,-8.42 -1.18,-12.88 0.2,-6.88 -0.57,-14.28 0.64,-20.99 2.73,-14.14 6,-27.48 12.76,-40.31 1.45,-2.64 4,-3.51 6.78,-4.14 4.77,-0.92 9.59,-1.46 14.46,-1.32 z"
     id="path6189"
     inkscape:connector-curvature="0"
     style="fill:#0e5b38" />
  <path
     d="m 512.11,295.7343 c 6.46,13.3 18.18,22.82 32.5,26.47 -0.7,5.48 -4.16,8.8 -6.7,13.41 -0.34,2.6 1.7,5.57 3.14,7.64 -5.61,1.89 -11.04,4.19 -16.53,6.39 -2.16,0.94 -4.17,1.73 -5.44,3.85 0.16,1.21 0.47,2.39 0.94,3.55 1.86,0.73 3.72,1.43 5.61,2.07 -3.54,4.85 -8.36,9.09 -11.1,14.42 -1.27,2.4 -0.37,4.25 0.55,6.52 4.07,1.74 6.54,0.7 10.26,-1 -0.42,4.95 -2.72,10.25 -2,15.07 0.39,2.47 3,3.62 5.12,2.42 2.71,-1.82 4.7,-4.91 6.74,-7.43 0.78,4.87 0.21,9.27 5.13,12 1.58,-0.55 3.53,-0.73 4.71,-1.94 3.79,-3.61 7.09,-10.1 12.34,-11.77 0.64,1.74 1.03,2.84 0.35,4.66 -1.46,4.87 -1.34,8.59 0.42,13.34 -5.16,-2.53 -10.64,-3.64 -16.17,-1.49 -6.12,2.38 -9.98,8.27 -10.64,14.71 -0.6,8.62 4.91,17.25 13.3,19.76 4.88,1.68 9.5,0.66 14.08,-1.33 -0.69,6.9 1.91,13.61 7.99,17.23 3.67,2.52 7.53,2.33 11.75,2.21 -6.13,3.61 -12.03,7.45 -18.49,10.48 -2.15,1.2 -4.78,2.57 -4.03,5.52 0.58,2.24 4.17,3.29 5.4,5.16 -2.21,2.76 -5.18,4.66 -7.07,7.76 -4.51,-10.3 -10.81,-19.27 -16.85,-28.67 -18.77,-31.63 -27.98,-69.64 -30.2,-106.11 -0.76,-8.1 1.29,-14.91 -2.52,-22.5 -6.25,-1.4 -12.54,-2.59 -18.78,-4.01 -2.24,-8.54 -5.64,-18.34 -11.8,-24.87 11.33,1.5 23.39,-0.38 34.4,-3.14 1.18,-0.26 2.38,-0.35 3.59,-0.38 z"
     id="path6191"
     inkscape:connector-curvature="0"
     style="fill:#ffffff" />
  <path
     d="m 371.57,308.5843 c -0.56,4.85 -1.62,9.68 -2.59,14.46 -1.59,6.34 -2.16,13.03 -2.87,19.53 -0.35,3.49 0.11,7.38 -0.96,10.71 -1.11,0.57 -2.11,0.48 -2.99,-0.28 -1.1,-5.56 -0.3,-11.78 0.51,-17.34 1.23,-9.05 3.05,-18.03 4.9,-26.97 0.15,-2.07 4.05,-2.6 4,-0.11 z"
     id="path6193"
     inkscape:connector-curvature="0"
     style="fill:#1e191d" />
  <path
     d="m 594.51,314.6043 c 1.27,7.36 4.91,13.28 8.3,19.77 1.04,1.83 1.37,3.53 1.49,5.61 -5.14,2.44 -10.36,4.6 -15.96,5.8 -10.42,2.4 -20.64,1.27 -30.94,-1.11 -4.02,-0.97 -8.81,-1.13 -12.12,-3.8 -1.35,-1.39 -3.41,-3.35 -1.84,-5.34 2.56,-3.93 4.95,-7.67 5.94,-12.36 5.08,0.36 10.11,0.47 15.14,-0.55 10.17,-2.07 20.26,-4.32 29.99,-8.02 z"
     id="path6195"
     inkscape:connector-curvature="0"
     style="fill:#ffffff" />
  <path
     d="m 360.95,320.6043 c -0.08,4.7 -1.4,9.28 -1.24,14.03 -0.21,3.93 1.09,8.37 -0.94,11.78 -0.89,-0.47 -1.79,-0.93 -2.68,-1.4 -1.47,-7.78 -0.75,-15.61 0.92,-23.29 0.19,-1.81 3.38,-4.02 3.94,-1.12 z"
     id="path6197"
     inkscape:connector-curvature="0"
     style="fill:#1e191d" />
  <path
     d="m 555.43,323.7243 c 3.12,0.6 5.99,1.69 9.2,1.96 3.29,0.26 6.71,-0.28 10,-0.52 0.72,1.69 2.19,3.13 -0.18,4.33 -6.56,1.63 -14.59,0.93 -20.75,-2.01 0.15,-1.77 -0.57,-3.22 1.73,-3.76 z"
     id="path6199"
     inkscape:connector-curvature="0"
     style="fill:#1e191d" />
  <path
     d="m 486.93,328.9543 c 1.06,0.26 2.12,0.51 3.18,0.76 3.92,0.86 7.86,1.63 11.77,2.56 0.91,11.47 0.51,23 2.16,34.46 -21.39,9.73 -42.61,19.87 -64,29.62 -3.25,-6.38 -6.32,-12.87 -9.35,-19.36 9.31,4.41 21.19,3.58 30.83,0.65 11.16,-3.24 20.98,-10.83 24.95,-22.01 3.15,-8.8 1.65,-17.7 0.46,-26.68 z"
     id="path6201"
     inkscape:connector-curvature="0"
     style="fill:#ffffff" />
  <path
     d="m 554.7,333.1543 c 6.57,2.31 13.1,1.89 19.88,1.08 0.49,0.8 0.98,1.6 1.48,2.4 -0.92,0.96 -1.21,2.11 -2.66,2.23 -8.32,1.2 -16.74,0.55 -24.46,-2.94 0.13,-1.02 -0.31,-2.66 0.45,-3.43 1.62,-1.07 3.62,0.26 5.31,0.66 z"
     id="path6203"
     inkscape:connector-curvature="0"
     style="fill:#1e191d" />
  <path
     d="m 543.64,346.9943 c 6.21,-0.16 12.74,1.79 18.74,3.33 -0.98,2.17 -1.3,4.44 -3.9,5.18 -4.06,1.44 -7.98,2.89 -11.43,5.56 -3.01,2.22 -6.68,5.6 -7.01,9.55 0.18,0.86 1,1.18 2.44,0.96 4.41,-3.41 6.59,-8.74 12.61,-9.95 -0.86,3.05 -2.13,5.96 -2.91,9.03 -0.15,2.26 0.38,5.2 2.32,6.64 3.09,-1.49 1.79,-6.97 2.8,-9.86 2.04,-5.89 5.72,-11.43 10.74,-15.2 1.18,-0.93 3.04,-0.84 4.48,-0.94 4.81,-0.03 9.61,0 14.41,-0.36 -1.34,6.34 0.85,11.49 1.37,17.72 0.22,1.37 -0.33,2.45 -0.78,3.69 -1.82,-0.17 -3.79,-0.54 -5.6,-0.22 -1.72,0.77 -3.23,2.01 -4.92,2.82 -2.38,0.39 -5.15,-0.41 -7.11,1.1 -2.77,1.98 -4.74,5.5 -7.68,7.22 -3.1,0.15 -5.7,-1.02 -8.56,0.6 -3.97,2.1 -6.88,6.84 -9.83,10.13 -0.82,1.03 -1.94,1.34 -3.09,1.85 -0.63,-3.49 -0.46,-7.48 -1.84,-10.76 -0.58,-1.54 -2.93,-1.12 -4.23,-1.1 -2.59,1.68 -4.52,4.46 -6.73,6.61 0.15,-5.82 3.06,-10.15 0.23,-15.66 -3.48,-0.47 -6.4,0.71 -9.66,1.65 1.56,-6.87 10.08,-11.19 12.01,-17.99 0.56,-3.6 -2.26,-3.28 -4.65,-4.56 5.87,-2.38 11.71,-5.27 17.78,-7.04 z"
     id="path6205"
     inkscape:connector-curvature="0"
     style="fill:#0e5b38" />
  <path
     d="m 411.78,348.1743 c 0.74,7.36 3.41,14.31 8.22,19.97 3.74,3.99 5.88,9.7 8.39,14.59 2.38,5.29 5.27,10.12 7.06,15.67 -13.88,6.97 -28.15,13.03 -42.11,19.83 -1.28,0.62 -2.64,0.89 -4.02,1.18 -3.11,-5.6 -5.27,-11.6 -8.34,-17.22 -4.85,-10.15 -9.46,-20.41 -14.6,-30.42 -0.97,-1.74 -1.35,-3.48 -1.59,-5.44 3.52,-2.1 7.92,-3.71 10.77,-6.67 1.56,-1.5 1.95,-4.04 3.19,-5.72 6.35,-3.22 12.82,-4.23 19.78,-5.15 4.39,-0.83 8.8,-0.88 13.25,-0.62 z"
     id="path6207"
     inkscape:connector-curvature="0"
     style="fill:#db232b" />
  <path
     d="m 360.08,368.8543 c 1.66,3.61 3.72,7.1 5.1,10.81 0.01,2.61 -1.19,5.32 -1.9,7.81 -5.77,17.83 -16.9,35.31 -34,44.05 -6.34,-13.9 -4.71,-32.11 -3,-46.92 11.35,-5.07 22.67,-10.2 33.8,-15.75 z"
     id="path6209"
     inkscape:connector-curvature="0"
     style="fill:#ffffff" />
  <path
     d="m 150.61,370.0143 c 5.28,-0.34 10.62,1.41 15.93,1.76 7.86,0.64 13.41,4.88 19.63,9.22 4.26,2.96 5.49,7.56 8.28,11.67 1.47,2.3 3.59,4.43 4.63,6.95 -0.39,4.11 -3.52,5.78 -6.17,8.42 -2.77,2.31 -4.48,5.33 -8.37,5.51 -7.68,1.1 -16.98,0.21 -23.3,-4.69 -1.09,-0.64 -2.37,-1.82 -3.68,-1.83 -1.14,-0.04 -2.02,1.02 -1.47,2.15 2.26,4.44 6.25,5.7 10.67,7.13 4.92,1.67 9.68,1.45 14.75,2.26 -2.69,4.23 -4.9,8.22 -9.55,10.6 -4.65,2.87 -9.29,2.28 -14.33,3.61 -1.62,0.55 -2.33,2.43 -0.17,3.13 4.35,1.06 9.41,-0.83 13.87,-1.03 -0.7,3.32 -1.87,6.04 -3.61,8.93 -2.09,3.48 -3.51,7.73 -7.25,9.79 -4.27,2.32 -9.07,3.8 -13.95,3.8 -2.28,0.31 -5.41,-0.31 -6.59,2.2 0.43,1.38 1.29,2.1 2.57,2.17 4.54,0.46 9.45,-0.9 13.93,-1.67 -3.15,5.3 -7.5,9.43 -12.41,13.07 -1.33,1.15 -3.68,2.61 -3.86,4.49 0.84,2.91 3.92,1.36 5.53,0.1 5.99,-4.98 11.42,-10.74 16.06,-17 3.77,-4.75 6.59,-10.1 10.23,-14.95 1.28,5.02 1.91,10.15 2.96,15.23 1,4.99 2.82,9.5 3.45,14.58 0.8,6.26 0.71,12.72 -0.17,18.96 -0.78,5.55 -3.55,10.26 -3.54,15.98 1.87,-0.21 3.32,0.42 4.06,-1.8 2.8,-7.09 3.83,-15.62 5.14,-23.01 1.86,1.25 3.33,2.63 5.64,2.91 1.62,0.42 3.12,-1.01 2.67,-2.68 -1.68,-1.26 -3.97,-2.1 -5.32,-3.71 -1.57,-2.13 -2.61,-4.7 -3.54,-7.17 -2.26,-6.73 -4.06,-13.58 -5.29,-20.58 -0.9,-5.19 -2.41,-10.61 -2.27,-15.9 2.79,-9.75 9.45,-18.56 17.44,-24.72 -0.35,5.34 -1.37,10.34 -0.51,15.71 0.65,6.38 3.21,11.98 6.35,17.48 0.96,1.54 1.8,3.03 3.44,3.94 1.94,-0.69 2.73,-1.12 1.79,-3.27 -3.15,-6.45 -7.08,-11.51 -7.4,-19.1 -0.75,-9.2 0.57,-18.04 6.02,-25.68 1.98,0.29 3.82,1.73 5.57,2.66 4.91,2.98 10.28,4.03 15.92,4.61 8.28,0.99 16.72,0.33 25.12,0.51 0.68,6.47 -0.16,13.12 -1.65,19.42 -1.38,5.02 -3.07,10.35 -6.25,14.53 -4.62,6.37 -8.42,13.29 -11.56,20.5 -1.84,4.38 -1.87,9.59 -2.81,14.26 -5.52,-5.46 -9.1,-11.81 -17.38,-13.34 -1.61,-0.67 -2.79,1.08 -2.58,2.5 2.48,2.51 7.53,2.97 9.58,6.5 0.85,4.65 0.31,9.68 0.06,14.4 -2.42,-0.86 -4.78,-1.84 -7.12,-2.91 -0.43,8.24 1.46,18.23 -1.59,25.96 -2.55,-0.98 -5.53,-3.73 -8.26,-3.47 -6.17,4.64 -8.03,15.28 -10.58,22.2 -1.21,-3.33 -3.21,-5.03 -6.85,-4.83 -3.88,1.93 -6.25,6.85 -9.22,9.95 -2.32,-7.38 -2.03,-15.42 -4.14,-22.81 -2.65,4.77 -3.95,9.94 -6.21,14.89 -3.13,-6.33 -5.05,-12.94 -6.71,-19.78 -0.99,-4.44 -0.24,-10.09 -2.9,-13.92 -0.51,-0.99 -2.5,-1.41 -3.3,-0.6 -6.08,4.89 -10.82,11.39 -17,16.13 -0.07,-4.25 -0.14,-8.46 0.32,-12.7 0.39,-4.01 0.72,-7.87 -0.59,-11.77 -2.39,1.28 -4.69,2.41 -6.53,4.46 -2.52,2.54 -3.93,5.71 -6.18,8.45 -0.48,-2.4 -0.94,-4.68 -0.74,-7.14 0.26,-4.2 2.47,-7.62 2.05,-11.92 -4.49,0.17 -6.67,3.22 -10.69,5.04 0.05,-1.34 0.17,-2.67 0.35,-3.99 3.21,-7.77 8.93,-14.22 16.06,-18.64 2.4,-1.62 4.99,-3.13 5.83,-6.11 0.81,-3.83 -0.02,-8.73 1.36,-12.58 1.15,-3.21 3.57,-6.17 5.44,-9.02 -3.92,-0.74 -7.93,-0.27 -11.24,2.08 -2.24,1.7 -4.25,3.66 -6.63,5.18 -0.82,-6.95 3.29,-12.04 5.82,-18.11 -0.55,-0.92 -1.26,-1.23 -2.14,-0.92 -2.61,0.42 -5.18,1.13 -7.76,1.71 -0.23,-8.95 5.25,-14.07 8.15,-21.73 0.02,-3.2 -5.07,-3.13 -7.26,-3.67 5.51,-4.63 12.33,-4.48 18.13,-8.05 1.77,-2.53 -0.52,-4.61 -1.92,-6.59 3.84,-1.35 7.58,-2.27 11.65,-2.59 2.69,-0.18 4.52,-0.87 6.79,-2.24 -0.29,-3.33 -2.39,-4.9 -4.21,-7.39 -0.55,-1.17 0.41,-1.99 1.51,-2.08 z"
     id="path6211"
     inkscape:connector-curvature="0"
     style="fill:#0e5b38" />
  <path
     d="m 504.9,371.7843 c 0.33,6.07 1.75,11.87 2.77,17.83 0.78,4.8 2.89,9.17 3.48,14.02 0.7,5.74 3.82,10.69 4.12,16.42 -9.32,4.32 -18.68,8.66 -28,13.01 -7.7,4.1 -15.73,7.42 -23.52,11.33 -4.27,-6.33 -6.77,-13.84 -10.47,-20.53 -3.86,-7.71 -7.6,-15.47 -11.38,-23.21 17.93,-8.76 36.18,-16.93 54.24,-25.43 2.81,-1.47 5.64,-2.76 8.76,-3.44 z"
     id="path6213"
     inkscape:connector-curvature="0"
     style="fill:#db232b" />
  <path
     d="m 593.14,371.9043 c 2.88,0.98 5.37,3.52 7.51,5.61 4.22,4.34 5.77,9.77 6.68,15.6 -8.9,-2.52 -17.99,-5.59 -25.9,-10.46 -3.16,-1.73 -6.36,-1.72 -9.83,-2 0.58,-0.44 1.17,-0.88 1.76,-1.32 1.06,0.57 2.11,1.14 3.22,1.61 2.57,-0.53 4.13,-2.79 5.9,-4.53 2.3,-0.01 5.06,0.37 7.23,-0.49 1.86,-0.77 2.32,-2.48 3.43,-4.02 z"
     id="path6215"
     inkscape:connector-curvature="0"
     style="fill:#ffffff" />
  <path
     d="m 144.48,373.6743 c 1.37,1.39 2.73,2.79 3.97,4.3 -3.33,0.1 -6.61,0.1 -9.92,0.56 2.89,-0.79 5.84,-1.09 8.84,-1.18 -0.98,-1.21 -1.94,-2.44 -2.89,-3.68 z"
     id="path6217"
     inkscape:connector-curvature="0"
     style="fill:#0e5b38" />
  <path
     d="m 845.4,381.8243 c 4.88,5.27 5.56,12.51 3.54,19.2 7.72,-4.82 17.43,-6.8 26.44,-5.72 5.31,0.7 10.4,3.37 12.53,8.5 1.5,6.63 -0.54,13.53 -4.51,18.91 -2.27,2.8 -5.1,5.48 -8.89,5.72 -5.13,0.71 -9.75,-3.38 -12.63,-7.16 -2.51,-3.26 -3.36,-9.3 0.11,-12.19 3.26,-3.48 8.96,-4.45 13.38,-2.93 2.36,0.84 4.56,1.92 5.4,4.47 0.79,2.34 -0.46,4.55 -2.31,5.94 -2.87,1.91 -5.9,3.49 -9.44,2.59 -0.04,-1.05 -0.07,-2.1 -0.1,-3.15 2.37,-1.03 5.21,-1.9 7.19,-3.58 0.3,-0.5 0,-0.96 -0.91,-1.39 -3.58,-1.89 -6.9,-0.78 -10.21,1.02 -0.6,2.21 -1.31,3.76 0.19,5.83 1.94,2.78 5.67,6.77 9.42,6.05 3.45,-1.17 5.93,-4.58 7.38,-7.78 1.31,-2.98 2.44,-6.72 1.78,-9.97 -0.85,-3.46 -4.1,-5.31 -7.37,-5.96 -7.24,-1.16 -14.73,-0.29 -21.41,2.75 -10.01,4.48 -18.75,12.32 -28.45,17.68 -8.6,5.24 -19.12,6.6 -29.01,6.38 -4.43,-0.16 -9.41,-0.13 -13.59,-1.71 0.04,-1.13 0.08,-2.26 0.12,-3.39 1.54,-0.09 3.07,-0.19 4.62,-0.06 7.69,0.78 15.73,0.94 23.34,-0.56 9.98,-1.58 19.16,-9.24 27.56,-14.63 3.78,-2.11 4.92,-6.04 5.62,-10.04 0.59,-4.22 -0.09,-8.39 -3.11,-11.56 -2.52,-2.84 -7.5,-5.39 -11.17,-3.18 -2.39,0.98 -3.82,3.97 -4.74,6.24 -1.3,3.97 -2.84,7.68 -0.91,11.74 3.32,0.99 5.51,0.27 8.57,-0.99 0.69,-3.18 0.45,-6.26 0.12,-9.46 0.93,-0.48 1.86,-0.96 2.79,-1.44 0.67,0.85 1.66,1.73 1.92,2.8 0.77,4.16 0.83,8.33 -2.35,11.52 -4.44,3.68 -12.78,4.06 -15.74,-1.72 -1.5,-3.49 -0.57,-8.27 0.51,-11.81 1.45,-4.51 3.82,-9.35 8.42,-11.33 5.4,-2.54 12.06,0.31 15.9,4.37 z"
     id="path6219"
     inkscape:connector-curvature="0"
     style="fill:#1e191d" />
  <path
     d="m 573.42,384.3243 c 3.68,0.97 8.1,1.57 10.39,5 2.54,4.41 5.42,7.73 4.24,13.19 -1.01,2.79 -2.45,5.93 -4.47,8.12 -3.72,1.83 -8.9,2.36 -12.93,1.5 -4.37,-1.5 -7.81,-5.79 -9.51,-9.96 -0.77,-4.63 -0.53,-9.48 2.79,-13.13 2.52,-2.89 5.87,-3.91 9.49,-4.72 z"
     id="path6221"
     inkscape:connector-curvature="0"
     style="fill:#211e4c" />
  <path
     d="m 662.01,391.7543 c 1.75,4.88 1.92,10.1 0.13,15 -2.83,1.27 -5.44,2.18 -8.62,1.78 -4.22,0.16 -7.46,-2.61 -10.28,-5.4 -2.06,-4.49 -3.39,-10.99 -0.69,-15.46 5.82,-6.68 16.15,-3.19 19.46,4.08 z"
     id="path6223"
     inkscape:connector-curvature="0"
     style="fill:#211e4c" />
  <path
     d="m 632.98,387.9843 c 1.52,3.71 3.73,6.43 3.52,10.65 0.51,5 -2.95,10.55 -7.75,12.15 -3.2,1.26 -7,1 -10.11,-0.4 -5.49,-2.92 -8.88,-9.5 -7.82,-15.65 1.02,-3.89 3.98,-7.33 7.35,-9.42 5.36,-2.31 9.97,0.68 14.81,2.67 z"
     id="path6225"
     inkscape:connector-curvature="0"
     style="fill:#211e4c" />
  <path
     d="m 686.52,399.0143 c 4.93,-0.12 8.1,3.04 10.89,6.68 1.12,2.07 1.33,4.8 1.62,7.1 0.13,1.99 0.58,4.41 -0.17,6.31 -1.65,6.02 -10.63,8.16 -15.1,3.98 -2.24,-2.12 -5.11,-4.51 -6.12,-7.5 -1.33,-3.36 -0.74,-7.62 -0.55,-11.16 2.98,-2.32 5.24,-5.86 9.43,-5.41 z"
     id="path6227"
     inkscape:connector-curvature="0"
     style="fill:#211e4c" />
  <path
     d="m 437.81,402.4543 c 6.59,12.87 12.61,26.03 19.11,38.95 0.78,1.59 1.67,3.21 2.18,4.91 -8.46,4.24 -17.19,8.06 -25.71,12.21 -6.99,3.01 -13.68,6.78 -20.78,9.51 -6.8,-14.74 -14.11,-29.25 -20.9,-44 15.28,-7.36 30.77,-14.33 46.1,-21.58 z"
     id="path6229"
     inkscape:connector-curvature="0"
     style="fill:#ffffff" />
  <path
     d="m 541.48,407.2943 c 4.18,0.18 8.29,-1.09 11.91,0.69 5.1,2 8.7,7.55 9.6,12.8 -0.08,3.78 -1.17,8.56 -4.34,10.99 -4.03,3.16 -8.67,3.92 -13.68,3.43 -3.26,-4.13 -7.31,-5.14 -8.63,-10.35 -1.24,-5.47 0.72,-12.41 4.34,-16.63 l 0.69,-0.83 z"
     id="path6231"
     inkscape:connector-curvature="0"
     style="fill:#211e4c" />
  <path
     d="m 265.62,407.8443 c 16.55,7.22 32.38,17.82 42.47,33.11 -5.62,3.48 -12.1,5.04 -18.58,5.89 -13.97,1.61 -27.51,-1.07 -40.61,-5.81 4.21,-9.83 5.78,-20.33 5.09,-30.99 3.89,-0.66 7.73,-1.65 11.63,-2.2 z"
     id="path6233"
     inkscape:connector-curvature="0"
     style="fill:#ffffff" />
  <path
     d="m 594.96,411.1643 c 4.26,-1.48 8.82,0.51 12.51,2.63 4.15,2.88 5.43,8.99 5.52,13.72 -0.9,3.71 -2.9,7.36 -6.4,9.19 -1.7,0.92 -4.06,2.77 -6.09,2.26 -3.33,-0.67 -7.37,-2.34 -10.29,-4.09 -1.74,-2.24 -3.09,-5 -4.04,-7.67 -1.66,-6.18 2.09,-14.7 8.79,-16.04 z"
     id="path6235"
     inkscape:connector-curvature="0"
     style="fill:#211e4c" />
  <path
     d="m 626.17,415.2943 c 3.85,-0.66 8.67,-0.66 12.04,1.61 3.6,1.92 5.67,6.12 6.8,9.87 0.24,2.72 -0.25,5.82 -1.16,8.39 -1.35,2.38 -3.96,4.17 -6.4,5.3 -2.74,1.69 -6.78,-0.47 -9.47,-1.49 -2.55,-1.56 -5.09,-4.61 -6.49,-7.25 -1.88,-3.54 -0.9,-6.87 -0.24,-10.64 0.88,-2.3 2.95,-4.36 4.92,-5.79 z"
     id="path6237"
     inkscape:connector-curvature="0"
     style="fill:#211e4c" />
  <path
     d="m 658.05,415.3443 c 4.09,-0.88 9.11,-0.46 12.53,2.18 2.45,1.87 5.09,3.86 5.67,7.09 0.78,3.93 2.05,9.7 -0.88,13 -2.52,3.55 -6.78,5.34 -11.08,4.29 -4.77,-0.45 -8.5,-2.67 -10.97,-6.78 -0.97,-2.69 -1.78,-5.65 -2.1,-8.49 1.02,-4.6 1.84,-9.48 6.83,-11.29 z"
     id="path6239"
     inkscape:connector-curvature="0"
     style="fill:#211e4c" />
  <path
     d="m 713.21,419.9643 c 0.77,1.32 1.31,2.84 1.87,4.26 0.26,-0.75 0.52,-1.5 0.78,-2.26 1.21,1.84 2.64,3.72 3.44,5.78 0.11,3.03 -0.42,6.81 -2.53,9.13 -2.19,2.71 -6.68,3.11 -9.32,0.78 -2.1,-1.59 -5.36,-3.32 -5.84,-6.07 -1.18,-3.59 -0.32,-8.06 1.96,-11 2.16,-1.2 7.37,-1.54 9.64,-0.62 z"
     id="path6241"
     inkscape:connector-curvature="0"
     style="fill:#211e4c" />
  <path
     d="m 517.32,424.6243 c 4.86,13.21 10.75,26.01 18.33,37.9 5.35,8.22 11.34,16.9 14.95,26.05 4.98,11.18 7.68,23.9 5.24,36.06 -2.81,15.58 -12.61,28.96 -22.42,40.94 -14.29,16.7 -30.21,32.56 -45.4,48.56 -1.18,1.24 -2.44,2.4 -3.73,3.52 -9.77,-20.44 -19.51,-40.92 -29.43,-61.3 4.8,-5.82 7.96,-12.86 6.32,-20.52 -1.23,-6.35 0.01,-12.84 3.12,-18.47 1.85,-3.15 4.55,-5.46 6.12,-8.8 3.52,-7.2 3.41,-16.15 1.63,-23.8 -1.53,-6.99 -1.35,-14.31 0.47,-21.23 2.06,-8.42 7.51,-16.31 12.89,-22.97 2.74,-3.82 7.84,-5.03 11.98,-7.11 6.63,-2.82 13.01,-6.83 19.93,-8.83 z"
     id="path6243"
     inkscape:connector-curvature="0"
     style="fill:#fff005" />
  <path
     d="m 742.87,426.1043 c 3.52,-0.62 6.87,-0.87 10.42,-0.42 -0.3,2.93 -1.89,5.88 1.46,7.66 4.73,1.76 9.38,2.03 13.36,5.56 -0.06,1.92 -0.55,4.23 0.06,6.07 4.93,5.53 12.67,8.83 17.15,14.79 -1.39,0.88 -3.65,1.63 -4.35,3.22 -0.62,2.19 -0.3,4.42 0.68,6.45 1.92,4.04 4.04,7.99 5.99,12.02 0.92,2 2.15,3.63 2.1,5.86 -3.93,-2.39 -8,-4.51 -11.84,-7.05 -2.42,-1.57 -4.64,-0.92 -7.26,-0.47 0.12,2.51 0.39,4.76 1.69,6.96 3.43,6.25 6.86,12.02 8.85,19 1.42,5.3 1.17,10.4 0.93,15.82 -3.72,-5.56 -8.45,-13.62 -16.28,-12.66 -0.32,5.33 1.29,10.39 1.09,15.72 -0.18,6.04 0.66,12.56 -0.89,18.3 -1.06,4.89 -3.8,8.8 -7.13,12.41 -1.74,-4.78 -2.32,-9.98 -4.34,-14.63 -0.92,-2.34 -4.08,-3.33 -6.28,-2.35 -3.31,1.82 -4.86,6.02 -6.93,9.04 -3.56,5.06 -5.96,10.02 -11.6,13.11 0.65,-7.44 5.47,-12.72 3.43,-19.64 -2.53,-0.05 -4.52,0.43 -6.85,1.34 -0.73,-3.23 1.56,-5.93 0.68,-8.97 -0.51,-2.17 -3.2,-3.65 -5.17,-2.31 -2.83,1.51 -4.23,4.53 -5.86,7.13 -3.74,5.98 -8.31,11.16 -15.28,13.28 1.57,-3.27 3.92,-5.67 1.3,-9.23 -3.53,-0.43 -7.24,1.03 -10.8,1.29 -0.94,-3.71 -1.41,-7.45 -4.11,-10.36 -0.97,-1.36 -2.87,-2.77 -3.23,-4.4 1,-3.31 2.91,-6.35 4.2,-9.56 1.87,-4.24 1.95,-8.85 3.8,-13.12 1.71,-3.99 3.13,-8.05 3.83,-12.35 0.57,-2.46 0.77,-5.52 2.21,-7.62 2.35,-1.6 5.46,-2.47 7.13,-4.81 3.28,-4.6 3.87,-11.03 0.98,-15.98 -1.76,-3.69 -4.96,-5.41 -8.08,-7.82 2.33,-1.42 4.32,-3.15 6.28,-5.04 0.86,-1 1.98,-1.41 3.38,-1.22 3.16,2.5 5.25,6.44 7.85,9.52 2.07,2.76 5.19,5.53 5.91,8.96 1.73,6.53 1.05,13.78 -0.62,20.26 -0.89,3.53 -3.48,6.88 -3.77,10.48 0.86,1.38 3.39,1.43 3.96,-0.25 4.15,-7.61 5.82,-15.88 6.21,-24.48 2.4,1.64 3.47,3.23 3.96,6.15 1.29,10.12 2.79,21.54 7.82,30.57 0.4,0.76 0.92,1.38 1.55,1.86 2.11,-0.14 2.7,-1.65 1.94,-3.48 -3.37,-7.42 -5.9,-15.84 -5.79,-24.04 3.6,3.08 6.21,7.13 9.87,10.1 2.9,1.87 5.59,4.3 9.04,1.97 -2.6,-3.66 -6.46,-5.41 -9.52,-8.58 -7.66,-8.4 -14.99,-17.06 -22.03,-25.99 -0.65,-0.91 -0.95,-2.12 -1.33,-3.17 3.77,0.91 7.27,1.71 10.35,4.23 2.88,2.42 5.04,5.58 7.89,8.06 3.05,2.67 6.11,6.35 9.85,7.97 0.97,-0.19 1.94,-0.43 2.9,-0.73 -4,-6.26 -10.76,-10.68 -15.56,-16.38 -4.52,-5.33 -10.91,-6.64 -17.55,-7.24 -3.13,0.01 -4.21,-2.15 -5.93,-4.3 -2.42,-3.37 -5.38,-6.26 -7.82,-9.62 3.55,-0.13 6.78,-0.04 9.88,-2.06 4.11,-2.48 6.12,-5.91 6.71,-10.65 6.39,-3.29 12.61,-2.99 19.51,-4.18 z"
     id="path6245"
     inkscape:connector-curvature="0"
     style="fill:#0e5b38" />
  <path
     d="m 568.98,428.2443 c 3.31,-0.52 7.31,-0.72 10.44,0.68 3.26,1.9 6.14,4.93 6.61,8.84 0.51,3.87 0.87,8.18 -2.15,11.18 -2.33,2.23 -4.9,4.68 -8.39,3.65 -3.89,-0.72 -8.72,-1.15 -10.85,-5.02 -4.29,-6.48 -1.66,-14.98 4.34,-19.33 z"
     id="path6247"
     inkscape:connector-curvature="0"
     style="fill:#211e4c" />
  <path
     d="m 696.7,432.2943 c 1.41,1.97 3.05,3.9 4.17,6.05 1.48,2.96 1.78,6.64 1.02,9.83 -1.24,1.77 -3.66,3.97 -5.54,5.02 -4.28,0.53 -10.72,-0.07 -12.92,-4.47 -2.38,-3.12 -1.99,-8.02 -1.24,-11.63 1.2,-1.91 3.45,-4.05 5.44,-5.13 2.9,-1.64 6.07,-0.24 9.07,0.33 z"
     id="path6249"
     inkscape:connector-curvature="0"
     style="fill:#211e4c" />
  <path
     d="m 477.3,443.1143 c 0.17,3.96 -3.13,4.75 -4.42,8.04 -2.28,5.84 -4.81,11.17 -5.58,17.47 -1.09,6.43 -0.28,12.67 1.15,18.97 1.41,5.48 0.18,11.32 -0.44,16.96 -0.37,2.45 -2.56,3.75 -2.48,6.4 -1.46,2.55 -2.29,4.75 -5.41,5.41 -2.99,5.75 -3.85,12.86 -3.08,19.26 0.4,3.79 0.73,7.38 -0.54,11.07 -0.8,2.41 -2.52,4.33 -4.04,6.32 -1.35,-3.63 -2.97,-7.01 -4.86,-10.39 -3.19,-6.52 -5.88,-13.31 -9.24,-19.75 -1.75,-3.72 -3.6,-7.11 -3.16,-11.36 0.21,-2.09 -1.09,-4.96 0.81,-6.36 0.85,-0.43 2.33,1.95 3.07,2.47 0.69,-8.03 6.21,-14.24 6.82,-21.99 -0.13,-8.48 -3.93,-15.85 -0.73,-24.25 1.25,-4.83 5.1,-6.8 9.33,-8.63 4.34,-1.62 8.48,-3.69 12.72,-5.54 2.42,-1.05 3.97,-3.23 6.13,-4.68 1.27,-1 2.65,0.22 3.95,0.58 z"
     id="path6251"
     inkscape:connector-curvature="0"
     style="fill:#211e4c" />
  <path
     d="m 629.96,447.1843 c 1.37,-0.31 2.35,-0.26 3.59,0.44 2.55,1.38 5.19,2.74 7.53,4.45 5.9,5.86 6.29,16.56 0.53,22.61 -4.02,1.5 -8.57,1.74 -12.67,0.34 -7.67,-3.2 -11.26,-13.62 -7.99,-21.02 1.48,-2.68 6,-6.16 9.01,-6.82 z"
     id="path6253"
     inkscape:connector-curvature="0"
     style="fill:#211e4c" />
  <path
     d="m 602.08,448.2543 c 3.6,1.44 7.86,3.44 9.6,7.14 2.33,3.64 1.42,8.2 0.37,12.11 -1.47,4.24 -5.79,5.77 -9.12,8.32 -2.8,-1.47 -5.8,-2.03 -8.76,-3 -4.11,-2.45 -6.33,-7.98 -6.91,-12.53 0.28,-3.4 1.69,-7.33 4.54,-9.42 2.62,-2.21 6.94,-3.39 10.28,-2.62 z"
     id="path6255"
     inkscape:connector-curvature="0"
     style="fill:#211e4c" />
  <path
     d="m 658.97,448.2343 c 3.19,-0.58 5.94,-0.37 8.8,1.22 2.4,1.38 6.3,2.5 7.28,5.3 1.32,2.98 3.33,5.6 3.17,8.87 0.05,4.65 -0.76,9.11 -4.3,12.4 -1.27,1.68 -3.55,1.19 -5.4,1.37 -5.46,0.27 -11.49,-2.77 -14.06,-7.7 -2.68,-4.57 -3.4,-11.07 -1.69,-16.1 0.89,-2.8 3.28,-4.9 6.2,-5.36 z"
     id="path6257"
     inkscape:connector-curvature="0"
     style="fill:#211e4c" />
  <path
     d="m 401.87,456.2343 c 2.23,4.66 4.7,9.23 6.64,14.02 -8.76,3.96 -17.42,8.18 -26.12,12.25 -1.6,0.93 -3.28,-0.26 -4.78,-0.85 -12,-5.92 -22.95,-13.18 -31.59,-23.54 -0.61,-0.8 -1.03,-1.74 -1.46,-2.64 18.82,-5.52 38.74,-6.03 57.31,0.76 z"
     id="path6259"
     inkscape:connector-curvature="0"
     style="fill:#ffffff" />
  <path
     d="m 582.78,453.7643 c 1.81,-1.19 2.93,1.58 0.81,1.99 -1.14,-0.31 -1.41,-0.97 -0.81,-1.99 z"
     id="path6261"
     inkscape:connector-curvature="0"
     style="fill:#211e4c" />
  <path
     d="m 441.08,459.8643 c -0.65,3.23 -1.15,6.46 -0.96,9.77 0.27,7.24 2.81,13.33 1.08,20.47 -1.31,7.53 -7.91,11.4 -8.7,19.22 -5.98,-12.27 -11.84,-24.6 -17.72,-36.93 8.69,-4.35 17.59,-8.23 26.3,-12.53 z"
     id="path6263"
     inkscape:connector-curvature="0"
     style="fill:#fff005" />
  <path
     d="m 582.85,459.7643 c 0.85,3.54 2.23,7.13 2.5,10.76 -4.58,4.06 -13.27,5.35 -17.1,11.88 -0.91,1.57 -0.04,2.73 0.4,4.27 2.91,-1.82 5.05,-4.44 7.75,-6.51 1.86,0.08 3.73,0.17 5.6,0.26 -0.36,1.79 -0.74,3.55 -1.3,5.28 -1.22,4.1 -4.23,7.18 -5.85,11.22 -2.07,5.22 -3.31,10.74 -3.02,16.38 1.11,0.03 2.21,0.06 3.32,0.09 0.77,-3.93 1.5,-7.9 2.54,-11.77 0.18,-1.12 0.79,-2.03 1.82,-2.73 2.24,2.99 2.54,7.11 4.46,10.39 0.68,1.39 1.99,1.17 3.29,1.1 1.14,-2.14 -0.66,-4.95 -1.18,-7.14 -3,-7.92 -1.98,-17.28 1.01,-25.03 0.94,-1.48 1.31,-4.5 3.64,-2.73 3.66,2.35 7.46,3.05 11.71,3.56 -0.41,1.92 -0.56,4.14 -1.9,5.65 -2.3,2.88 -5.45,5.07 -6.34,8.84 -1.38,6.24 0.86,12.27 -1.07,18.57 -2.21,1.36 -5.01,2.54 -6.67,4.56 -0.87,4.66 0.54,8.95 0.13,13.53 -3,-2.83 -6.97,-3.88 -10.86,-2.34 -3.11,2.14 -3.44,6.44 -6.74,8.67 0.13,-2.97 1.08,-5.89 -0.88,-8.46 -1.85,-1.71 -4.97,-1.64 -7.35,-1.99 -0.05,-5.91 0.07,-11.84 0.3,-17.75 2,-1.67 4.1,-2.94 4.81,-5.62 -0.54,-1.88 -1.78,-3.25 -1.35,-5.08 0.07,-1.78 0.8,-4.22 -0.14,-5.82 -1.27,-2.06 -3.34,-3.74 -5.09,-5.4 1.67,-3.05 5.04,-4.52 6.69,-7.44 0.62,-2.64 -2.78,-5.6 -4.35,-7.44 2.37,-1.63 4.78,-3.1 7.32,-4.47 4.71,-2.52 8.77,-5.58 13.9,-7.29 z"
     id="path6265"
     inkscape:connector-curvature="0"
     style="fill:#0e5b38" />
  <path
     d="m 688.99,461.2043 c 4.31,-1.03 9.03,-0.74 12.14,2.82 4.02,3.27 3.98,9.91 1.74,14.16 -1.73,2.71 -5.66,5.36 -8.94,3.91 -3.48,-1.38 -6.51,-4.2 -8.7,-7.18 -0.62,-2.95 -0.6,-6.84 -0.09,-9.81 0.92,-1.51 2.36,-2.94 3.85,-3.9 z"
     id="path6267"
     inkscape:connector-curvature="0"
     style="fill:#211e4c" />
  <path
     d="m 236.38,462.7643 c 2.44,2.08 6.04,4.11 7.72,6.77 -1.2,4.43 -2.82,8.74 -3.95,13.2 -3.07,-1.26 -5.24,-3.33 -8.05,-5.14 0.1,-4.2 0.89,-8.17 2.44,-12.08 0.52,-0.99 0.7,-2.3 1.84,-2.75 z"
     id="path6269"
     inkscape:connector-curvature="0"
     style="fill:#ffffff" />
  <path
     d="m 617.14,467.8643 c 0.46,1.52 0.87,3.05 1.26,4.59 -1.3,-0.29 -2.48,-0.21 -3.5,-1.18 0.01,-1.49 1.33,-2.35 2.24,-3.41 z"
     id="path6271"
     inkscape:connector-curvature="0"
     style="fill:#211e4c" />
  <path
     d="m 319.77,468.6143 c 2.19,14.05 3.11,28.59 1.5,42.75 -7.54,3.2 -14.81,7.09 -22.37,10.24 -3.49,-5.97 -7.43,-11.87 -12.1,-16.97 1.21,-11.72 10.38,-22.45 19.73,-28.99 4.16,-2.61 8.48,-5.67 13.24,-7.03 z"
     id="path6273"
     inkscape:connector-curvature="0"
     style="fill:#ffffff" />
  <path
     d="m 248.16,472.1843 c 1.9,2.04 4.11,3.67 6.15,5.55 -0.98,4.45 -2.78,8.92 -4.56,13.11 -1.94,-1.64 -3.92,-3.22 -5.95,-4.76 1.36,-4.66 2.88,-9.28 4.36,-13.9 z"
     id="path6275"
     inkscape:connector-curvature="0"
     style="fill:#ffffff" />
  <path
     d="m 411.09,474.8943 c 3.49,7.41 6.73,14.9 10.73,22.07 2.28,6.03 5.3,11.61 8.06,17.42 3.72,8.46 8.03,16.64 11.92,25.02 5.68,10.75 10.23,22.02 15.86,32.79 4.22,7.77 7.31,16.06 11.43,23.88 2.79,5.34 5.1,10.89 7.69,16.33 1.69,3.69 3.96,6.55 4.34,10.72 -11.1,-2.33 -23.12,-3.78 -34.42,-2.3 -6.22,0.64 -12.36,1.06 -18.4,2.78 -12.84,3.48 -26.46,6.18 -39.78,6.55 -12.68,0.38 -25.17,-3.07 -36.1,-9.43 -3.24,-1.89 -5.96,-5.02 -8.4,-7.84 -5.67,-6.75 -10.33,-14.59 -14.25,-22.47 -3.93,-6.72 -6.76,-13.86 -10.14,-20.86 -3.25,-7.41 -6.59,-14.84 -9.58,-22.35 -2.16,-5.96 -4.86,-11.85 -7.44,-17.65 -0.65,-1.41 -0.68,-2.84 -0.87,-4.35 12.57,-5.86 25.14,-11.66 37.64,-17.66 2.47,-1.41 4.92,-2.48 7.59,-3.45 17.28,-8.04 33.64,-16.16 51,-23.99 4.2,-1.78 8.58,-4.73 13.12,-5.21 z"
     id="path6277"
     inkscape:connector-curvature="0"
     style="fill:#db232b" />
  <path
     d="m 614.99,476.1743 c 1.8,-0.4 3.97,0.85 5.62,1.5 3.63,1.21 5.79,5.43 6.51,8.94 0.3,3.03 -1.55,7.8 -3.84,9.82 -2.37,2.56 -6.23,2.13 -9.33,1.59 -2.92,-1.09 -6.05,-3.39 -7.59,-6.14 -0.9,-2.74 -0.78,-6.03 -0.3,-8.85 1.25,-3.8 5.27,-5.96 8.93,-6.86 z"
     id="path6279"
     inkscape:connector-curvature="0"
     style="fill:#211e4c" />
  <path
     d="m 582.41,476.9643 c -0.12,1.16 -0.24,2.31 -0.41,3.46 -1.87,-0.09 -3.74,-0.18 -5.6,-0.26 1.95,-1.15 3.97,-2.2 6.01,-3.2 z"
     id="path6281"
     inkscape:connector-curvature="0"
     style="fill:#211e4c" />
  <path
     d="m 641.97,480.1943 c 2.27,-0.35 4.8,-0.47 7.03,0.13 2.57,1.44 5.14,3.52 6.67,6.06 2.2,3.41 1.73,8.4 1.49,12.28 -0.11,2.61 -2.44,4.81 -4.68,5.84 -7.16,2.75 -15.14,-1 -17.56,-8.27 -2.2,-4.62 -0.54,-9.13 2.03,-13.16 1.26,-1.59 3.07,-2.45 5.02,-2.88 z"
     id="path6283"
     inkscape:connector-curvature="0"
     style="fill:#211e4c" />
  <path
     d="m 258.09,481.5143 c 1.71,1.37 3.4,2.76 5.14,4.09 -0.66,4.5 -3.21,8.64 -4.55,12.99 -1.65,-1.28 -3.58,-2.64 -4.77,-4.37 0.79,-4.33 2.94,-8.47 4.18,-12.71 z"
     id="path6285"
     inkscape:connector-curvature="0"
     style="fill:#ffffff" />
  <path
     d="m 673.98,483.2043 c 3.53,-0.58 7.05,-0.27 9.83,2.18 2.57,2.34 4.99,5.37 6.12,8.68 0.88,4.26 -0.49,9.28 -3.8,12.19 -3.12,2.27 -7.09,2.71 -10.71,1.44 -4.24,-0.88 -6.83,-5.55 -8.36,-9.22 -0.65,-3.12 -1.73,-7.27 0.29,-10.09 1.51,-2.7 3.4,-4.76 6.63,-5.18 z"
     id="path6287"
     inkscape:connector-curvature="0"
     style="fill:#211e4c" />
  <path
     d="m 267.3,489.7343 c 1.41,1.58 3.14,3.07 4.19,4.92 -1.28,4.22 -3.37,8.2 -4.98,12.31 -1.91,-1.48 -3.22,-2.99 -4.51,-5.03 1.55,-3.17 2.67,-6.49 4.1,-9.7 0.4,-0.84 0.79,-1.67 1.2,-2.5 z"
     id="path6289"
     inkscape:connector-curvature="0"
     style="fill:#ffffff" />
  <path
     d="m 556.75,490.9643 c 1.46,0.76 2.83,1.65 4.19,2.56 -0.58,1.41 -1.17,2.82 -1.78,4.21 -1.06,-2.16 -1.95,-4.4 -2.41,-6.77 z"
     id="path6291"
     inkscape:connector-curvature="0"
     style="fill:#ffffff" />
  <path
     d="m 275.39,498.0843 0.23,0.28 c 1.74,2.43 4.57,4.56 5.73,7.28 -1.61,4.75 -4,9.24 -5.78,13.94 -2.17,-2.57 -3.89,-5.41 -5.9,-8.09 1.79,-4.51 3.61,-9.04 5.72,-13.41 z"
     id="path6293"
     inkscape:connector-curvature="0"
     style="fill:#ffffff" />
  <path
     d="m 559.59,501.6843 c 1.75,-1.16 2.89,1.66 0.83,2.06 -1.12,-0.33 -1.4,-1.02 -0.83,-2.06 z"
     id="path6295"
     inkscape:connector-curvature="0"
     style="fill:#0e5b38" />
  <path
     d="m 605.95,504.2043 c 4.41,-1.03 8.1,0.57 10.92,3.94 1.97,3 4,5.54 3.18,9.38 -1.14,4.56 -5.63,7.88 -9.85,9.41 -3.96,-0.75 -8.65,-3.13 -10.27,-7.07 -1.59,-2.85 -2.99,-5.34 -1.71,-8.68 2.19,-3.17 3.33,-6.75 7.73,-6.98 z"
     id="path6297"
     inkscape:connector-curvature="0"
     style="fill:#211e4c" />
  <path
     d="m 284.89,509.7343 c 1.71,1.52 3.14,3.55 4.54,5.37 -1.88,4.14 -4.38,7.94 -6.4,12.02 -0.55,0.68 -0.88,2.4 -1.94,2.26 -0.97,-1.54 -1.8,-3.2 -2.66,-4.8 2.04,-4.99 4.07,-10.03 6.46,-14.85 z"
     id="path6299"
     inkscape:connector-curvature="0"
     style="fill:#ffffff" />
  <path
     d="m 662,510.2843 c 3.63,-1.44 8.09,1.98 10.9,4 4.68,3.03 6.2,9.47 4.83,14.62 -1.62,4.03 -5.4,8.29 -10.22,7.39 -4.06,-0.15 -7.08,-3.23 -9.94,-5.76 -3.23,-3.34 -2.91,-7.61 -2.68,-11.93 -0.02,-3.83 3.99,-6.84 7.11,-8.32 z"
     id="path6301"
     inkscape:connector-curvature="0"
     style="fill:#211e4c" />
  <path
     d="m 632.93,511.1643 c 2.51,-0.65 6.66,-0.6 9.15,0.08 2.26,1.04 5.08,3.13 6.79,4.92 1.43,3.1 2.22,7.06 2.24,10.47 -0.22,2.7 -1.2,6.5 -3.89,7.75 -2.94,1.47 -6.49,2.46 -9.67,1.14 -3.19,-1.15 -6.83,-3.24 -8.53,-6.28 -1.57,-3.6 -2.86,-7.72 -1.16,-11.51 0.94,-2.37 2.58,-5.57 5.07,-6.57 z"
     id="path6303"
     inkscape:connector-curvature="0"
     style="fill:#211e4c" />
  <path
     d="m 593.52,517.3143 c 0.73,2.54 1.83,4.92 2.78,7.37 -0.69,1.45 -3.67,2.46 -5.04,3.61 -0.3,-3.36 -0.57,-6.72 -0.52,-10.1 0.93,-0.29 1.85,-0.59 2.78,-0.88 z"
     id="path6305"
     inkscape:connector-curvature="0"
     style="fill:#ffffff" />
  <path
     d="m 392.32,519.8143 c -0.1,1.14 -0.21,2.28 -0.31,3.42 -2.89,-0.09 -5.48,-0.52 -8.12,0.93 -0.53,4.65 2.34,8.17 1.13,12.61 -1.04,2.95 -3.73,4.5 -5.21,6.9 0.73,4.82 4.39,9.3 6.24,13.84 4.22,-2.26 8.5,-4.25 12.85,-6.21 -0.75,-6.91 3.6,-11.83 9.03,-15.33 -0.24,-3.13 -0.73,-4.92 -3.17,-7.03 -1.43,0.57 -2.86,1.15 -4.31,1.66 -1.67,0.55 -4.38,1.57 -4.74,-1.06 2.63,-4.48 9.42,-6.29 13.37,-2.42 2.32,2.81 2.88,6.14 3.14,9.68 -1.94,2.23 -3.95,4.39 -6,6.52 -2.31,2.29 -3.83,5.05 -2.48,8.33 0.48,2.31 2.96,3.23 4.66,4.55 5.16,-1.62 9.81,-3.17 15.27,-1.8 2.98,1.49 4.41,5.19 4.61,8.36 -1.65,1.87 -3.29,4.66 -5.66,5.61 -2.39,0.53 -1.44,-2.52 -1.7,-3.95 2.01,-1.14 3.36,-4.7 1.15,-6.11 -5.16,-1.02 -10.36,2.17 -15.73,2.02 -1.98,-1.43 -3.87,-3.05 -5.96,-4.32 -4.33,0.79 -8.69,3.54 -12.47,5.76 2.6,5.3 4.82,10.85 7.56,16.04 2.84,2.4 7.92,0.09 11.12,2.7 3.18,1.65 3.64,4.49 4.77,7.57 1.06,-0.04 2.38,0.28 3.35,-0.2 2.09,-2.69 0.76,-7.09 1.58,-10.32 0.82,-0.98 2.69,-0.43 3.84,-0.58 -0.04,3.23 0.17,6.53 -0.24,9.74 -0.81,2.59 -2.72,5.23 -5.27,6.32 -4.06,0.84 -5.69,-2.12 -8.33,-4.44 -0.16,-1.08 -0.31,-2.16 -0.46,-3.24 -1.76,-1.06 -3.12,-2.29 -5.29,-2.3 -2.41,-0.02 -5.3,-0.49 -7.1,1.51 -3.88,3.68 -3.31,9.49 -3.17,14.34 -2.65,2.55 -4.73,5.28 -8.88,4.22 -3.98,-2.12 -5.15,-5.63 -6.5,-9.63 1.08,-0.75 3.48,-2.48 4.22,-0.47 0.87,1.53 1.49,3.19 2.35,4.73 1.1,0.96 3.67,0.67 4.43,-0.67 0.36,-3.38 -0.35,-6.75 0.93,-9.98 0.94,-2.7 2.63,-4.88 4.49,-7 -1.77,-5.68 -4.81,-11.06 -7.61,-16.29 -6.04,1.62 -9.95,6.18 -16.6,6.51 0.47,0.33 0.93,0.66 1.4,0.99 -0.35,3.7 -0.74,7.66 -2.04,11.16 -0.86,2.43 -3.17,4.15 -4.58,6.27 -0.24,1.48 -0.15,3.01 0.17,4.47 1.71,1.19 4,1.61 5.96,2.28 -0.01,1.19 -0.01,2.37 -0.01,3.56 -1.54,0.03 -3.09,0.06 -4.63,0.09 -1.79,-1.32 -3.77,-2.61 -5.3,-4.23 -1.35,-1.7 -1.21,-4.38 -0.97,-6.41 1.31,-2.89 4.05,-4.92 5.21,-8.01 1.38,-3.06 1.71,-6.17 1.7,-9.49 -1.59,-1.1 -2.96,-2.41 -4.91,-2.74 -4.2,-0.82 -8.62,-1.83 -12.5,-3.68 -2.57,-1.66 -3.13,-4.78 -1.9,-7.5 0.98,-3.32 3.53,-4.56 6.04,-6.58 1.11,0.86 2.11,1.86 3.01,3 -1.98,2.08 -5.44,3.51 -4.9,6.89 3.49,2.83 9.36,2.57 13.47,4.43 1.54,0.49 3.41,1.62 5.04,1.32 4.88,-1.61 9.36,-3.91 13.77,-6.52 -0.38,-3.84 -2.65,-6.39 -3.87,-9.98 -0.74,-1.53 -0.92,-3.56 -2.67,-4.27 -2.99,0.1 -6.64,1.65 -9.58,0.64 -3.92,-1.28 -4.09,-6.03 -6.92,-8.97 -0.9,-1.2 -1.77,-1.25 -3.17,-1 -2.95,1.91 -3.84,6.65 -7.99,6.18 -0.54,-4.03 1.91,-6.17 4.2,-9.01 2.01,-2.61 5.94,-2.51 8.4,-0.64 3.42,2.58 4.5,6.18 7.3,9.78 5.27,-0.95 10.33,-2.12 14.08,-6.22 0.64,-2.67 -1.09,-5.88 -1.78,-8.45 0.75,-2.73 0.67,-6.56 3.52,-7.99 2.81,-1.41 6.78,-0.85 9.67,0.11 z"
     id="path6307"
     inkscape:connector-curvature="0"
     style="fill:#1e191d" />
  <path
     d="m 292.32,519.8943 c 2.55,3.11 4.43,7 5.86,10.75 -3.74,3.7 -6.81,7.94 -10.37,11.8 -1.23,-2.6 -2.49,-5.19 -3.71,-7.8 2.79,-4.89 5.28,-9.96 8.22,-14.75 z"
     id="path6309"
     inkscape:connector-curvature="0"
     style="fill:#ffffff" />
  <path
     d="m 600.96,527.3843 0.02,0.02 c 3.38,2.67 7.53,3.62 9.62,7.14 2.53,3.33 1.52,7.81 1.45,11.7 -3.46,3.1 -6.42,5.9 -11.4,5.9 -4.75,-0.92 -8.85,-5.69 -9.21,-10.5 -0.36,-2.75 -0.95,-6.6 1.24,-8.79 2.84,-1.84 5.92,-2.88 8.28,-5.47 z"
     id="path6311"
     inkscape:connector-curvature="0"
     style="fill:#211e4c" />
  <path
     d="m 500.68,528.2843 c 1.51,0.43 2.52,2.51 3.54,3.65 1.82,2.73 4.78,5.46 5.52,8.69 0.18,2.66 -2.09,4.18 -4.38,4.86 -3.63,1.31 -7.1,0.69 -10.8,1.12 -3.33,0.93 -5.82,4.67 -6.19,8 -0.05,4.33 1.94,8.2 5.05,11.13 2.29,2.28 5.81,5.08 9.27,4.09 1.07,-1.45 0.43,-3.92 0.43,-5.64 -2.28,-0.99 -5.11,-1.52 -7.05,-3.07 -0.76,-2.97 0.26,-5.5 2.64,-7.35 4.26,-3.12 9.7,-4.81 14.8,-6.01 2.5,-0.7 5.44,-0.37 6.91,1.98 1.62,3.41 1.13,7.28 0.81,10.9 -0.46,5.01 -0.32,10.37 -2.93,14.87 -2.94,4.79 -7.76,7.27 -12.91,9.05 -5.75,1.76 -10.89,3.57 -16.99,2.14 -8.51,-1.78 -15.21,-8.96 -18.22,-16.89 -3.85,-9.89 -2.38,-21.71 4.81,-29.71 6.38,-7.01 16.45,-10.78 25.69,-11.81 z"
     id="path6313"
     inkscape:connector-curvature="0"
     style="fill:#1e191d" />
  <path
     d="m 498.41,531.3543 c 3.4,2.58 3.67,6.73 7.6,8.72 -0.33,0.71 -0.66,1.41 -0.99,2.12 -2.16,0.62 -4.23,1.21 -6.51,0.95 -2.71,-0.03 -5.19,-0.98 -7.57,0.7 -2.62,1.31 -3.61,4.65 -5.34,7.01 -2.44,3.34 -1.62,7.15 0.14,10.57 1.21,1.89 3.44,3.21 4.56,5.17 1.31,2.22 2.55,4.46 4,6.59 0.65,-0.62 1.3,-1.24 1.94,-1.85 2.08,0.58 4.17,1.14 6.26,1.7 0.57,-0.56 1.15,-1.11 1.73,-1.65 0.85,0.15 1.7,0.27 2.55,0.37 0.43,-2.7 0.64,-5.32 -0.27,-7.98 -1.84,-3.55 -5,-5.47 -8.95,-5.89 2.16,-2.67 2.78,-2.72 6.07,-1.96 0.69,-0.46 1.37,-0.93 2.06,-1.4 -0.59,-0.55 -1.18,-1.1 -1.77,-1.65 1.06,0.13 2.12,0.23 3.18,0.3 2.15,0.42 3.9,-2.06 5.68,-3.02 1.47,-0.17 3.49,0.52 4.23,1.86 0.87,4.8 -0.4,9.83 0.42,14.55 0.19,1.47 0.63,3.04 0.48,4.53 -1.5,1.54 -3.03,3.01 -4.37,4.7 -0.96,0.31 -1.91,0.65 -2.84,1.02 -1.62,1.72 -2.15,3.62 -4.62,4.42 -3.81,1.37 -7.85,2.59 -11.75,3.7 -6.23,0.64 -12.35,-2.01 -15.9,-7.24 -6.78,-5.53 -8.32,-13.76 -8.39,-22.07 0.78,-2.84 1.91,-5.5 2.31,-8.44 1.28,-1.41 2.4,-2.86 3.41,-4.47 1.07,-0.54 2.16,-1.07 3.24,-1.6 0.17,-1.04 0.34,-2.08 0.51,-3.12 1.03,0.35 2.05,0.71 3.08,1.06 2.51,-1.53 4.89,-3.28 7.48,-4.67 2.8,-1.23 5.77,-1.17 8.34,-3.03 z"
     id="path6315"
     inkscape:connector-curvature="0"
     style="fill:#211e4c" />
  <path
     d="m 300.35,535.4243 c 0.89,2.67 3.34,6.27 2.88,9.02 -2.86,3.85 -5.88,8.03 -9.29,11.4 -1.25,-2.85 -2.5,-5.7 -3.89,-8.49 3.31,-4.01 6.36,-8.53 10.3,-11.93 z"
     id="path6317"
     inkscape:connector-curvature="0"
     style="fill:#ffffff" />
  <path
     d="m 663.12,539.0643 c 2.49,1.45 5.06,3.67 6.84,5.93 1.53,3.14 1.58,7.16 1.31,10.57 -0.63,2.42 -2.62,4.68 -4.4,6.38 -2.5,1.95 -6.95,1.19 -9.95,1.23 -2.94,-3.73 -8.05,-6.4 -8.04,-11.51 -0.04,-3.22 -0.79,-7.85 1.1,-10.62 3.44,-3.35 8.87,-4.41 13.14,-1.98 z"
     id="path6319"
     inkscape:connector-curvature="0"
     style="fill:#211e4c" />
  <path
     d="m 629.98,539.1343 c 3.45,-0.24 7.47,1.84 10.21,3.82 2.65,3.1 5.89,7.95 4.78,12.22 -0.71,2.7 -2.33,5.56 -4.37,7.46 -2.83,1.82 -6.06,1.99 -9.3,1.37 -4.61,-0.3 -7.77,-5.43 -10.06,-8.93 -1.06,-4.52 -0.14,-10.11 3.1,-13.61 1.38,-1.6 3.65,-2 5.64,-2.33 z"
     id="path6321"
     inkscape:connector-curvature="0"
     style="fill:#211e4c" />
  <path
     d="m 305.52,549.0943 0.23,-0.29 c 1.35,3.75 3.95,7.78 4.47,11.68 -2.8,4.14 -6.18,7.96 -9.28,11.9 -1.62,-3.72 -2.98,-7.5 -4.84,-11.11 2.88,-4.25 6.32,-8.1 9.42,-12.18 z"
     id="path6323"
     inkscape:connector-curvature="0"
     style="fill:#ffffff" />
  <path
     d="m 602.63,558.0743 c 2.84,-0.19 6.75,-0.66 8.99,1.49 2.49,2.33 4.91,4.32 4.68,8.06 0.63,5.35 -2.26,8.99 -5.97,12.36 -2.71,-0.32 -5.57,-0.35 -8.21,-1.04 -2.01,-1.59 -3.8,-3.51 -5.47,-5.44 -1.82,-1.96 -1.25,-5.48 -0.94,-7.89 0.6,-3.57 2.93,-7.35 6.92,-7.54 z"
     id="path6325"
     inkscape:connector-curvature="0"
     style="fill:#211e4c" />
  <path
     d="m 312.72,564.9443 0.15,0.35 c 1.35,3.17 2.71,6.34 4.2,9.45 -3.05,4.73 -5.88,9.7 -9.35,14.14 -1.72,-3.75 -3.26,-7.57 -4.78,-11.4 3.11,-4.3 6.54,-8.34 9.78,-12.54 z"
     id="path6327"
     inkscape:connector-curvature="0"
     style="fill:#ffffff" />
  <path
     d="m 631.95,568.2243 c 1.85,-0.04 3.76,1.7 5.26,2.67 3.21,2.06 4.6,5.99 5.53,9.51 -0.43,3.02 -2.41,6.62 -4.4,8.95 -3.13,1.93 -7.69,2.43 -10.97,0.45 -5.48,-2.37 -8.24,-10.29 -5.27,-15.51 1.73,-4.06 5.65,-5.8 9.85,-6.07 z"
     id="path6329"
     inkscape:connector-curvature="0"
     style="fill:#211e4c" />
  <path
     d="m 319.4,579.9643 0.11,-0.17 c 1.44,3.39 3.11,6.66 4.72,9.97 -2.67,4.88 -6.27,9.22 -8.62,14.26 -1.84,-3.16 -4.43,-6.64 -5.08,-10.27 2.61,-4.76 5.84,-9.28 8.87,-13.79 z"
     id="path6331"
     inkscape:connector-curvature="0"
     style="fill:#ffffff" />
  <path
     d="m 326.88,594.7443 c 1.7,2.96 3.31,5.96 5.11,8.86 -2.66,4.28 -5.25,8.59 -7.94,12.85 -2.11,-2.63 -4.01,-5.4 -6,-8.12 2.86,-4.56 5.55,-9.32 8.83,-13.59 z"
     id="path6333"
     inkscape:connector-curvature="0"
     style="fill:#ffffff" />
  <path
     d="m 334.48,608.5943 c 2.94,2.25 4.82,6.53 7.78,9.12 -2.15,3.66 -4.56,7.14 -6.84,10.72 -2.84,-2.54 -5.46,-5.29 -8.11,-8.01 2.04,-4.04 4.54,-8.15 7.17,-11.83 z"
     id="path6335"
     inkscape:connector-curvature="0"
     style="fill:#ffffff" />
  <path
     d="m 345.49,621.4143 c 2.25,1.47 4.44,3.02 6.68,4.51 -1.75,3.36 -3.16,6.86 -4.72,10.31 -2.9,-0.51 -5.77,-3.39 -8.42,-4.78 2.03,-3.42 4.2,-6.78 6.46,-10.04 z"
     id="path6337"
     inkscape:connector-curvature="0"
     style="fill:#ffffff" />
  <path
     d="m 449.15,625.1543 c 2.33,-0.33 4.74,-0.25 7.09,-0.26 -1.98,4.56 -3.96,9.14 -5.67,13.81 -2.31,0.22 -4.62,0.37 -6.94,0.5 1.76,-4.69 3.33,-9.55 5.52,-14.05 z"
     id="path6339"
     inkscape:connector-curvature="0"
     style="fill:#ffffff" />
  <path
     d="m 461.18,625.0343 c 1.47,-0.15 2.97,-0.1 4.45,-0.12 -1.23,4.62 -3.1,8.95 -4.74,13.43 -1.73,0.16 -3.46,0.33 -5.19,0.5 1.35,-4.63 3.4,-9.45 5.48,-13.81 z"
     id="path6341"
     inkscape:connector-curvature="0"
     style="fill:#ffffff" />
  <path
     d="m 443.58,625.6943 c -1.29,4.69 -3.41,9.03 -4.93,13.65 -2.62,0.41 -5.25,0.7 -7.89,0.91 1.44,-4.59 2.89,-9.2 4.59,-13.71 2.72,-0.42 5.49,-0.65 8.23,-0.85 z"
     id="path6343"
     inkscape:connector-curvature="0"
     style="fill:#ffffff" />
  <path
     d="m 470.41,625.8743 c 2.36,-0.04 4.79,0.5 7.1,0.95 -2.13,3.91 -3.84,8.02 -5.95,11.92 -1.91,0.15 -3.85,0.08 -5.77,0.07 1.35,-4.38 3.07,-8.64 4.62,-12.94 z"
     id="path6345"
     inkscape:connector-curvature="0"
     style="fill:#ffffff" />
  <path
     d="m 430.01,627.7943 c -1.61,4.21 -2.62,8.68 -4.44,12.8 -1.86,0.66 -4.03,0.61 -5.98,0.83 1.52,-4.09 3.04,-8.19 4.72,-12.22 1.87,-0.58 3.78,-1.01 5.7,-1.41 z"
     id="path6347"
     inkscape:connector-curvature="0"
     style="fill:#ffffff" />
  <path
     d="m 356.23,627.8143 c 2.74,1.21 5.5,2.37 8.32,3.38 -1.45,3.38 -2.86,6.79 -4.49,10.08 -2.44,0.76 -6.06,-1.64 -8.45,-2.36 1.11,-3.87 2.92,-7.34 4.62,-11.1 z"
     id="path6349"
     inkscape:connector-curvature="0"
     style="fill:#ffffff" />
  <path
     d="m 419.01,630.4743 c -1.71,3.86 -3.22,7.79 -4.71,11.73 -2.49,0.45 -4.98,0.86 -7.49,1.2 1.2,-3.69 2.13,-7.46 3.32,-11.15 2.97,-0.51 5.93,-1.1 8.88,-1.78 z"
     id="path6351"
     inkscape:connector-curvature="0"
     style="fill:#ffffff" />
  <path
     d="m 368.99,633.0343 c 3.13,-0.39 7.03,1.15 10.31,1.29 -1.72,3.61 -3.3,7.25 -5.33,10.69 -3.19,-0.58 -6.39,-1.03 -9.58,-1.57 1.35,-3.54 2.81,-7.07 4.6,-10.41 z"
     id="path6353"
     inkscape:connector-curvature="0"
     style="fill:#ffffff" />
  <path
     d="m 396.24,634.3443 c 2.93,-0.52 5.92,-0.73 8.86,-1.19 -1.13,3.64 -2.21,7.29 -3.2,10.98 -3.34,0.57 -6.65,0.96 -10.03,1.19 1.54,-3.62 2.67,-7.44 4.37,-10.98 z"
     id="path6355"
     inkscape:connector-curvature="0"
     style="fill:#ffffff" />
  <path
     d="m 384.52,634.6043 c 2.2,-0.18 4.42,-0.12 6.63,-0.14 -1.43,3.65 -2.86,7.3 -4.21,10.97 -2.52,0.07 -5.04,0.08 -7.55,0.01 1.49,-3.68 3.02,-7.47 5.13,-10.84 z"
     id="path6357"
     inkscape:connector-curvature="0"
     style="fill:#ffffff" />
</svg>
