<?xml version="1.0" encoding="UTF-8" standalone="no"?>
<!DOCTYPE svg PUBLIC "-//W3C//DTD SVG 1.1//EN" "http://www.w3.org/Graphics/SVG/1.1/DTD/svg11.dtd">
<svg xmlns="http://www.w3.org/2000/svg" version="1.1" viewBox="0 0 960 960" width="960.0pt" height="960.0pt">
<path d="M 0.00 0.00 L 960.00 0.00 L 960.00 960.00 L 0.00 960.00 L 0.00 0.00 Z" fill="#ffffff" />
<path d="M 455.49 143.70 C 470.91 150.04 482.19 165.11 489.95 179.33 C 497.08 178.45 504.01 177.96 511.02 179.90 C 520.99 182.28 530.03 187.66 535.51 196.51 C 540.21 203.85 541.34 212.46 540.50 221.01 C 539.47 225.71 536.97 230.23 534.32 234.21 C 527.50 244.52 516.76 251.80 505.10 255.59 C 505.54 259.76 506.44 263.84 507.01 267.99 C 508.70 279.59 508.94 291.28 508.46 302.97 C 522.31 298.74 536.66 295.11 551.05 293.31 C 553.30 292.86 553.53 295.68 553.42 297.27 C 547.65 298.59 541.77 299.22 536.00 300.54 C 526.42 302.35 517.14 305.16 507.82 307.97 C 507.62 310.45 507.41 312.93 507.22 315.41 C 509.78 314.77 512.35 314.20 514.95 313.76 C 528.25 311.45 542.12 309.05 555.64 309.57 C 555.68 310.92 555.71 312.28 555.73 313.63 C 549.78 314.40 543.80 314.10 537.85 314.91 C 527.32 316.25 516.62 317.73 506.31 320.26 C 505.48 322.57 505.07 325.06 504.56 327.45 C 512.19 326.53 519.99 325.98 527.66 326.46 C 529.66 326.86 529.49 328.56 529.37 330.22 C 526.14 331.40 522.25 330.56 518.83 330.91 C 513.64 331.40 508.17 331.14 503.10 332.37 C 499.21 343.42 494.19 353.82 486.18 362.52 C 516.40 364.59 546.48 366.49 575.90 374.74 C 577.24 374.66 578.58 374.54 579.92 374.36 C 578.71 370.86 577.02 367.65 576.11 364.03 C 572.86 352.04 573.47 339.93 575.89 327.86 C 576.97 321.17 584.30 318.48 590.00 316.89 C 598.97 314.59 608.79 314.31 618.00 314.64 C 630.66 315.32 642.96 316.99 655.01 321.05 C 659.57 322.62 664.23 324.87 667.85 328.12 C 670.95 331.00 671.53 335.01 672.08 338.99 C 673.11 349.37 670.90 360.04 666.67 369.53 C 665.33 371.97 667.17 373.70 668.20 375.80 C 675.52 388.41 678.51 404.10 673.00 417.98 C 668.75 428.71 660.55 436.84 651.02 443.05 C 646.16 446.00 642.58 450.35 637.41 452.88 C 638.28 461.80 643.75 468.05 646.87 476.07 C 647.90 478.95 647.77 482.19 645.06 484.07 C 640.70 486.86 635.53 488.60 630.54 489.88 C 629.40 492.37 629.45 494.90 629.40 497.57 C 633.61 496.87 637.79 496.03 642.02 495.45 C 644.55 494.92 647.13 495.07 648.17 492.23 C 645.97 491.84 643.72 491.67 641.55 491.19 C 639.69 490.54 640.09 487.38 642.05 487.06 C 644.25 486.64 646.80 487.32 648.92 487.97 C 650.67 488.56 652.71 489.91 652.69 491.98 C 653.17 495.97 649.00 498.82 645.53 499.45 C 640.45 500.30 635.34 501.13 630.25 501.95 C 630.58 503.44 630.22 506.17 631.78 506.97 C 634.78 508.74 637.83 510.21 640.47 512.55 C 644.48 516.15 647.42 520.81 648.87 526.00 C 653.49 522.52 657.91 519.98 663.98 521.11 C 669.26 521.91 672.81 524.66 676.07 528.72 C 678.03 526.21 679.13 523.64 682.05 522.02 C 687.53 518.72 694.77 520.52 699.29 524.66 C 706.63 531.05 709.05 542.66 702.13 550.35 C 705.43 550.83 708.39 552.04 711.34 553.54 C 711.10 553.09 710.85 552.64 710.60 552.18 C 710.62 547.36 711.32 542.45 714.99 538.98 C 717.98 536.07 721.84 535.31 725.90 535.45 C 723.61 534.36 722.10 533.85 721.73 531.01 C 722.31 525.58 724.18 520.29 725.26 514.93 C 723.42 514.56 720.77 514.75 719.79 512.77 C 716.98 507.76 721.81 501.92 723.67 497.30 C 717.84 502.47 715.20 509.65 708.12 514.09 C 704.70 516.33 700.85 515.91 696.96 516.34 C 693.54 516.71 690.55 519.32 686.99 518.75 C 685.42 518.57 683.81 517.40 683.30 515.90 C 682.04 512.33 682.78 507.99 683.45 504.37 C 681.76 504.46 680.35 505.02 678.77 504.17 C 676.71 498.88 680.55 491.83 682.25 486.80 C 681.83 485.12 678.62 484.81 677.62 483.21 C 677.30 481.53 677.31 479.85 678.51 478.50 C 681.12 474.88 685.31 473.56 687.95 469.95 C 686.30 468.92 683.78 468.18 682.66 466.51 C 681.23 463.23 684.10 460.34 686.02 458.01 C 691.01 452.32 697.78 450.29 704.98 449.04 C 703.81 446.80 703.08 445.18 703.45 442.57 C 705.28 441.86 707.00 441.33 709.00 441.58 C 715.27 442.17 721.50 443.24 727.75 443.98 C 724.23 440.05 722.90 435.65 718.77 432.36 C 714.17 428.44 708.97 426.55 703.56 424.11 C 703.62 422.95 703.69 421.80 703.75 420.65 C 705.53 420.54 707.04 420.56 708.68 421.34 C 714.15 423.59 719.96 426.60 724.04 430.96 C 726.67 433.68 728.39 437.60 730.69 440.54 C 731.23 440.88 731.63 440.68 731.89 439.93 C 733.36 436.70 736.05 435.05 738.29 432.52 C 740.76 426.91 742.38 421.14 743.65 415.15 C 744.87 410.04 749.75 406.28 755.00 406.36 C 758.84 406.26 761.88 408.08 765.21 409.70 C 767.86 408.00 769.07 405.36 771.10 403.10 C 773.28 400.89 777.11 400.21 779.42 402.59 C 781.72 404.88 781.96 409.01 782.60 412.03 C 788.29 411.03 793.77 404.47 799.45 407.66 C 799.55 409.87 799.47 412.06 799.30 414.26 C 801.76 414.70 803.34 414.04 804.27 416.81 C 804.81 421.94 799.40 427.06 796.19 430.54 C 797.56 430.48 798.92 430.42 800.29 430.35 C 801.03 431.19 802.39 431.97 802.63 433.11 C 803.58 436.24 801.49 439.24 800.26 441.98 C 807.80 440.78 815.54 441.19 822.91 443.18 C 832.10 445.77 840.03 451.82 845.74 459.39 C 847.76 462.05 848.87 465.89 846.73 468.80 C 844.61 471.57 840.52 472.11 837.35 472.98 C 840.62 476.43 845.10 480.17 846.46 484.83 C 847.05 487.70 847.17 490.70 844.61 492.65 C 841.31 495.29 836.57 494.56 832.65 494.41 C 832.35 497.81 833.43 502.14 829.10 503.28 C 825.54 503.45 821.98 500.07 819.02 498.33 C 822.65 508.61 825.32 519.34 828.09 529.89 C 828.96 533.57 829.42 537.11 827.37 540.50 C 825.62 540.78 823.82 541.57 822.11 540.80 C 819.88 539.85 817.88 538.16 815.90 536.77 C 813.19 543.92 817.27 552.63 814.07 560.05 C 812.83 562.37 810.52 562.80 808.21 561.71 C 801.91 558.98 799.59 552.52 795.34 547.54 C 794.80 547.52 794.26 547.50 793.72 547.48 C 792.96 549.11 792.26 550.83 791.31 552.36 C 790.54 554.01 788.09 554.01 786.65 553.39 C 783.90 551.62 782.90 547.34 781.81 544.47 C 781.04 544.05 780.42 545.45 779.85 545.82 C 778.59 547.44 776.94 547.70 775.08 548.25 C 774.26 547.91 773.44 547.57 772.62 547.23 C 771.13 540.81 769.70 534.86 771.28 528.27 C 769.39 532.31 767.91 537.39 764.74 540.59 C 762.81 542.66 760.46 542.89 757.90 543.76 C 756.29 544.19 754.58 544.92 752.91 544.58 C 751.51 544.08 750.21 543.14 748.96 542.33 C 746.44 545.73 744.21 546.25 740.11 546.37 C 741.57 549.73 742.24 552.82 742.53 556.47 C 750.40 553.24 758.01 558.38 760.91 565.70 C 769.13 563.24 777.53 562.50 786.00 561.47 C 789.48 561.31 792.89 560.65 795.54 563.43 C 797.45 565.03 796.39 567.79 796.24 569.90 C 800.87 571.30 806.97 572.86 810.23 576.64 C 812.13 578.74 811.82 580.88 810.70 583.26 C 815.75 588.39 823.32 591.62 827.27 597.53 C 828.85 599.83 827.99 601.56 827.39 603.96 C 826.00 604.56 824.61 605.17 823.23 605.78 C 826.62 614.06 831.73 621.74 834.60 630.52 C 835.23 632.52 835.34 634.53 835.53 636.60 C 828.57 632.95 821.82 628.97 815.00 625.08 C 819.58 634.27 824.64 642.30 825.31 652.98 C 825.39 658.23 825.94 663.64 825.35 668.86 C 824.67 671.66 821.07 671.84 819.64 669.43 C 816.40 664.24 814.05 658.92 809.26 654.84 C 809.75 662.56 809.96 670.27 809.70 678.00 C 809.54 682.54 808.36 687.13 806.18 691.13 C 804.62 693.82 802.60 696.25 800.83 698.81 C 799.84 700.09 798.86 701.63 797.00 701.45 C 795.04 701.71 793.43 699.61 792.97 697.89 C 791.42 692.63 791.25 687.29 788.77 682.26 C 783.92 688.82 780.76 695.96 774.81 701.95 C 771.88 704.57 768.88 706.54 764.76 705.44 C 764.11 703.58 763.26 702.02 763.71 699.97 C 764.75 695.37 766.45 690.91 767.88 686.41 C 765.06 686.40 762.40 687.24 760.46 684.62 C 758.63 682.18 760.52 678.87 761.19 676.26 C 757.60 681.78 754.55 687.12 749.23 691.24 C 745.06 694.79 740.16 696.69 735.02 698.36 C 734.15 697.99 733.27 697.63 732.40 697.27 C 731.99 692.80 734.87 690.39 736.76 686.64 C 734.14 687.41 730.46 689.29 727.78 688.31 C 724.76 687.30 725.31 683.51 724.54 680.99 C 724.06 677.53 721.87 675.42 719.47 673.14 C 717.10 676.46 714.75 679.02 710.79 680.42 C 712.48 683.91 714.19 687.03 714.52 691.00 C 714.84 695.36 713.45 700.21 710.40 703.43 C 706.24 707.68 699.90 708.78 694.42 706.61 C 690.99 705.46 688.57 703.12 686.19 700.52 C 684.84 703.90 682.56 705.98 679.67 708.06 C 681.63 710.38 683.55 712.48 684.53 715.44 C 686.77 721.64 684.95 729.50 679.31 733.29 C 673.48 737.54 665.36 736.73 660.18 731.84 C 656.85 729.06 655.71 725.37 654.50 721.37 C 648.28 726.31 639.51 725.61 633.95 720.04 C 627.09 713.24 627.40 701.39 635.46 695.63 C 629.28 692.72 624.86 687.54 624.84 680.45 C 624.38 678.84 622.56 678.43 624.93 678.45 L 625.45 676.02 C 621.97 675.58 621.73 675.29 620.10 672.27 C 618.74 672.21 616.66 671.25 615.84 672.75 C 613.21 676.90 611.67 681.01 607.11 683.52 C 605.98 682.88 604.34 682.48 603.72 681.25 C 602.10 678.10 603.35 674.88 603.70 671.53 C 601.40 670.64 599.86 670.91 597.55 671.49 C 593.54 684.89 585.76 696.27 576.98 706.97 C 570.83 714.45 564.35 721.65 557.58 728.57 C 549.32 737.61 540.72 746.40 532.11 755.10 C 526.70 760.88 521.33 766.74 517.78 773.84 C 515.98 777.06 514.87 780.65 513.01 783.82 C 490.21 782.75 467.50 784.68 445.01 788.49 C 426.00 791.79 405.57 791.58 387.83 783.20 C 376.66 777.92 366.61 769.71 359.11 759.90 C 349.31 747.86 342.55 733.39 336.97 719.02 C 329.13 699.86 321.01 679.58 309.69 662.20 C 299.84 646.76 285.94 633.93 270.74 623.87 C 270.56 625.67 270.38 627.48 270.19 629.28 C 265.53 627.99 263.46 624.44 260.55 620.96 C 259.46 626.63 259.87 632.40 258.72 638.07 C 256.63 636.88 254.60 635.58 252.61 634.23 C 252.46 639.90 252.89 645.76 252.06 651.38 C 251.07 655.06 249.70 656.40 246.02 657.41 C 243.94 656.71 242.07 655.90 240.30 654.59 C 239.87 654.55 239.44 654.51 239.01 654.47 C 234.09 664.06 232.11 674.32 229.83 684.75 C 226.50 680.58 224.34 675.92 222.43 670.98 C 217.58 674.43 217.22 680.32 212.09 683.33 C 211.01 682.96 209.92 682.60 208.84 682.25 C 206.57 678.44 206.33 674.37 206.01 670.07 C 204.79 671.83 203.71 675.26 201.01 674.76 C 198.69 674.74 197.35 672.13 196.71 670.23 C 193.61 659.83 189.31 650.97 189.37 639.83 C 184.31 644.26 179.86 649.36 174.90 653.90 C 173.05 655.39 171.37 656.83 168.83 656.20 C 166.54 654.93 166.68 652.25 166.78 649.98 C 167.23 644.65 167.56 639.33 167.48 633.99 C 163.41 638.62 162.29 644.03 161.51 649.96 C 159.12 648.01 156.90 646.09 155.57 643.22 C 152.89 638.09 153.36 632.99 153.75 627.44 C 151.91 629.03 149.51 631.40 147.00 631.63 C 145.01 631.94 143.55 629.81 143.74 628.02 C 144.77 618.31 150.21 608.99 157.59 602.69 C 160.47 600.12 166.21 598.20 167.47 594.41 C 167.95 589.52 167.40 585.03 169.37 580.33 C 166.51 582.79 163.81 585.49 160.77 587.73 C 159.21 588.88 156.95 589.10 155.68 587.42 C 154.59 580.70 156.63 574.57 158.86 568.36 C 156.49 569.27 154.13 570.19 151.72 570.97 C 151.51 567.27 151.26 563.80 152.13 560.15 C 153.45 554.42 156.11 549.41 159.01 544.36 C 155.62 544.21 152.43 544.11 149.44 542.32 C 149.58 540.96 149.02 539.24 150.32 538.35 C 156.02 533.37 162.74 531.30 169.83 529.19 C 168.69 527.22 166.15 524.46 168.31 522.32 C 170.78 520.61 174.16 519.85 177.01 518.90 C 180.32 518.44 183.60 518.44 186.93 518.34 C 185.69 516.83 184.33 515.43 182.96 514.04 C 181.68 511.78 182.65 509.15 184.70 507.67 C 188.26 504.53 192.78 506.16 197.01 506.56 C 203.30 507.75 210.00 507.78 215.57 510.52 C 218.84 512.04 221.89 514.25 224.97 516.14 C 224.01 510.52 222.60 504.71 222.68 499.00 C 224.01 484.47 228.08 470.19 235.74 457.70 C 237.55 454.77 237.87 451.59 238.42 448.23 C 239.45 437.17 239.18 426.55 233.08 416.88 C 228.53 409.96 224.75 401.95 219.16 395.85 C 214.99 391.19 209.09 389.34 202.99 389.19 C 197.18 389.01 190.96 389.32 186.41 393.40 C 181.25 397.79 180.27 405.89 183.24 411.77 C 184.24 413.55 185.81 415.60 188.00 415.79 C 191.96 415.92 195.75 412.74 197.29 409.26 C 198.13 403.98 191.79 403.81 188.35 402.33 C 188.64 400.58 188.20 399.40 190.14 398.60 C 194.30 398.74 200.15 401.12 201.52 405.43 C 203.24 411.82 198.18 417.37 192.63 419.58 C 188.54 421.21 183.98 420.42 181.13 416.95 C 174.37 408.39 176.14 393.53 186.00 388.01 C 192.46 384.01 200.35 384.48 207.63 384.76 C 201.90 377.37 197.44 369.92 189.17 364.79 C 182.93 360.85 174.74 360.46 167.95 363.13 C 171.65 366.69 176.68 366.76 181.48 367.73 C 181.46 368.98 181.44 370.23 181.42 371.48 C 178.87 371.78 176.47 371.78 173.99 371.07 C 170.73 370.22 166.77 369.13 164.70 366.28 C 163.82 364.56 162.96 362.00 164.60 360.48 C 167.48 356.97 173.87 357.11 178.00 356.85 C 188.44 357.06 195.44 362.94 202.32 370.02 C 201.91 361.23 203.02 352.82 208.84 345.87 C 212.06 342.14 216.88 339.42 221.87 341.29 C 227.47 343.27 230.76 349.63 232.43 354.96 C 233.99 359.46 233.94 364.86 230.46 368.45 C 227.00 371.46 221.89 372.54 217.49 371.41 C 212.63 368.64 210.20 361.28 213.67 356.58 C 215.45 354.73 218.52 352.85 221.16 353.68 C 221.89 354.88 221.72 356.06 221.82 357.41 C 220.47 357.87 219.12 358.34 217.76 358.79 C 215.01 361.69 217.56 368.63 222.05 367.24 C 225.03 366.99 226.90 365.48 228.76 363.29 C 229.11 357.32 226.94 351.43 222.88 347.07 C 220.02 344.70 216.95 344.84 214.09 347.11 C 208.35 352.09 206.41 360.71 206.82 368.01 C 207.22 372.24 207.77 377.18 210.20 380.76 C 212.05 383.51 213.06 386.31 216.23 387.81 C 222.03 390.83 225.45 395.79 228.82 401.17 C 232.51 407.35 236.55 413.37 239.97 419.70 C 240.74 414.34 241.76 409.29 244.55 404.56 C 246.67 401.10 249.16 397.86 251.73 394.73 C 253.83 392.17 256.67 390.07 260.01 389.59 C 263.61 389.20 266.86 391.24 269.22 393.79 C 272.61 397.28 274.66 402.12 273.82 407.02 C 273.00 413.49 267.45 419.62 260.85 420.36 C 257.42 420.82 253.97 418.38 253.30 415.02 C 252.39 411.27 253.38 407.84 254.66 404.33 C 255.90 404.48 257.87 403.97 258.40 405.46 C 258.72 408.59 256.05 413.07 258.78 415.60 C 266.72 416.76 272.41 405.53 267.75 399.30 C 265.92 396.67 262.77 392.96 259.16 394.53 C 255.38 396.39 252.71 400.97 250.24 404.26 C 245.99 409.66 244.80 417.23 243.82 423.86 C 242.58 431.62 244.19 439.26 243.19 447.05 C 251.91 436.86 262.47 428.97 273.60 421.63 C 284.38 414.85 293.61 405.56 302.65 396.66 C 309.21 390.19 315.48 383.43 321.92 376.83 C 317.12 373.00 312.70 368.98 308.47 364.52 C 294.23 350.29 284.86 331.93 279.41 312.69 C 270.30 315.42 260.58 313.68 253.08 307.83 C 247.08 303.08 241.56 296.38 239.66 288.84 C 236.98 279.54 239.29 268.74 242.99 260.01 C 250.91 242.02 265.49 226.59 281.42 215.34 C 282.60 214.53 282.94 213.08 283.54 211.82 C 287.73 201.28 293.41 191.39 300.59 182.60 C 301.63 181.37 302.78 180.03 304.15 179.16 C 305.51 178.21 307.05 179.20 308.41 179.62 C 309.83 184.40 309.27 189.66 309.86 194.62 C 310.43 194.58 311.00 194.53 311.57 194.46 C 313.66 192.65 315.44 190.43 317.34 188.42 C 322.46 182.52 327.92 176.98 333.36 171.38 C 340.39 164.36 346.87 157.52 355.92 153.04 C 370.76 144.98 387.51 143.67 403.97 146.35 C 405.67 146.54 407.81 147.20 409.46 146.59 C 412.95 145.26 416.36 143.85 420.00 143.02 C 431.93 140.06 443.87 138.69 455.49 143.70 Z" fill="#1e191d" />
<path d="M 443.00 144.97 C 448.13 145.21 452.96 147.35 457.60 149.44 C 462.55 151.72 465.98 155.34 469.97 158.96 C 473.38 162.12 475.80 165.71 478.63 169.39 C 481.04 172.57 483.31 175.78 484.87 179.47 C 474.21 181.17 463.78 180.36 453.00 181.14 C 433.93 181.48 415.02 181.79 396.00 179.96 C 382.84 179.45 370.26 177.94 357.00 178.98 C 349.74 179.61 343.40 182.30 336.54 184.44 C 331.84 185.89 328.42 188.91 323.28 188.95 C 325.04 185.81 327.48 183.52 330.15 181.17 C 337.20 173.86 344.46 165.68 352.77 159.78 C 360.37 154.92 369.16 151.79 378.00 150.15 C 385.77 149.00 394.02 149.62 401.77 150.48 C 398.68 152.82 395.49 155.00 392.46 157.43 C 392.43 158.23 392.39 159.03 392.36 159.82 C 394.02 159.73 395.53 159.86 396.97 158.88 C 401.10 156.43 405.15 153.77 409.44 151.62 C 419.77 146.75 431.58 144.07 443.00 144.97 Z" fill="#0e5b38" />
<path d="M 851.98 173.18 C 861.77 174.78 869.95 181.51 873.37 190.82 C 878.42 205.20 878.23 221.12 875.84 236.01 C 874.14 246.00 871.92 256.01 868.57 265.59 C 862.15 284.57 854.58 303.19 847.20 321.82 C 856.57 321.97 865.95 321.87 875.32 321.88 C 875.30 331.70 875.33 341.52 875.31 351.34 C 856.44 351.29 837.58 351.27 818.71 351.34 C 818.65 343.90 818.72 336.45 818.66 329.00 C 818.57 326.29 819.60 324.04 820.44 321.53 C 827.54 302.09 834.40 282.55 841.36 263.06 C 846.61 247.56 851.68 231.30 853.51 215.00 C 853.65 210.85 854.89 204.63 851.58 201.42 C 849.41 198.95 845.60 198.67 843.57 201.47 C 841.62 204.83 841.39 209.21 841.38 213.00 C 841.42 220.44 841.42 227.87 841.41 235.31 C 833.84 235.15 826.25 235.16 818.69 235.31 C 818.95 221.77 817.53 209.67 821.48 196.45 C 823.76 189.13 827.36 180.47 833.58 175.64 C 838.72 172.32 846.13 172.25 851.98 173.18 Z" fill="#1e191d" />
<path d="M 359.00 183.10 C 365.37 182.54 371.63 183.29 378.00 183.25 C 383.36 183.24 388.65 183.86 394.00 184.07 C 401.03 184.20 407.93 185.51 414.98 185.50 C 430.31 185.74 445.68 185.79 461.00 185.20 C 468.02 185.16 474.98 184.31 482.01 184.28 C 489.90 184.33 497.11 182.21 505.02 183.31 C 515.00 184.24 525.53 189.36 531.20 197.85 C 535.34 203.96 536.74 211.26 536.39 218.55 C 535.70 223.48 533.09 228.26 530.32 232.33 C 524.80 239.36 518.27 245.41 509.97 248.97 C 507.94 249.71 504.95 251.85 503.08 249.86 C 498.41 246.11 494.35 241.87 489.03 238.94 C 472.72 227.59 453.41 222.88 434.01 220.16 C 413.22 218.20 392.22 218.99 371.65 222.52 C 366.08 223.75 360.42 224.25 354.89 225.64 C 343.82 228.15 332.88 231.13 322.05 234.53 C 319.24 228.55 317.02 222.24 315.17 215.90 C 313.21 210.53 311.45 205.22 311.26 199.44 C 319.79 195.84 328.29 192.13 336.91 188.77 C 344.07 186.27 351.37 183.39 359.00 183.10 Z" fill="#0e5b38" />
<path d="M 304.52 185.08 C 305.21 198.20 308.83 211.60 313.04 224.00 C 319.04 241.10 327.71 257.67 339.75 271.31 C 341.38 273.76 344.63 272.81 347.03 272.38 C 360.62 268.83 373.34 261.09 387.01 256.94 C 396.84 253.84 407.17 252.28 417.14 255.76 C 425.03 258.57 430.69 264.10 435.62 270.67 C 439.34 269.93 443.00 269.21 446.57 267.91 C 450.88 266.42 454.52 264.39 458.99 263.42 C 469.35 261.32 479.76 260.98 489.97 264.06 C 494.51 265.55 499.18 268.01 502.44 271.56 C 503.93 274.92 503.36 279.38 503.82 283.01 C 504.62 290.19 504.11 297.26 503.68 304.43 C 491.52 308.87 478.94 313.58 467.38 319.44 C 465.56 320.14 466.51 322.28 466.47 323.73 C 469.73 323.87 472.06 322.23 474.88 320.93 C 484.14 316.56 493.67 312.97 503.29 309.51 C 502.91 311.77 502.58 314.04 502.27 316.32 C 492.38 318.40 482.55 320.79 472.81 323.46 C 471.17 323.81 470.30 324.87 469.16 325.99 C 469.77 326.70 470.41 327.40 471.07 328.07 C 472.23 328.71 473.91 327.82 475.16 327.61 C 483.82 325.30 492.52 322.87 501.35 321.31 C 500.77 323.47 500.21 325.64 499.62 327.80 C 489.20 329.34 478.63 330.32 468.31 332.44 C 468.42 333.91 467.53 336.71 469.97 336.45 C 479.28 335.38 488.54 333.68 497.89 332.65 C 493.38 347.56 483.61 360.91 471.08 370.12 C 463.74 375.31 455.10 379.19 446.90 382.87 C 435.36 387.67 423.32 391.70 410.98 393.85 C 391.44 397.52 371.16 396.45 352.54 389.22 C 333.60 381.93 317.57 368.84 304.66 353.38 C 291.74 337.13 284.35 317.35 280.45 297.14 C 277.53 280.58 276.86 263.70 279.16 247.02 C 282.16 224.41 289.90 202.82 304.52 185.08 Z" fill="#ffffff" />
<path d="M 758.99 219.30 C 764.98 217.91 771.30 218.94 776.10 222.89 C 779.70 226.16 782.89 229.54 784.65 234.16 C 787.87 242.30 789.43 251.28 790.47 259.93 C 782.00 262.36 773.64 265.20 765.22 267.78 C 764.20 260.92 764.61 254.25 761.27 247.94 C 760.14 247.49 759.00 247.03 757.87 246.57 C 754.20 247.89 752.75 251.35 752.80 255.02 C 754.15 268.36 755.27 281.65 756.57 295.00 C 758.50 288.00 761.30 281.19 768.82 278.79 C 776.96 275.50 785.81 279.79 789.91 287.10 C 791.65 290.88 792.61 295.08 793.48 299.14 C 796.51 314.22 798.11 329.68 799.47 345.00 C 800.36 358.50 800.05 372.23 793.38 384.39 C 788.87 392.85 780.56 398.84 771.14 400.57 C 765.78 401.89 760.17 401.45 755.37 398.63 C 750.85 395.88 747.45 391.60 745.06 386.93 C 740.12 377.54 738.16 366.28 736.74 355.86 C 733.55 325.57 730.50 295.25 727.85 264.92 C 727.70 253.56 730.29 240.59 737.46 231.47 C 742.86 224.53 750.65 221.23 758.99 219.30 Z" fill="#1e191d" />
<path d="M 279.70 222.25 C 278.46 229.15 275.92 235.56 275.37 242.60 C 272.28 261.29 272.95 280.19 276.33 298.78 C 277.03 302.03 278.63 304.52 278.27 307.87 C 275.09 309.75 270.53 309.60 266.98 309.12 C 261.64 308.47 256.75 305.86 253.05 301.98 C 250.00 298.75 246.41 295.23 244.97 290.97 C 242.84 285.17 242.70 278.51 243.59 272.44 C 245.19 263.05 250.48 254.50 255.63 246.65 C 262.17 237.37 270.52 228.91 279.70 222.25 Z" fill="#0e5b38" />
<path d="M 405.03 260.25 C 407.72 259.76 407.30 262.31 407.31 264.12 C 395.40 267.33 385.08 274.80 379.09 285.67 C 377.97 285.57 376.68 285.67 375.66 285.18 C 374.86 282.43 376.98 280.38 378.34 278.21 C 384.80 269.57 394.48 262.73 405.03 260.25 Z" fill="#1e191d" />
<path d="M 483.50 266.62 C 487.36 268.47 491.23 271.07 490.81 275.90 C 489.78 276.07 488.69 276.37 487.64 276.30 C 486.02 274.59 484.93 272.27 482.74 271.29 C 476.49 268.33 470.38 269.57 463.88 270.28 C 461.78 270.63 462.36 267.52 462.16 266.27 C 469.04 264.53 476.77 263.97 483.50 266.62 Z" fill="#1e191d" />
<path d="M 408.46 268.51 C 411.93 267.74 416.04 267.94 419.16 269.81 C 423.44 272.12 426.32 276.41 427.92 280.90 C 431.09 289.96 429.61 300.49 424.30 308.45 C 421.55 312.36 417.78 315.80 412.99 316.85 C 406.77 318.49 400.37 315.35 396.89 310.17 C 390.76 301.50 391.17 288.87 395.75 279.62 C 398.58 274.62 402.72 270.03 408.46 268.51 Z" fill="#1e191d" />
<path d="M 411.98 271.80 C 415.46 271.86 418.42 273.42 420.74 275.95 C 417.55 279.03 414.37 282.05 411.76 285.67 C 406.73 292.70 403.42 300.83 401.21 309.15 C 397.50 305.24 396.11 299.25 396.25 294.00 C 396.24 288.64 397.87 283.32 400.85 278.88 C 403.46 275.11 407.30 272.18 411.98 271.80 Z" fill="#ffffff" />
<path d="M 468.11 274.06 C 472.81 272.71 477.75 274.58 480.73 278.36 C 485.24 283.95 486.15 292.25 484.19 299.03 C 482.74 304.70 478.61 310.59 472.86 312.47 C 469.20 314.00 464.61 312.70 461.56 310.39 C 455.95 305.50 454.62 298.09 455.47 290.98 C 456.29 283.97 460.97 276.08 468.11 274.06 Z" fill="#1e191d" />
<path d="M 474.75 278.25 C 476.22 279.10 478.15 280.49 478.71 282.15 C 475.80 283.76 472.92 285.16 470.51 287.51 C 465.59 292.10 463.18 297.83 461.11 304.08 C 457.14 296.49 458.47 286.59 464.44 280.43 C 467.10 277.79 471.25 276.30 474.75 278.25 Z" fill="#ffffff" />
<path d="M 425.67 288.84 C 425.93 296.65 423.72 304.47 417.91 309.93 C 414.75 312.65 411.61 313.64 407.42 313.38 C 408.78 309.27 410.34 305.28 412.52 301.53 C 415.46 296.49 419.84 290.60 425.67 288.84 Z" fill="#ffffff" />
<path d="M 469.50 294.56 C 471.20 294.53 472.76 295.12 474.39 295.57 C 474.82 298.88 475.95 301.98 476.72 305.20 C 473.52 309.47 468.98 310.49 464.21 307.90 C 465.29 303.40 466.61 298.26 469.50 294.56 Z" fill="#ffffff" />
<path d="M 768.54 309.75 C 769.59 312.14 769.88 314.91 770.22 317.48 C 771.08 326.67 772.23 335.81 773.13 344.99 C 773.84 352.63 775.14 360.33 774.67 367.96 C 774.55 370.00 773.62 371.79 772.07 373.12 C 770.39 374.20 767.85 374.18 766.53 372.52 C 763.40 368.87 764.01 362.56 763.32 358.01 C 761.94 345.36 760.49 332.70 759.58 320.00 C 759.45 316.43 759.06 312.20 761.13 309.08 C 762.64 306.54 767.50 306.89 768.54 309.75 Z" fill="#ffffff" />
<path d="M 441.98 313.80 C 444.56 315.48 446.29 318.35 448.61 320.39 C 450.93 322.69 453.21 324.91 452.18 328.48 C 450.65 332.65 448.09 336.45 446.22 340.48 C 455.36 344.17 466.66 343.62 476.28 342.52 C 476.68 343.39 477.08 344.26 477.49 345.14 C 475.77 349.61 470.52 351.02 466.46 352.57 C 452.69 356.99 438.74 362.52 424.00 361.43 C 415.04 361.16 407.62 357.28 399.05 355.92 C 391.68 355.64 384.59 355.32 377.43 353.34 C 377.47 352.06 377.52 350.77 377.57 349.49 C 379.44 349.50 381.30 349.57 383.14 349.89 C 391.78 351.37 400.68 351.84 409.42 350.97 C 417.32 350.04 424.79 347.89 430.67 342.27 C 430.27 339.94 430.00 337.27 428.99 335.11 C 427.93 333.03 425.62 331.61 424.41 329.64 C 423.70 327.50 424.17 325.26 425.68 323.58 C 427.91 320.97 430.45 318.32 433.03 316.05 C 435.56 313.97 438.71 312.29 441.98 313.80 Z" fill="#1e191d" />
<path d="M 357.01 317.06 C 371.03 319.24 384.87 322.67 398.42 326.84 C 398.51 328.09 398.58 329.35 398.65 330.60 C 397.00 330.72 395.42 330.79 393.82 330.27 C 385.00 327.63 376.05 325.25 367.01 323.51 C 352.61 320.68 338.39 318.72 323.73 320.42 C 323.34 319.60 322.96 318.77 322.59 317.94 C 323.00 317.25 323.43 316.56 323.87 315.89 C 335.02 314.59 345.96 315.45 357.01 317.06 Z" fill="#1e191d" />
<path d="M 439.59 317.44 C 442.03 319.97 444.57 322.44 446.90 325.08 C 447.90 326.18 447.59 327.90 446.96 329.11 C 445.29 332.56 443.23 335.73 442.04 339.42 C 439.96 339.66 437.10 341.07 435.35 339.56 C 433.80 337.03 434.05 333.18 431.87 331.16 C 430.81 329.76 428.51 328.48 429.51 326.44 C 432.16 322.59 435.07 319.13 439.59 317.44 Z" fill="#db232b" />
<path d="M 603.00 319.42 C 617.73 318.49 632.55 319.76 646.85 323.40 C 653.21 325.28 662.40 327.57 666.15 333.52 C 654.22 339.31 641.33 342.83 628.00 342.70 C 611.03 342.67 594.94 336.97 580.86 327.70 C 581.48 326.25 582.09 325.33 583.48 324.50 C 589.07 321.01 596.55 320.00 603.00 319.42 Z" fill="#ffffff" />
<path d="M 391.93 332.21 C 394.06 333.59 393.74 335.35 391.62 336.49 C 371.20 337.01 350.26 337.84 330.16 341.71 C 327.46 342.22 324.74 343.21 322.00 343.36 C 320.78 342.76 320.30 341.62 320.55 339.94 C 322.17 338.61 324.02 338.43 326.00 337.91 C 337.49 335.41 349.27 334.10 360.99 333.30 C 371.26 332.41 381.62 332.00 391.93 332.21 Z" fill="#1e191d" />
<path d="M 579.70 332.33 C 590.24 339.29 602.47 344.38 615.02 346.08 C 632.41 349.62 651.54 345.58 667.44 338.13 C 667.90 344.03 667.81 349.91 666.38 355.69 C 655.14 352.67 643.52 350.01 631.98 348.42 C 627.30 348.00 622.67 347.38 618.01 346.74 C 604.69 345.98 591.42 346.38 578.50 350.01 C 578.30 344.00 578.73 338.26 579.70 332.33 Z" fill="#ffffff" />
<path d="M 386.08 338.83 C 388.59 339.11 389.34 341.87 386.93 343.04 C 382.03 344.52 376.91 345.27 371.98 346.66 C 360.51 349.79 347.53 353.21 337.91 360.43 C 335.99 359.22 335.81 358.84 335.50 356.66 C 344.20 349.95 354.47 346.95 364.85 343.80 C 371.86 341.98 378.92 339.96 386.08 338.83 Z" fill="#1e191d" />
<path d="M 435.44 344.62 C 439.50 343.94 443.64 344.24 447.52 345.61 C 453.50 347.53 459.51 347.46 465.67 348.03 C 455.91 350.99 445.28 355.14 435.01 356.65 C 428.24 356.64 420.60 357.47 414.29 355.02 C 419.36 353.89 424.18 352.44 428.52 349.49 C 430.89 347.98 432.95 345.88 435.44 344.62 Z" fill="#db232b" />
<path d="M 606.00 351.38 C 612.76 351.29 619.29 351.13 626.01 352.03 C 639.12 353.75 652.02 356.42 664.77 359.97 C 658.35 364.44 650.12 366.67 642.55 368.33 C 626.27 371.32 608.47 368.26 592.97 362.87 C 588.17 361.72 583.86 359.57 579.43 357.48 C 579.43 356.53 579.44 355.59 579.44 354.65 C 587.68 351.54 597.29 351.29 606.00 351.38 Z" fill="#db232b" />
<path d="M 605.17 352.75 C 607.47 353.70 609.12 356.25 610.61 358.17 C 613.45 358.93 616.02 359.81 619.00 359.23 C 624.12 358.60 628.95 356.11 634.04 355.81 C 637.28 356.60 640.72 357.80 643.63 359.41 C 644.65 359.86 644.45 361.71 644.78 362.65 C 642.56 362.69 640.53 362.76 638.48 361.73 C 635.01 359.99 631.03 359.98 627.46 361.44 C 622.64 363.49 617.13 364.05 611.99 363.14 C 606.86 362.39 605.70 355.91 600.13 356.51 C 597.72 356.42 594.18 358.42 592.38 356.51 C 592.31 355.06 591.86 354.11 593.41 353.32 C 596.94 351.43 601.46 351.27 605.17 352.75 Z" fill="#1e191d" />
<path d="M 142.64 363.35 C 150.01 367.40 155.01 373.95 158.60 381.42 C 163.32 391.66 164.57 403.00 163.10 414.13 C 158.53 446.85 153.71 479.55 148.07 512.10 C 146.58 521.33 143.14 530.02 137.08 537.21 C 134.64 540.17 131.54 542.58 127.89 543.87 C 123.32 545.43 118.38 544.86 113.99 542.99 C 102.99 538.29 94.17 528.86 90.33 517.52 C 86.02 505.54 86.58 491.49 88.67 479.10 C 96.85 482.48 104.81 486.34 112.97 489.74 C 112.68 496.55 110.71 502.49 111.85 509.46 C 112.18 512.51 116.01 515.89 119.09 515.25 C 121.40 514.03 121.73 511.40 122.16 509.07 C 123.71 496.62 126.12 484.31 127.87 471.90 C 125.79 474.26 124.10 476.72 120.86 477.54 C 117.52 478.26 113.69 478.02 110.67 476.31 C 104.06 472.69 99.43 466.03 97.05 459.00 C 94.58 452.50 95.16 445.75 95.91 438.98 C 98.29 419.87 100.93 400.73 104.87 381.87 C 106.43 373.39 112.02 364.65 120.11 361.11 C 127.54 357.85 135.82 359.41 142.64 363.35 Z" fill="#1e191d" />
<path d="M 581.10 363.34 C 592.13 367.46 603.12 371.19 614.86 372.71 C 621.24 373.97 627.55 373.55 634.00 373.58 C 641.60 373.58 648.67 371.72 655.80 369.29 C 658.10 368.39 660.34 367.46 662.80 367.06 C 660.56 373.60 655.46 378.83 650.50 383.46 C 644.22 388.20 636.99 391.47 629.01 391.68 C 622.35 391.76 616.16 392.09 609.66 390.45 C 600.65 387.79 592.49 384.01 586.78 376.23 C 584.28 372.45 581.34 367.97 581.10 363.34 Z" fill="#db232b" />
<path d="M 483.40 367.49 C 484.89 367.20 486.48 367.25 488.00 367.26 C 500.98 367.53 513.97 368.60 526.82 370.50 C 521.03 373.43 514.71 374.89 508.92 377.84 C 490.32 385.95 473.43 396.19 456.78 407.71 C 454.44 409.37 451.95 410.73 449.35 411.93 C 458.74 398.82 469.24 386.70 478.59 373.56 C 480.12 371.51 481.55 369.26 483.40 367.49 Z" fill="#0e5b38" />
<path d="M 418.80 367.49 C 420.97 367.01 423.41 368.58 425.55 369.08 C 429.89 370.13 434.61 369.97 439.02 369.46 C 443.29 368.98 447.10 367.34 451.45 367.38 C 451.46 368.70 451.47 370.03 451.46 371.36 C 443.32 373.67 434.59 375.40 426.14 373.89 C 422.87 373.24 419.83 372.61 417.57 369.94 C 417.94 369.12 418.35 368.30 418.80 367.49 Z" fill="#1e191d" />
<path d="M 547.51 373.22 C 554.69 374.34 561.81 375.84 568.88 377.54 C 557.68 384.25 551.11 395.65 547.78 407.97 C 545.77 415.76 546.12 423.64 548.64 431.26 C 536.18 434.74 522.91 436.89 510.02 434.79 C 507.28 434.48 505.35 432.33 503.08 430.87 C 493.49 424.30 481.41 421.82 470.01 420.82 C 461.97 420.25 454.00 420.21 446.02 421.44 C 448.78 418.38 452.59 416.28 455.80 413.71 C 479.73 396.56 506.70 381.37 534.99 372.87 C 539.29 371.32 543.14 372.61 547.51 373.22 Z" fill="#ffffff" />
<path d="M 854.55 373.94 C 856.89 373.65 859.22 373.81 861.52 374.27 C 857.99 384.71 855.72 395.58 852.25 406.04 C 850.04 405.52 847.85 405.59 845.60 405.64 C 842.74 395.06 839.51 384.53 836.99 373.86 C 839.16 373.88 841.32 373.89 843.49 373.92 C 845.39 381.52 847.46 389.09 849.14 396.74 C 851.18 389.28 852.27 381.27 854.55 373.94 Z" fill="#1e191d" />
<path d="M 805.12 373.94 C 811.36 373.85 817.60 373.85 823.85 373.91 C 823.86 376.24 823.88 378.57 823.91 380.90 C 820.01 381.12 816.11 381.12 812.21 381.17 C 812.26 382.91 812.30 384.65 812.35 386.40 C 815.99 386.37 819.63 386.35 823.28 386.39 C 823.26 388.30 823.25 390.22 823.25 392.14 C 819.63 392.15 816.01 392.15 812.39 392.10 C 812.34 394.33 812.32 396.57 812.29 398.81 C 816.12 398.86 819.94 398.88 823.77 398.81 C 824.29 401.12 824.16 403.32 823.87 405.66 C 817.67 405.60 811.47 405.61 805.27 405.68 C 804.59 400.09 804.92 394.61 804.85 389.00 C 804.90 383.95 804.68 378.98 805.12 373.94 Z" fill="#1e191d" />
<path d="M 663.18 376.36 L 663.36 376.67 C 669.15 385.76 672.82 397.19 671.01 408.01 C 669.93 418.75 663.00 428.58 654.28 434.65 C 657.98 424.42 656.13 412.08 651.62 402.37 C 649.88 398.33 646.83 395.97 643.80 392.96 C 649.11 389.36 654.41 386.85 658.48 381.60 C 659.88 379.66 661.35 377.91 663.18 376.36 Z" fill="#0e5b38" />
<path d="M 469.16 378.01 C 466.99 383.25 462.33 387.45 459.08 392.08 C 454.82 398.46 449.58 404.02 445.12 410.24 C 441.05 415.09 437.13 420.16 432.58 424.57 C 431.27 425.98 429.68 426.43 427.87 426.87 C 426.22 421.39 422.48 416.49 419.11 411.94 C 415.35 406.81 410.35 403.59 405.56 399.56 C 411.96 397.76 418.52 397.40 424.77 395.06 C 433.27 393.21 441.14 389.87 449.21 386.72 C 455.98 384.14 462.24 379.50 469.16 378.01 Z" fill="#db232b" />
<path d="M 325.73 379.61 C 328.33 381.43 330.90 383.30 333.68 384.86 C 333.40 389.98 331.67 395.09 329.80 399.83 C 327.27 406.23 321.78 412.19 320.16 418.89 C 322.65 421.08 326.93 420.42 330.01 420.29 C 337.25 419.48 344.67 419.73 352.00 419.82 C 365.18 420.77 378.79 421.16 391.07 426.59 C 367.99 429.40 347.02 439.74 327.20 451.36 C 308.22 462.67 290.69 475.62 273.42 489.36 C 272.50 490.22 271.35 490.72 271.31 492.11 C 271.10 493.75 272.50 494.85 274.06 494.55 C 276.97 492.82 279.44 490.31 282.16 488.30 C 306.90 469.08 334.24 449.96 363.50 438.42 C 374.33 434.34 386.12 430.73 397.81 431.34 C 393.86 439.24 390.87 447.54 388.45 456.03 C 383.60 473.87 381.81 492.15 385.49 510.40 C 369.91 517.72 354.42 524.82 338.19 530.60 C 327.00 534.88 315.84 540.42 304.00 543.32 C 294.54 545.77 284.77 546.88 275.00 546.77 C 267.34 546.70 259.37 546.80 252.18 543.75 C 242.90 540.12 236.03 531.89 232.31 522.83 C 229.33 515.34 227.36 507.08 227.32 499.00 C 228.87 481.55 234.86 464.64 246.05 451.01 C 254.09 441.01 263.92 433.60 274.54 426.58 C 289.46 417.18 302.52 403.40 314.92 390.92 C 318.63 387.26 321.82 383.04 325.73 379.61 Z" fill="#ffffff" />
<path d="M 582.96 378.56 C 587.00 383.86 591.99 388.22 598.07 391.02 C 609.68 396.43 623.34 397.65 635.85 395.27 C 639.18 394.43 641.67 397.03 643.88 399.11 C 650.31 405.93 651.97 415.95 651.74 425.00 C 651.88 429.78 649.51 434.09 647.12 438.06 C 643.49 443.90 637.84 447.87 631.58 450.50 C 621.89 454.36 611.23 456.68 601.00 458.69 C 583.02 461.85 564.39 452.13 555.84 436.18 C 559.11 438.39 562.14 440.60 566.02 441.65 C 574.35 444.25 583.23 441.73 590.51 437.43 C 592.01 436.67 591.50 435.04 591.62 433.66 C 590.77 433.47 589.92 433.28 589.07 433.09 C 582.92 436.35 576.08 439.37 568.98 437.68 C 561.58 436.13 556.24 430.79 552.37 424.59 C 551.25 422.90 551.33 420.95 551.21 418.99 C 550.72 410.21 554.32 401.19 558.84 393.81 C 560.45 405.32 567.79 415.63 577.99 421.12 C 578.85 421.10 579.70 420.96 580.56 420.72 C 580.67 419.79 580.79 418.86 580.91 417.93 C 576.86 414.98 572.87 412.24 569.79 408.20 C 565.03 402.39 562.98 395.20 563.39 387.73 C 568.59 382.21 575.31 378.83 582.96 378.56 Z" fill="#ffffff" />
<path d="M 338.13 388.19 C 340.49 388.53 343.83 388.90 343.64 392.04 C 342.90 399.84 341.41 407.96 338.05 415.09 C 334.55 416.29 330.01 415.76 326.30 415.78 C 328.97 410.44 332.38 405.09 334.62 399.58 C 336.12 395.86 336.36 391.67 338.13 388.19 Z" fill="#0e5b38" />
<path d="M 136.61 389.41 C 139.35 391.64 139.40 395.82 139.12 399.04 C 137.58 412.75 135.47 426.41 133.34 440.03 C 132.72 443.49 132.30 447.10 131.22 450.44 C 130.59 452.03 129.55 454.15 127.87 454.80 C 126.21 455.04 124.55 454.98 123.48 453.52 C 120.82 450.49 121.12 446.76 121.41 442.99 C 122.17 437.25 123.32 431.56 124.21 425.84 C 125.63 416.54 127.35 407.29 128.67 397.97 C 129.10 395.58 129.38 392.88 130.55 390.73 C 131.64 388.63 134.85 387.47 136.61 389.41 Z" fill="#ffffff" />
<path d="M 348.11 392.46 C 350.52 393.07 352.85 394.02 355.20 394.80 C 367.40 398.96 380.15 400.53 393.00 400.21 C 397.27 399.93 400.50 401.91 404.00 404.02 C 411.40 408.95 417.95 415.74 421.82 423.82 C 416.02 424.51 410.69 424.27 405.05 426.12 C 403.08 426.61 400.74 427.72 398.69 427.38 C 396.00 425.57 394.14 423.08 390.96 421.93 C 378.33 416.84 363.48 415.84 349.99 415.70 C 347.70 415.70 345.49 415.29 343.26 414.76 C 344.41 410.10 345.71 405.48 346.83 400.81 C 347.52 398.09 347.18 395.09 348.11 392.46 Z" fill="#0e5b38" />
<path d="M 828.29 396.91 L 829.01 396.90 C 830.83 396.85 832.65 396.93 834.47 397.06 C 834.43 399.91 834.43 402.76 834.47 405.61 C 832.43 405.63 830.39 405.64 828.36 405.66 C 828.35 402.74 828.33 399.83 828.29 396.91 Z" fill="#1e191d" />
<path d="M 859.25 396.89 L 859.89 396.86 C 861.59 396.95 863.87 396.39 865.35 397.35 C 865.46 400.09 865.31 402.83 865.33 405.57 C 863.32 405.61 861.30 405.64 859.28 405.67 C 859.23 402.74 859.21 399.82 859.25 396.89 Z" fill="#1e191d" />
<path d="M 68.30 405.39 C 73.29 404.92 78.37 405.32 83.38 405.19 C 83.36 464.73 83.46 524.31 83.33 583.85 C 74.72 583.72 66.10 583.81 57.49 583.81 C 57.51 545.16 57.67 506.35 57.50 467.68 C 57.29 464.03 56.93 458.57 54.05 455.94 C 49.71 452.79 43.51 454.15 38.48 453.94 C 38.53 447.15 38.51 440.35 38.50 433.56 C 44.87 431.70 50.26 428.66 55.00 423.99 C 60.74 418.64 64.42 412.08 68.30 405.39 Z" fill="#1e191d" />
<path d="M 776.49 405.04 C 777.46 407.97 777.91 411.04 778.90 413.95 C 779.46 415.95 782.28 416.31 783.99 415.96 C 787.56 415.08 790.59 412.86 794.25 412.14 C 795.09 415.24 796.80 417.51 798.60 420.07 C 797.73 424.38 791.16 426.57 791.58 432.02 C 791.37 435.56 795.62 435.09 797.97 435.70 C 797.04 438.26 795.57 440.53 794.48 443.01 C 795.19 445.90 797.23 446.61 799.99 446.21 C 810.43 444.52 822.21 446.01 831.24 451.74 C 835.78 454.08 839.43 458.42 842.61 462.35 C 843.69 463.57 844.16 465.58 842.77 466.74 C 840.12 468.25 836.12 468.10 833.82 469.95 C 831.41 472.34 833.62 474.78 835.13 476.92 C 837.81 480.27 842.88 483.82 842.55 488.60 C 839.64 492.00 833.60 488.82 830.27 490.27 C 827.89 492.03 828.02 495.98 827.50 498.64 C 824.79 496.99 822.16 495.08 819.30 493.68 C 817.68 492.94 815.70 492.73 814.59 494.40 C 814.23 496.51 814.12 499.02 815.06 501.00 C 817.88 506.80 818.72 512.95 820.82 519.10 C 822.34 524.96 824.28 530.92 824.72 536.98 C 821.94 536.00 819.87 534.09 817.38 532.61 C 815.21 531.29 812.46 533.67 811.63 535.59 C 809.23 542.68 812.26 550.94 809.99 557.87 C 804.35 555.13 803.11 550.10 799.38 545.62 C 797.76 543.46 794.92 542.67 792.37 543.38 C 790.47 544.24 789.45 546.67 787.71 547.76 C 786.24 544.33 785.13 540.75 783.62 537.33 C 782.20 537.37 780.77 537.37 779.36 537.53 C 778.10 539.03 777.41 541.07 776.55 542.82 C 775.19 538.53 774.70 534.49 775.25 529.99 C 776.09 520.88 777.31 512.50 773.67 503.74 C 771.47 506.91 771.22 511.50 770.21 515.21 C 768.20 522.85 766.21 531.89 761.06 538.09 C 758.96 539.19 756.42 539.59 754.13 540.14 C 752.02 538.83 750.12 536.70 747.42 537.45 C 745.98 538.64 744.79 540.19 743.59 541.60 C 740.82 541.54 737.94 541.89 735.48 540.40 C 733.35 539.11 731.99 536.48 730.50 534.53 C 729.29 532.82 727.59 531.53 726.37 529.86 C 726.43 523.95 730.16 517.96 729.74 512.08 C 729.55 509.84 724.93 510.06 723.28 509.43 C 724.06 504.62 726.61 501.06 729.13 497.06 C 730.39 495.03 731.30 492.33 729.02 490.63 C 726.84 490.21 725.02 491.10 723.22 492.21 C 715.18 497.67 712.66 506.50 704.28 511.27 C 702.31 511.88 700.04 511.67 697.99 511.87 C 694.30 511.98 691.36 513.46 687.98 514.73 C 686.39 510.40 687.94 506.64 687.56 502.24 C 687.13 499.89 685.05 499.30 683.27 498.17 C 683.74 494.15 685.78 490.66 686.52 486.74 C 686.77 483.85 684.67 482.65 682.95 480.78 C 685.00 476.55 691.82 475.66 691.60 470.77 C 691.71 467.36 689.66 466.10 687.20 464.34 C 688.63 461.24 691.32 459.04 693.98 457.01 C 698.45 454.10 704.95 454.41 709.43 451.45 C 710.87 449.94 709.85 447.99 709.63 446.17 C 714.77 446.75 719.91 447.36 725.02 448.11 C 729.90 448.75 734.27 451.90 737.27 455.70 C 740.54 459.69 744.19 463.21 748.67 465.83 C 743.24 468.24 737.69 468.46 732.01 469.87 C 728.37 470.76 724.69 471.30 721.00 471.89 C 719.12 472.31 717.33 472.31 716.33 474.22 C 716.23 475.62 717.38 476.59 718.74 476.53 C 723.51 476.39 728.28 474.61 733.02 473.90 C 739.66 472.85 746.10 470.94 752.77 470.09 C 752.44 474.70 753.23 479.71 752.21 484.20 C 748.99 491.28 744.49 497.79 741.11 504.80 C 742.09 505.35 743.08 505.90 744.06 506.44 C 747.42 502.21 749.85 497.22 752.58 492.56 C 752.97 499.99 750.84 506.80 749.67 514.01 C 749.35 516.06 750.50 518.72 752.80 516.85 C 754.31 513.38 754.73 509.37 755.47 505.68 C 756.59 497.63 757.99 490.09 757.29 482.00 C 756.97 478.33 757.09 474.74 757.49 471.07 C 760.02 471.58 761.96 472.41 764.01 473.97 C 770.63 478.87 776.47 484.94 781.83 491.17 C 784.87 494.71 788.60 497.76 792.06 500.92 C 793.95 502.45 796.14 504.50 798.79 503.82 C 800.56 500.88 797.67 499.78 795.84 498.12 C 787.44 492.22 782.06 484.20 774.51 477.46 C 772.17 475.09 769.20 473.33 767.82 470.39 C 776.32 469.73 784.49 468.77 793.01 469.99 C 798.09 470.38 801.96 472.53 806.98 471.83 C 806.88 470.74 806.63 469.73 806.23 468.79 C 804.07 467.63 801.39 467.19 798.99 466.76 C 792.95 465.77 787.13 464.91 780.99 465.31 C 776.66 465.62 772.36 465.86 768.02 465.71 C 773.55 463.28 778.52 460.10 784.42 458.51 C 788.14 457.22 792.00 457.60 795.75 456.64 C 797.33 455.02 795.86 453.24 793.98 453.23 C 787.58 452.75 781.29 454.73 775.62 457.54 C 770.64 460.01 765.37 461.68 760.07 463.66 C 760.23 456.03 765.38 448.42 768.60 441.68 C 769.29 440.56 768.22 439.08 767.86 437.97 C 766.90 438.58 765.80 439.12 764.99 439.94 C 759.80 447.52 757.76 455.55 754.49 463.93 C 752.27 463.37 750.73 462.47 749.01 460.98 C 744.40 457.04 739.64 452.88 736.03 447.99 C 734.83 446.58 735.22 444.15 735.56 442.47 C 736.47 438.66 741.05 437.36 742.46 433.49 C 744.62 428.13 746.43 422.57 747.81 416.96 C 748.26 415.41 748.53 413.97 749.80 412.84 C 751.83 410.65 755.34 411.05 758.02 411.39 C 761.46 412.29 763.60 414.46 767.40 413.41 C 771.01 411.12 772.50 407.05 776.49 405.04 Z" fill="#0e5b38" />
<path d="M 470.00 425.45 C 483.65 426.56 496.74 430.13 506.91 439.78 C 505.48 439.69 504.06 439.59 502.63 439.48 C 501.70 440.81 501.54 441.98 501.40 443.56 C 505.55 444.63 510.79 444.36 513.28 448.51 C 519.10 458.11 521.17 469.96 522.22 480.99 C 522.89 487.23 521.43 493.25 518.79 498.88 C 517.79 488.06 515.63 477.98 508.60 469.36 C 507.65 467.87 505.89 468.53 504.39 468.37 C 503.72 471.97 506.20 473.40 507.78 476.23 C 513.20 485.12 514.40 495.03 513.75 505.25 C 507.59 510.86 500.12 513.63 492.11 515.41 C 493.64 512.33 495.74 509.30 496.57 506.00 C 498.61 498.89 497.03 490.83 493.50 484.45 C 491.93 483.31 490.94 484.23 489.31 484.63 C 489.68 488.18 491.72 491.00 492.39 494.48 C 493.41 500.32 492.72 506.22 489.11 511.07 C 487.84 512.61 486.17 515.57 484.01 515.76 C 478.56 515.92 473.00 514.72 468.42 511.68 C 460.80 506.65 455.57 497.76 454.98 488.65 C 458.07 489.28 461.15 489.94 464.24 490.61 C 465.23 488.58 466.50 487.53 463.88 486.07 C 455.90 483.20 446.30 483.49 437.99 484.54 C 431.07 485.52 423.83 486.80 417.32 489.37 C 417.21 485.29 417.46 481.23 417.96 477.18 C 419.22 464.88 421.11 452.59 423.69 440.50 C 424.56 437.16 425.31 433.27 428.80 431.69 C 440.99 425.13 456.45 424.29 470.00 425.45 Z" fill="#ffffff" />
<path d="M 422.88 428.24 C 422.18 432.27 420.24 435.86 419.57 439.90 C 415.38 457.56 413.06 475.78 412.52 493.92 C 412.47 495.49 411.35 496.31 410.32 497.35 C 407.53 499.87 403.61 501.47 400.31 503.28 C 396.55 505.13 393.76 507.60 389.42 507.88 C 388.47 503.52 388.09 499.46 388.24 495.00 C 388.44 488.12 387.67 480.72 388.88 474.01 C 391.61 459.87 394.88 446.53 401.64 433.70 C 403.09 431.06 405.64 430.19 408.42 429.56 C 413.19 428.64 418.01 428.10 422.88 428.24 Z" fill="#0e5b38" />
<path d="M 550.59 436.10 C 557.05 449.40 568.77 458.92 583.09 462.57 C 582.39 468.05 578.93 471.37 576.39 475.98 C 576.05 478.58 578.09 481.55 579.53 483.62 C 573.92 485.51 568.49 487.81 563.00 490.01 C 560.84 490.95 558.83 491.74 557.56 493.86 C 557.72 495.07 558.03 496.25 558.50 497.41 C 560.36 498.14 562.22 498.84 564.11 499.48 C 560.57 504.33 555.75 508.57 553.01 513.90 C 551.74 516.30 552.64 518.15 553.56 520.42 C 557.63 522.16 560.10 521.12 563.82 519.42 C 563.40 524.37 561.10 529.67 561.82 534.49 C 562.21 536.96 564.82 538.11 566.94 536.91 C 569.65 535.09 571.64 532.00 573.68 529.48 C 574.46 534.35 573.89 538.75 578.81 541.48 C 580.39 540.93 582.34 540.75 583.52 539.54 C 587.31 535.93 590.61 529.44 595.86 527.77 C 596.50 529.51 596.89 530.61 596.21 532.43 C 594.75 537.30 594.87 541.02 596.63 545.77 C 591.47 543.24 585.99 542.13 580.46 544.28 C 574.34 546.66 570.48 552.55 569.82 558.99 C 569.22 567.61 574.73 576.24 583.12 578.75 C 588.00 580.43 592.62 579.41 597.20 577.42 C 596.51 584.32 599.11 591.03 605.19 594.65 C 608.86 597.17 612.72 596.98 616.94 596.86 C 610.81 600.47 604.91 604.31 598.45 607.34 C 596.30 608.54 593.67 609.91 594.42 612.86 C 595.00 615.10 598.59 616.15 599.82 618.02 C 597.61 620.78 594.64 622.68 592.75 625.78 C 588.24 615.48 581.94 606.51 575.90 597.11 C 557.13 565.48 547.92 527.47 545.70 491.00 C 544.94 482.90 546.99 476.09 543.18 468.50 C 536.93 467.10 530.64 465.91 524.40 464.49 C 522.16 455.95 518.76 446.15 512.60 439.62 C 523.93 441.12 535.99 439.24 547.00 436.48 C 548.18 436.22 549.38 436.13 550.59 436.10 Z" fill="#ffffff" />
<path d="M 410.05 448.95 C 409.49 453.80 408.43 458.63 407.46 463.41 C 405.87 469.75 405.30 476.44 404.59 482.94 C 404.24 486.43 404.70 490.32 403.63 493.65 C 402.52 494.22 401.52 494.13 400.64 493.37 C 399.54 487.81 400.34 481.59 401.15 476.03 C 402.38 466.98 404.20 458.00 406.05 449.06 C 406.20 446.99 410.10 446.46 410.05 448.95 Z" fill="#1e191d" />
<path d="M 632.99 454.97 C 634.26 462.33 637.90 468.25 641.29 474.74 C 642.33 476.57 642.66 478.27 642.78 480.35 C 637.64 482.79 632.42 484.95 626.82 486.15 C 616.40 488.55 606.18 487.42 595.88 485.04 C 591.86 484.07 587.07 483.91 583.76 481.24 C 582.41 479.85 580.35 477.89 581.92 475.90 C 584.48 471.97 586.87 468.23 587.86 463.54 C 592.94 463.90 597.97 464.01 603.00 462.99 C 613.17 460.92 623.26 458.67 632.99 454.97 Z" fill="#ffffff" />
<path d="M 399.43 460.97 C 399.35 465.67 398.03 470.25 398.19 475.00 C 397.98 478.93 399.28 483.37 397.25 486.78 C 396.36 486.31 395.46 485.85 394.57 485.38 C 393.10 477.60 393.82 469.77 395.49 462.09 C 395.68 460.28 398.87 458.07 399.43 460.97 Z" fill="#1e191d" />
<path d="M 593.91 464.09 C 597.03 464.69 599.90 465.78 603.11 466.05 C 606.40 466.31 609.82 465.77 613.11 465.53 C 613.83 467.22 615.30 468.66 612.93 469.86 C 606.37 471.49 598.34 470.79 592.18 467.85 C 592.33 466.08 591.61 464.63 593.91 464.09 Z" fill="#1e191d" />
<path d="M 525.41 469.32 C 526.47 469.58 527.53 469.83 528.59 470.08 C 532.51 470.94 536.45 471.71 540.36 472.64 C 541.27 484.11 540.87 495.64 542.52 507.10 C 521.13 516.83 499.91 526.97 478.52 536.72 C 475.27 530.34 472.20 523.85 469.17 517.36 C 478.48 521.77 490.36 520.94 500.00 518.01 C 511.16 514.77 520.98 507.18 524.95 496.00 C 528.10 487.20 526.60 478.30 525.41 469.32 Z" fill="#ffffff" />
<path d="M 593.18 473.52 C 599.75 475.83 606.28 475.41 613.06 474.60 C 613.55 475.40 614.04 476.20 614.54 477.00 C 613.62 477.96 613.33 479.11 611.88 479.23 C 603.56 480.43 595.14 479.78 587.42 476.29 C 587.55 475.27 587.11 473.63 587.87 472.86 C 589.49 471.79 591.49 473.12 593.18 473.52 Z" fill="#1e191d" />
<path d="M 582.12 487.36 C 588.33 487.20 594.86 489.15 600.86 490.69 C 599.88 492.86 599.56 495.13 596.96 495.87 C 592.90 497.31 588.98 498.76 585.53 501.43 C 582.52 503.65 578.85 507.03 578.52 510.98 C 578.70 511.84 579.52 512.16 580.96 511.94 C 585.37 508.53 587.55 503.20 593.57 501.99 C 592.71 505.04 591.44 507.95 590.66 511.02 C 590.51 513.28 591.04 516.22 592.98 517.66 C 596.07 516.17 594.77 510.69 595.78 507.80 C 597.82 501.91 601.50 496.37 606.52 492.60 C 607.70 491.67 609.56 491.76 611.00 491.66 C 615.81 491.63 620.61 491.66 625.41 491.30 C 624.07 497.64 626.26 502.79 626.78 509.02 C 627.00 510.39 626.45 511.47 626.00 512.71 C 624.18 512.54 622.21 512.17 620.40 512.49 C 618.68 513.26 617.17 514.50 615.48 515.31 C 613.10 515.70 610.33 514.90 608.37 516.41 C 605.60 518.39 603.63 521.91 600.69 523.63 C 597.59 523.78 594.99 522.61 592.13 524.23 C 588.16 526.33 585.25 531.07 582.30 534.36 C 581.48 535.39 580.36 535.70 579.21 536.21 C 578.58 532.72 578.75 528.73 577.37 525.45 C 576.79 523.91 574.44 524.33 573.14 524.35 C 570.55 526.03 568.62 528.81 566.41 530.96 C 566.56 525.14 569.47 520.81 566.64 515.30 C 563.16 514.83 560.24 516.01 556.98 516.95 C 558.54 510.08 567.06 505.76 568.99 498.96 C 569.55 495.36 566.73 495.68 564.34 494.40 C 570.21 492.02 576.05 489.13 582.12 487.36 Z" fill="#0e5b38" />
<path d="M 450.26 488.54 C 451.00 495.90 453.67 502.85 458.48 508.51 C 462.22 512.50 464.36 518.21 466.87 523.10 C 469.25 528.39 472.14 533.22 473.93 538.77 C 460.05 545.74 445.78 551.80 431.82 558.60 C 430.54 559.22 429.18 559.49 427.80 559.78 C 424.69 554.18 422.53 548.18 419.46 542.56 C 414.61 532.41 410.00 522.15 404.86 512.14 C 403.89 510.40 403.51 508.66 403.27 506.70 C 406.79 504.60 411.19 502.99 414.04 500.03 C 415.60 498.53 415.99 495.99 417.23 494.31 C 423.58 491.09 430.05 490.08 437.01 489.16 C 441.40 488.33 445.81 488.28 450.26 488.54 Z" fill="#db232b" />
<path d="M 398.56 509.22 C 400.22 512.83 402.28 516.32 403.66 520.03 C 403.67 522.64 402.47 525.35 401.76 527.84 C 395.99 545.67 384.86 563.15 367.76 571.89 C 361.42 557.99 363.05 539.78 364.76 524.97 C 376.11 519.90 387.43 514.77 398.56 509.22 Z" fill="#ffffff" />
<path d="M 189.09 510.38 C 194.37 510.04 199.71 511.79 205.02 512.14 C 212.88 512.78 218.43 517.02 224.65 521.36 C 228.91 524.32 230.14 528.92 232.93 533.03 C 234.40 535.33 236.52 537.46 237.56 539.98 C 237.17 544.09 234.04 545.76 231.39 548.40 C 228.62 550.71 226.91 553.73 223.02 553.91 C 215.34 555.01 206.04 554.12 199.72 549.22 C 198.63 548.58 197.35 547.40 196.04 547.39 C 194.90 547.35 194.02 548.41 194.57 549.54 C 196.83 553.98 200.82 555.24 205.24 556.67 C 210.16 558.34 214.92 558.12 219.99 558.93 C 217.30 563.16 215.09 567.15 210.44 569.53 C 205.79 572.40 201.15 571.81 196.11 573.14 C 194.49 573.69 193.78 575.57 195.94 576.27 C 200.29 577.33 205.35 575.44 209.81 575.24 C 209.11 578.56 207.94 581.28 206.20 584.17 C 204.11 587.65 202.69 591.90 198.95 593.96 C 194.68 596.28 189.88 597.76 185.00 597.76 C 182.72 598.07 179.59 597.45 178.41 599.96 C 178.84 601.34 179.70 602.06 180.98 602.13 C 185.52 602.59 190.43 601.23 194.91 600.46 C 191.76 605.76 187.41 609.89 182.50 613.53 C 181.17 614.68 178.82 616.14 178.64 618.02 C 179.48 620.93 182.56 619.38 184.17 618.12 C 190.16 613.14 195.59 607.38 200.23 601.12 C 204.00 596.37 206.82 591.02 210.46 586.17 C 211.74 591.19 212.37 596.32 213.42 601.40 C 214.42 606.39 216.24 610.90 216.87 615.98 C 217.67 622.24 217.58 628.70 216.70 634.94 C 215.92 640.49 213.15 645.20 213.16 650.92 C 215.03 650.71 216.48 651.34 217.22 649.12 C 220.02 642.03 221.05 633.50 222.36 626.11 C 224.22 627.36 225.69 628.74 228.00 629.02 C 229.62 629.44 231.12 628.01 230.67 626.34 C 228.99 625.08 226.70 624.24 225.35 622.63 C 223.78 620.50 222.74 617.93 221.81 615.46 C 219.55 608.73 217.75 601.88 216.52 594.88 C 215.62 589.69 214.11 584.27 214.25 578.98 C 217.04 569.23 223.70 560.42 231.69 554.26 C 231.34 559.60 230.32 564.60 231.18 569.97 C 231.83 576.35 234.39 581.95 237.53 587.45 C 238.49 588.99 239.33 590.48 240.97 591.39 C 242.91 590.70 243.70 590.27 242.76 588.12 C 239.61 581.67 235.68 576.61 235.36 569.02 C 234.61 559.82 235.93 550.98 241.38 543.34 C 243.36 543.63 245.20 545.07 246.95 546.00 C 251.86 548.98 257.23 550.03 262.87 550.61 C 271.15 551.60 279.59 550.94 287.99 551.12 C 288.67 557.59 287.83 564.24 286.34 570.54 C 284.96 575.56 283.27 580.89 280.09 585.07 C 275.47 591.44 271.67 598.36 268.53 605.57 C 266.69 609.95 266.66 615.16 265.72 619.83 C 260.20 614.37 256.62 608.02 248.34 606.49 C 246.73 605.82 245.55 607.57 245.76 608.99 C 248.24 611.50 253.29 611.96 255.34 615.49 C 256.19 620.14 255.65 625.17 255.40 629.89 C 252.98 629.03 250.62 628.05 248.28 626.98 C 247.85 635.22 249.74 645.21 246.69 652.94 C 244.14 651.96 241.16 649.21 238.43 649.47 C 232.26 654.11 230.40 664.75 227.85 671.67 C 226.64 668.34 224.64 666.64 221.00 666.84 C 217.12 668.77 214.75 673.69 211.78 676.79 C 209.46 669.41 209.75 661.37 207.64 653.98 C 204.99 658.75 203.69 663.92 201.43 668.87 C 198.30 662.54 196.38 655.93 194.72 649.09 C 193.73 644.65 194.48 639.00 191.82 635.17 C 191.31 634.18 189.32 633.76 188.52 634.57 C 182.44 639.46 177.70 645.96 171.52 650.70 C 171.45 646.45 171.38 642.24 171.84 638.00 C 172.23 633.99 172.56 630.13 171.25 626.23 C 168.86 627.51 166.56 628.64 164.72 630.69 C 162.20 633.23 160.79 636.40 158.54 639.14 C 158.06 636.74 157.60 634.46 157.80 632.00 C 158.06 627.80 160.27 624.38 159.85 620.08 C 155.36 620.25 153.18 623.30 149.16 625.12 C 149.21 623.78 149.33 622.45 149.51 621.13 C 152.72 613.36 158.44 606.91 165.57 602.49 C 167.97 600.87 170.56 599.36 171.40 596.38 C 172.21 592.55 171.38 587.65 172.76 583.80 C 173.91 580.59 176.33 577.63 178.20 574.78 C 174.28 574.04 170.27 574.51 166.96 576.86 C 164.72 578.56 162.71 580.52 160.33 582.04 C 159.51 575.09 163.62 570.00 166.15 563.93 C 165.60 563.01 164.89 562.70 164.01 563.01 C 161.40 563.43 158.83 564.14 156.25 564.72 C 156.02 555.77 161.50 550.65 164.40 542.99 C 164.42 539.79 159.33 539.86 157.14 539.32 C 162.65 534.69 169.47 534.84 175.27 531.27 C 177.04 528.74 174.75 526.66 173.35 524.68 C 177.19 523.33 180.93 522.41 185.00 522.09 C 187.69 521.91 189.52 521.22 191.79 519.85 C 191.50 516.52 189.40 514.95 187.58 512.46 C 187.03 511.29 187.99 510.47 189.09 510.38 Z" fill="#0e5b38" />
<path d="M 543.38 512.15 C 543.71 518.22 545.13 524.02 546.15 529.98 C 546.93 534.78 549.04 539.15 549.63 544.00 C 550.33 549.74 553.45 554.69 553.75 560.42 C 544.43 564.74 535.07 569.08 525.75 573.43 C 518.05 577.53 510.02 580.85 502.23 584.76 C 497.96 578.43 495.46 570.92 491.76 564.23 C 487.90 556.52 484.16 548.76 480.38 541.02 C 498.31 532.26 516.56 524.09 534.62 515.59 C 537.43 514.12 540.26 512.83 543.38 512.15 Z" fill="#db232b" />
<path d="M 631.62 512.27 C 634.50 513.25 636.99 515.79 639.13 517.88 C 643.35 522.22 644.90 527.65 645.81 533.48 C 636.91 530.96 627.82 527.89 619.91 523.02 C 616.75 521.29 613.55 521.30 610.08 521.02 C 610.66 520.58 611.25 520.14 611.84 519.70 C 612.90 520.27 613.95 520.84 615.06 521.31 C 617.63 520.78 619.19 518.52 620.96 516.78 C 623.26 516.77 626.02 517.15 628.19 516.29 C 630.05 515.52 630.51 513.81 631.62 512.27 Z" fill="#ffffff" />
<path d="M 182.96 514.04 C 184.33 515.43 185.69 516.83 186.93 518.34 C 183.60 518.44 180.32 518.44 177.01 518.90 C 179.90 518.11 182.85 517.81 185.85 517.72 C 184.87 516.51 183.91 515.28 182.96 514.04 Z" fill="#0e5b38" />
<path d="M 883.88 522.19 C 888.76 527.46 889.44 534.70 887.42 541.39 C 895.14 536.57 904.85 534.59 913.86 535.67 C 919.17 536.37 924.26 539.04 926.39 544.17 C 927.89 550.80 925.85 557.70 921.88 563.08 C 919.61 565.88 916.78 568.56 912.99 568.80 C 907.86 569.51 903.24 565.42 900.36 561.64 C 897.85 558.38 897.00 552.34 900.47 549.45 C 903.73 545.97 909.43 545.00 913.85 546.52 C 916.21 547.36 918.41 548.44 919.25 550.99 C 920.04 553.33 918.79 555.54 916.94 556.93 C 914.07 558.84 911.04 560.42 907.50 559.52 C 907.46 558.47 907.43 557.42 907.40 556.37 C 909.77 555.34 912.61 554.47 914.59 552.79 C 914.89 552.29 914.59 551.83 913.68 551.40 C 910.10 549.51 906.78 550.62 903.47 552.42 C 902.87 554.63 902.16 556.18 903.66 558.25 C 905.60 561.03 909.33 565.02 913.08 564.30 C 916.53 563.13 919.01 559.72 920.46 556.52 C 921.77 553.54 922.90 549.80 922.24 546.55 C 921.39 543.09 918.14 541.24 914.87 540.59 C 907.63 539.43 900.14 540.30 893.46 543.34 C 883.45 547.82 874.71 555.66 865.01 561.02 C 856.41 566.26 845.89 567.62 836.00 567.40 C 831.57 567.24 826.59 567.27 822.41 565.69 C 822.45 564.56 822.49 563.43 822.53 562.30 C 824.07 562.21 825.60 562.11 827.15 562.24 C 834.84 563.02 842.88 563.18 850.49 561.68 C 860.47 560.10 869.65 552.44 878.05 547.05 C 881.83 544.94 882.97 541.01 883.67 537.01 C 884.26 532.79 883.58 528.62 880.56 525.45 C 878.04 522.61 873.06 520.06 869.39 522.27 C 867.00 523.25 865.57 526.24 864.65 528.51 C 863.35 532.48 861.81 536.19 863.74 540.25 C 867.06 541.24 869.25 540.52 872.31 539.26 C 873.00 536.08 872.76 533.00 872.43 529.80 C 873.36 529.32 874.29 528.84 875.22 528.36 C 875.89 529.21 876.88 530.09 877.14 531.16 C 877.91 535.32 877.97 539.49 874.79 542.68 C 870.35 546.36 862.01 546.74 859.05 540.96 C 857.55 537.47 858.48 532.69 859.56 529.15 C 861.01 524.64 863.38 519.80 867.98 517.82 C 873.38 515.28 880.04 518.13 883.88 522.19 Z" fill="#1e191d" />
<path d="M 611.90 524.69 C 615.58 525.66 620.00 526.26 622.29 529.69 C 624.83 534.10 627.71 537.42 626.53 542.88 C 625.52 545.67 624.08 548.81 622.06 551.00 C 618.34 552.83 613.16 553.36 609.13 552.50 C 604.76 551.00 601.32 546.71 599.62 542.54 C 598.85 537.91 599.09 533.06 602.41 529.41 C 604.93 526.52 608.28 525.50 611.90 524.69 Z" fill="#211e4c" />
<path d="M 700.49 532.12 C 702.24 537.00 702.41 542.22 700.62 547.12 C 697.79 548.39 695.18 549.30 692.00 548.90 C 687.78 549.06 684.54 546.29 681.72 543.50 C 679.66 539.01 678.33 532.51 681.03 528.04 C 686.85 521.36 697.18 524.85 700.49 532.12 Z" fill="#211e4c" />
<path d="M 671.46 528.35 C 672.98 532.06 675.19 534.78 674.98 539.00 C 675.49 544.00 672.03 549.55 667.23 551.15 C 664.03 552.41 660.23 552.15 657.12 550.75 C 651.63 547.83 648.24 541.25 649.30 535.10 C 650.32 531.21 653.28 527.77 656.65 525.68 C 662.01 523.37 666.62 526.36 671.46 528.35 Z" fill="#211e4c" />
<path d="M 725.00 539.38 C 729.93 539.26 733.10 542.42 735.89 546.06 C 737.01 548.13 737.22 550.86 737.51 553.16 C 737.64 555.15 738.09 557.57 737.34 559.47 C 735.69 565.49 726.71 567.63 722.24 563.45 C 720.00 561.33 717.13 558.94 716.12 555.95 C 714.79 552.59 715.38 548.33 715.57 544.79 C 718.55 542.47 720.81 538.93 725.00 539.38 Z" fill="#211e4c" />
<path d="M 476.29 542.82 C 482.88 555.69 488.90 568.85 495.40 581.77 C 496.18 583.36 497.07 584.98 497.58 586.68 C 489.12 590.92 480.39 594.74 471.87 598.89 C 464.88 601.90 458.19 605.67 451.09 608.40 C 444.29 593.66 436.98 579.15 430.19 564.40 C 445.47 557.04 460.96 550.07 476.29 542.82 Z" fill="#ffffff" />
<path d="M 579.96 547.66 C 584.14 547.84 588.25 546.57 591.87 548.35 C 596.97 550.35 600.57 555.90 601.47 561.15 C 601.39 564.93 600.30 569.71 597.13 572.14 C 593.10 575.30 588.46 576.06 583.45 575.57 C 580.19 571.44 576.14 570.43 574.82 565.22 C 573.58 559.75 575.54 552.81 579.16 548.59 L 579.85 547.76 L 579.96 547.66 Z" fill="#211e4c" />
<path d="M 304.10 548.21 C 320.65 555.43 336.48 566.03 346.57 581.32 C 340.95 584.80 334.47 586.36 327.99 587.21 C 314.02 588.82 300.48 586.14 287.38 581.40 C 291.59 571.57 293.16 561.07 292.47 550.41 C 296.36 549.75 300.20 548.76 304.10 548.21 Z" fill="#ffffff" />
<path d="M 633.44 551.53 C 637.70 550.05 642.26 552.04 645.95 554.16 C 650.10 557.04 651.38 563.15 651.47 567.88 C 650.57 571.59 648.57 575.24 645.07 577.07 C 643.37 577.99 641.01 579.84 638.98 579.33 C 635.65 578.66 631.61 576.99 628.69 575.24 C 626.95 573.00 625.60 570.24 624.65 567.57 C 622.99 561.39 626.74 552.87 633.44 551.53 Z" fill="#211e4c" />
<path d="M 664.65 555.66 C 668.50 555.00 673.32 555.00 676.69 557.27 C 680.29 559.19 682.36 563.39 683.49 567.14 C 683.73 569.86 683.24 572.96 682.33 575.53 C 680.98 577.91 678.37 579.70 675.93 580.83 C 673.19 582.52 669.15 580.36 666.46 579.34 C 663.91 577.78 661.37 574.73 659.97 572.09 C 658.09 568.55 659.07 565.22 659.73 561.45 C 660.61 559.15 662.68 557.09 664.65 555.66 Z" fill="#211e4c" />
<path d="M 696.53 555.71 C 700.62 554.83 705.64 555.25 709.06 557.89 C 711.51 559.76 714.15 561.75 714.73 564.98 C 715.51 568.91 716.78 574.68 713.85 577.98 C 711.33 581.53 707.07 583.32 702.77 582.27 C 698.00 581.82 694.27 579.60 691.80 575.49 C 690.83 572.80 690.02 569.84 689.70 567.00 C 690.72 562.40 691.54 557.52 696.53 555.71 Z" fill="#211e4c" />
<path d="M 751.69 560.33 C 752.46 561.65 753.00 563.17 753.56 564.59 C 753.82 563.84 754.08 563.09 754.34 562.33 C 755.55 564.17 756.98 566.05 757.78 568.11 C 757.89 571.14 757.36 574.92 755.25 577.24 C 753.06 579.95 748.57 580.35 745.93 578.02 C 743.83 576.43 740.57 574.70 740.09 571.95 C 738.91 568.36 739.77 563.89 742.05 560.95 C 744.21 559.75 749.42 559.41 751.69 560.33 Z" fill="#211e4c" />
<path d="M 555.80 564.99 C 560.66 578.20 566.55 591.00 574.13 602.89 C 579.48 611.11 585.47 619.79 589.08 628.94 C 594.06 640.12 596.76 652.84 594.32 665.00 C 591.51 680.58 581.71 693.96 571.90 705.94 C 557.61 722.64 541.69 738.50 526.50 754.50 C 525.32 755.74 524.06 756.90 522.77 758.02 C 513.00 737.58 503.26 717.10 493.34 696.72 C 498.14 690.90 501.30 683.86 499.66 676.20 C 498.43 669.85 499.67 663.36 502.78 657.73 C 504.63 654.58 507.33 652.27 508.90 648.93 C 512.42 641.73 512.31 632.78 510.53 625.13 C 509.00 618.14 509.18 610.82 511.00 603.90 C 513.06 595.48 518.51 587.59 523.89 580.93 C 526.63 577.11 531.73 575.90 535.87 573.82 C 542.50 571.00 548.88 566.99 555.80 564.99 Z" fill="#fff005" />
<path d="M 781.35 566.47 C 784.87 565.85 788.22 565.60 791.77 566.05 C 791.47 568.98 789.88 571.93 793.23 573.71 C 797.96 575.47 802.61 575.74 806.59 579.27 C 806.53 581.19 806.04 583.50 806.65 585.34 C 811.58 590.87 819.32 594.17 823.80 600.13 C 822.41 601.01 820.15 601.76 819.45 603.35 C 818.83 605.54 819.15 607.77 820.13 609.80 C 822.05 613.84 824.17 617.79 826.12 621.82 C 827.04 623.82 828.27 625.45 828.22 627.68 C 824.29 625.29 820.22 623.17 816.38 620.63 C 813.96 619.06 811.74 619.71 809.12 620.16 C 809.24 622.67 809.51 624.92 810.81 627.12 C 814.24 633.37 817.67 639.14 819.66 646.12 C 821.08 651.42 820.83 656.52 820.59 661.94 C 816.87 656.38 812.14 648.32 804.31 649.28 C 803.99 654.61 805.60 659.67 805.40 665.00 C 805.22 671.04 806.06 677.56 804.51 683.30 C 803.45 688.19 800.71 692.10 797.38 695.71 C 795.64 690.93 795.06 685.73 793.04 681.08 C 792.12 678.74 788.96 677.75 786.76 678.73 C 783.45 680.55 781.90 684.75 779.83 687.77 C 776.27 692.83 773.87 697.79 768.23 700.88 C 768.88 693.44 773.70 688.16 771.66 681.24 C 769.13 681.19 767.14 681.67 764.81 682.58 C 764.08 679.35 766.37 676.65 765.49 673.61 C 764.98 671.44 762.29 669.96 760.32 671.30 C 757.49 672.81 756.09 675.83 754.46 678.43 C 750.72 684.41 746.15 689.59 739.18 691.71 C 740.75 688.44 743.10 686.04 740.48 682.48 C 736.95 682.05 733.24 683.51 729.68 683.77 C 728.74 680.06 728.27 676.32 725.57 673.41 C 724.60 672.05 722.70 670.64 722.34 669.01 C 723.34 665.70 725.25 662.66 726.54 659.45 C 728.41 655.21 728.49 650.60 730.34 646.33 C 732.05 642.34 733.47 638.28 734.17 633.98 C 734.74 631.52 734.94 628.46 736.38 626.36 C 738.73 624.76 741.84 623.89 743.51 621.55 C 746.79 616.95 747.38 610.52 744.49 605.57 C 742.73 601.88 739.53 600.16 736.41 597.75 C 738.74 596.33 740.73 594.60 742.69 592.71 C 743.55 591.71 744.67 591.30 746.07 591.49 C 749.23 593.99 751.32 597.93 753.92 601.01 C 755.99 603.77 759.11 606.54 759.83 609.97 C 761.56 616.50 760.88 623.75 759.21 630.23 C 758.32 633.76 755.73 637.11 755.44 640.71 C 756.30 642.09 758.83 642.14 759.40 640.46 C 763.55 632.85 765.22 624.58 765.61 615.98 C 768.01 617.62 769.08 619.21 769.57 622.13 C 770.86 632.25 772.36 643.67 777.39 652.70 C 777.79 653.46 778.31 654.08 778.94 654.56 C 781.05 654.42 781.64 652.91 780.88 651.08 C 777.51 643.66 774.98 635.24 775.09 627.04 C 778.69 630.12 781.30 634.17 784.96 637.14 C 787.86 639.01 790.55 641.44 794.00 639.11 C 791.40 635.45 787.54 633.70 784.48 630.53 C 776.82 622.13 769.49 613.47 762.45 604.54 C 761.80 603.63 761.50 602.42 761.12 601.37 C 764.89 602.28 768.39 603.08 771.47 605.60 C 774.35 608.02 776.51 611.18 779.36 613.66 C 782.41 616.33 785.47 620.01 789.21 621.63 C 790.18 621.44 791.15 621.20 792.11 620.90 C 788.11 614.64 781.35 610.22 776.55 604.52 C 772.03 599.19 765.64 597.88 759.00 597.28 C 755.87 597.29 754.79 595.13 753.07 592.98 C 750.65 589.61 747.69 586.72 745.25 583.36 C 748.80 583.23 752.03 583.32 755.13 581.30 C 759.24 578.82 761.25 575.39 761.84 570.65 C 768.23 567.36 774.45 567.66 781.35 566.47 Z" fill="#0e5b38" />
<path d="M 607.46 568.61 C 610.77 568.09 614.77 567.89 617.90 569.29 C 621.16 571.19 624.04 574.22 624.51 578.13 C 625.02 582.00 625.38 586.31 622.36 589.31 C 620.03 591.54 617.46 593.99 613.97 592.96 C 610.08 592.24 605.25 591.81 603.12 587.94 C 598.83 581.46 601.46 572.96 607.46 568.61 Z" fill="#211e4c" />
<path d="M 735.18 572.66 C 736.59 574.63 738.23 576.56 739.35 578.71 C 740.83 581.67 741.13 585.35 740.37 588.54 C 739.13 590.31 736.71 592.51 734.83 593.56 C 730.55 594.09 724.11 593.49 721.91 589.09 C 719.53 585.97 719.92 581.07 720.67 577.46 C 721.87 575.55 724.12 573.41 726.11 572.33 C 729.01 570.69 732.18 572.09 735.18 572.66 Z" fill="#211e4c" />
<path d="M 515.78 583.48 C 515.95 587.44 512.65 588.23 511.36 591.52 C 509.08 597.36 506.55 602.69 505.78 608.99 C 504.69 615.42 505.50 621.66 506.93 627.96 C 508.34 633.44 507.11 639.28 506.49 644.92 C 506.12 647.37 503.93 648.67 504.01 651.32 C 502.55 653.87 501.72 656.07 498.60 656.73 C 495.61 662.48 494.75 669.59 495.52 675.99 C 495.92 679.78 496.25 683.37 494.98 687.06 C 494.18 689.47 492.46 691.39 490.94 693.38 C 489.59 689.75 487.97 686.37 486.08 682.99 C 482.89 676.47 480.20 669.68 476.84 663.24 C 475.09 659.52 473.24 656.13 473.68 651.88 C 473.89 649.79 472.59 646.92 474.49 645.52 C 475.34 645.09 476.82 647.47 477.56 647.99 C 478.25 639.96 483.77 633.75 484.38 626.00 C 484.25 617.52 480.45 610.15 483.65 601.75 C 484.90 596.92 488.75 594.95 492.98 593.12 C 497.32 591.50 501.46 589.43 505.70 587.58 C 508.12 586.53 509.67 584.35 511.83 582.90 C 513.10 581.90 514.48 583.12 515.78 583.48 Z" fill="#211e4c" />
<path d="M 668.44 587.55 C 669.81 587.24 670.79 587.29 672.03 587.99 C 674.58 589.37 677.22 590.73 679.56 592.44 C 685.46 598.30 685.85 609.00 680.09 615.05 C 676.07 616.55 671.52 616.79 667.42 615.39 C 659.75 612.19 656.16 601.77 659.43 594.37 C 660.91 591.69 665.43 588.21 668.44 587.55 Z" fill="#211e4c" />
<path d="M 640.56 588.62 C 644.16 590.06 648.42 592.06 650.16 595.76 C 652.49 599.40 651.58 603.96 650.53 607.87 C 649.06 612.11 644.74 613.64 641.41 616.19 C 638.61 614.72 635.61 614.16 632.65 613.19 C 628.54 610.74 626.32 605.21 625.74 600.66 C 626.02 597.26 627.43 593.33 630.28 591.24 C 632.90 589.03 637.22 587.85 640.56 588.62 Z" fill="#211e4c" />
<path d="M 697.45 588.60 C 700.64 588.02 703.39 588.23 706.25 589.82 C 708.65 591.20 712.55 592.32 713.53 595.12 C 714.85 598.10 716.86 600.72 716.70 603.99 C 716.75 608.64 715.94 613.10 712.40 616.39 C 711.13 618.07 708.85 617.58 707.00 617.76 C 701.54 618.03 695.51 614.99 692.94 610.06 C 690.26 605.49 689.54 598.99 691.25 593.96 C 692.14 591.16 694.53 589.06 697.45 588.60 Z" fill="#211e4c" />
<path d="M 440.35 596.60 C 442.58 601.26 445.05 605.83 446.99 610.62 C 438.23 614.58 429.57 618.80 420.87 622.87 C 419.27 623.80 417.59 622.61 416.09 622.02 C 404.09 616.10 393.14 608.84 384.50 598.48 C 383.89 597.68 383.47 596.74 383.04 595.84 C 401.86 590.32 421.78 589.81 440.35 596.60 Z" fill="#ffffff" />
<path d="M 621.26 594.13 C 623.07 592.94 624.19 595.71 622.07 596.12 C 620.93 595.81 620.66 595.15 621.26 594.13 Z" fill="#211e4c" />
<path d="M 479.56 600.23 C 478.91 603.46 478.41 606.69 478.60 610.00 C 478.87 617.24 481.41 623.33 479.68 630.47 C 478.37 638.00 471.77 641.87 470.98 649.69 C 465.00 637.42 459.14 625.09 453.26 612.76 C 461.95 608.41 470.85 604.53 479.56 600.23 Z" fill="#fff005" />
<path d="M 621.33 600.13 C 622.18 603.67 623.56 607.26 623.83 610.89 C 619.25 614.95 610.56 616.24 606.73 622.77 C 605.82 624.34 606.69 625.50 607.13 627.04 C 610.04 625.22 612.18 622.60 614.88 620.53 C 616.74 620.61 618.61 620.70 620.48 620.79 C 620.12 622.58 619.74 624.34 619.18 626.07 C 617.96 630.17 614.95 633.25 613.33 637.29 C 611.26 642.51 610.02 648.03 610.31 653.67 C 611.42 653.70 612.52 653.73 613.63 653.76 C 614.40 649.83 615.13 645.86 616.17 641.99 C 616.35 640.87 616.96 639.96 617.99 639.26 C 620.23 642.25 620.53 646.37 622.45 649.65 C 623.13 651.04 624.44 650.82 625.74 650.75 C 626.88 648.61 625.08 645.80 624.56 643.61 C 621.56 635.69 622.58 626.33 625.57 618.58 C 626.51 617.10 626.88 614.08 629.21 615.85 C 632.87 618.20 636.67 618.90 640.92 619.41 C 640.51 621.33 640.36 623.55 639.02 625.06 C 636.72 627.94 633.57 630.13 632.68 633.90 C 631.30 640.14 633.54 646.17 631.61 652.47 C 629.40 653.83 626.60 655.01 624.94 657.03 C 624.07 661.69 625.48 665.98 625.07 670.56 C 622.07 667.73 618.10 666.68 614.21 668.22 C 611.10 670.36 610.77 674.66 607.47 676.89 C 607.60 673.92 608.55 671.00 606.59 668.43 C 604.74 666.72 601.62 666.79 599.24 666.44 C 599.19 660.53 599.31 654.60 599.54 648.69 C 601.54 647.02 603.64 645.75 604.35 643.07 C 603.81 641.19 602.57 639.82 603.00 637.99 C 603.07 636.21 603.80 633.77 602.86 632.17 C 601.59 630.11 599.52 628.43 597.77 626.77 C 599.44 623.72 602.81 622.25 604.46 619.33 C 605.08 616.69 601.68 613.73 600.11 611.89 C 602.48 610.26 604.89 608.79 607.43 607.42 C 612.14 604.90 616.20 601.84 621.33 600.13 Z" fill="#0e5b38" />
<path d="M 727.47 601.57 C 731.78 600.54 736.50 600.83 739.61 604.39 C 743.63 607.66 743.59 614.30 741.35 618.55 C 739.62 621.26 735.69 623.91 732.41 622.46 C 728.93 621.08 725.90 618.26 723.71 615.28 C 723.09 612.33 723.11 608.44 723.62 605.47 C 724.54 603.96 725.98 602.53 727.47 601.57 Z" fill="#211e4c" />
<path d="M 274.86 603.13 C 277.30 605.21 280.90 607.24 282.58 609.90 C 281.38 614.33 279.76 618.64 278.63 623.10 C 275.56 621.84 273.39 619.77 270.58 617.96 C 270.68 613.76 271.47 609.79 273.02 605.88 C 273.54 604.89 273.72 603.58 274.86 603.13 Z" fill="#ffffff" />
<path d="M 655.62 608.23 C 656.08 609.75 656.49 611.28 656.88 612.82 C 655.58 612.53 654.40 612.61 653.38 611.64 C 653.39 610.15 654.71 609.29 655.62 608.23 Z" fill="#211e4c" />
<path d="M 358.25 608.98 C 360.44 623.03 361.36 637.57 359.75 651.73 C 352.21 654.93 344.94 658.82 337.38 661.97 C 333.89 656.00 329.95 650.10 325.28 645.00 C 326.49 633.28 335.66 622.55 345.01 616.01 C 349.17 613.40 353.49 610.34 358.25 608.98 Z" fill="#ffffff" />
<path d="M 286.64 612.55 C 288.54 614.59 290.75 616.22 292.79 618.10 C 291.81 622.55 290.01 627.02 288.23 631.21 C 286.29 629.57 284.31 627.99 282.28 626.45 C 283.64 621.79 285.16 617.17 286.64 612.55 Z" fill="#ffffff" />
<path d="M 449.57 615.26 C 453.06 622.67 456.30 630.16 460.30 637.33 C 462.58 643.36 465.60 648.94 468.36 654.75 C 472.08 663.21 476.39 671.39 480.28 679.77 C 485.96 690.52 490.51 701.79 496.14 712.56 C 500.36 720.33 503.45 728.62 507.57 736.44 C 510.36 741.78 512.67 747.33 515.26 752.77 C 516.95 756.46 519.22 759.32 519.60 763.49 C 508.50 761.16 496.48 759.71 485.18 761.19 C 478.96 761.83 472.82 762.25 466.78 763.97 C 453.94 767.45 440.32 770.15 427.00 770.52 C 414.32 770.90 401.83 767.45 390.90 761.09 C 387.66 759.20 384.94 756.07 382.50 753.25 C 376.83 746.50 372.17 738.66 368.25 730.78 C 364.32 724.06 361.49 716.92 358.11 709.92 C 354.86 702.51 351.52 695.08 348.53 687.57 C 346.37 681.61 343.67 675.72 341.09 669.92 C 340.44 668.51 340.41 667.08 340.22 665.57 C 352.79 659.71 365.36 653.91 377.86 647.91 C 380.33 646.50 382.78 645.43 385.45 644.46 C 402.73 636.42 419.09 628.30 436.45 620.47 C 440.65 618.69 445.03 615.74 449.57 615.26 Z" fill="#db232b" />
<path d="M 653.47 616.54 C 655.27 616.14 657.44 617.39 659.09 618.04 C 662.72 619.25 664.88 623.47 665.60 626.98 C 665.90 630.01 664.05 634.78 661.76 636.80 C 659.39 639.36 655.53 638.93 652.43 638.39 C 649.51 637.30 646.38 635.00 644.84 632.25 C 643.94 629.51 644.06 626.22 644.54 623.40 C 645.79 619.60 649.81 617.44 653.47 616.54 Z" fill="#211e4c" />
<path d="M 620.89 617.33 C 620.77 618.49 620.65 619.64 620.48 620.79 C 618.61 620.70 616.74 620.61 614.88 620.53 C 616.83 619.38 618.85 618.33 620.89 617.33 Z" fill="#211e4c" />
<path d="M 680.45 620.56 C 682.72 620.21 685.25 620.09 687.48 620.69 C 690.05 622.13 692.62 624.21 694.15 626.75 C 696.35 630.16 695.88 635.15 695.64 639.03 C 695.53 641.64 693.20 643.84 690.96 644.87 C 683.80 647.62 675.82 643.87 673.40 636.60 C 671.20 631.98 672.86 627.47 675.43 623.44 C 676.69 621.85 678.50 620.99 680.45 620.56 Z" fill="#211e4c" />
<path d="M 296.57 621.88 C 298.28 623.25 299.97 624.64 301.71 625.97 C 301.05 630.47 298.50 634.61 297.16 638.96 C 295.51 637.68 293.58 636.32 292.39 634.59 C 293.18 630.26 295.33 626.12 296.57 621.88 Z" fill="#ffffff" />
<path d="M 712.46 623.57 C 715.99 622.99 719.51 623.30 722.29 625.75 C 724.86 628.09 727.28 631.12 728.41 634.43 C 729.29 638.69 727.92 643.71 724.61 646.62 C 721.49 648.89 717.52 649.33 713.90 648.06 C 709.66 647.18 707.07 642.51 705.54 638.84 C 704.89 635.72 703.81 631.57 705.83 628.75 C 707.34 626.05 709.23 623.99 712.46 623.57 Z" fill="#211e4c" />
<path d="M 305.78 630.10 C 307.19 631.68 308.92 633.17 309.97 635.02 C 308.69 639.24 306.60 643.22 304.99 647.33 C 303.08 645.85 301.77 644.34 300.48 642.30 C 302.03 639.13 303.15 635.81 304.58 632.60 C 304.98 631.76 305.37 630.93 305.78 630.10 Z" fill="#ffffff" />
<path d="M 595.23 631.33 C 596.69 632.09 598.06 632.98 599.42 633.89 C 598.84 635.30 598.25 636.71 597.64 638.10 C 596.58 635.94 595.69 633.70 595.23 631.33 Z" fill="#ffffff" />
<path d="M 313.87 638.45 L 314.10 638.73 C 315.84 641.16 318.67 643.29 319.83 646.01 C 318.22 650.76 315.83 655.25 314.05 659.95 C 311.88 657.38 310.16 654.54 308.15 651.86 C 309.94 647.35 311.76 642.82 313.87 638.45 Z" fill="#ffffff" />
<path d="M 598.07 642.05 C 599.82 640.89 600.96 643.71 598.90 644.11 C 597.78 643.78 597.50 643.09 598.07 642.05 Z" fill="#0e5b38" />
<path d="M 644.43 644.57 C 648.84 643.54 652.53 645.14 655.35 648.51 C 657.32 651.51 659.35 654.05 658.53 657.89 C 657.39 662.45 652.90 665.77 648.68 667.30 C 644.72 666.55 640.03 664.17 638.41 660.23 C 636.82 657.38 635.42 654.89 636.70 651.55 C 638.89 648.38 640.03 644.80 644.43 644.57 Z" fill="#211e4c" />
<path d="M 323.37 650.10 C 325.08 651.62 326.51 653.65 327.91 655.47 C 326.03 659.61 323.53 663.41 321.51 667.49 C 320.96 668.17 320.63 669.89 319.57 669.75 C 318.60 668.21 317.77 666.55 316.91 664.95 C 318.95 659.96 320.98 654.92 323.37 650.10 Z" fill="#ffffff" />
<path d="M 700.48 650.65 C 704.11 649.21 708.57 652.63 711.38 654.65 C 716.06 657.68 717.58 664.12 716.21 669.27 C 714.59 673.30 710.81 677.56 705.99 676.66 C 701.93 676.51 698.91 673.43 696.05 670.90 C 692.82 667.56 693.14 663.29 693.37 658.97 C 693.35 655.14 697.36 652.13 700.48 650.65 Z" fill="#211e4c" />
<path d="M 671.41 651.53 C 673.92 650.88 678.07 650.93 680.56 651.61 C 682.82 652.65 685.64 654.74 687.35 656.53 C 688.78 659.63 689.57 663.59 689.59 667.00 C 689.37 669.70 688.39 673.50 685.70 674.75 C 682.76 676.22 679.21 677.21 676.03 675.89 C 672.84 674.74 669.20 672.65 667.50 669.61 C 665.93 666.01 664.64 661.89 666.34 658.10 C 667.28 655.73 668.92 652.53 671.41 651.53 Z" fill="#211e4c" />
<path d="M 632.00 657.68 C 632.73 660.22 633.83 662.60 634.78 665.05 C 634.09 666.50 631.11 667.51 629.74 668.66 C 629.44 665.30 629.17 661.94 629.22 658.56 C 630.15 658.27 631.07 657.97 632.00 657.68 Z" fill="#ffffff" />
<path d="M 430.80 660.18 C 430.70 661.32 430.59 662.46 430.49 663.60 C 427.60 663.51 425.01 663.08 422.37 664.53 C 421.84 669.18 424.71 672.70 423.50 677.14 C 422.46 680.09 419.77 681.64 418.29 684.04 C 419.02 688.86 422.68 693.34 424.53 697.88 C 428.75 695.62 433.03 693.63 437.38 691.67 C 436.63 684.76 440.98 679.84 446.41 676.34 C 446.17 673.21 445.68 671.42 443.24 669.31 C 441.81 669.88 440.38 670.46 438.93 670.97 C 437.26 671.52 434.55 672.54 434.19 669.91 C 436.82 665.43 443.61 663.62 447.56 667.49 C 449.88 670.30 450.44 673.63 450.70 677.17 C 448.76 679.40 446.75 681.56 444.70 683.69 C 442.39 685.98 440.87 688.74 442.22 692.02 C 442.70 694.33 445.18 695.25 446.88 696.57 C 452.04 694.95 456.69 693.40 462.15 694.77 C 465.13 696.26 466.56 699.96 466.76 703.13 C 465.11 705.00 463.47 707.79 461.10 708.74 C 458.71 709.27 459.66 706.22 459.40 704.79 C 461.41 703.65 462.76 700.09 460.55 698.68 C 455.39 697.66 450.19 700.85 444.82 700.70 C 442.84 699.27 440.95 697.65 438.86 696.38 C 434.53 697.17 430.17 699.92 426.39 702.14 C 428.99 707.44 431.21 712.99 433.95 718.18 C 436.79 720.58 441.87 718.27 445.07 720.88 C 448.25 722.53 448.71 725.37 449.84 728.45 C 450.90 728.41 452.22 728.73 453.19 728.25 C 455.28 725.56 453.95 721.16 454.77 717.93 C 455.59 716.95 457.46 717.50 458.61 717.35 C 458.57 720.58 458.78 723.88 458.37 727.09 C 457.56 729.68 455.65 732.32 453.10 733.41 C 449.04 734.25 447.41 731.29 444.77 728.97 C 444.61 727.89 444.46 726.81 444.31 725.73 C 442.55 724.67 441.19 723.44 439.02 723.43 C 436.61 723.41 433.72 722.94 431.92 724.94 C 428.04 728.62 428.61 734.43 428.75 739.28 C 426.10 741.83 424.02 744.56 419.87 743.50 C 415.89 741.38 414.72 737.87 413.37 733.87 C 414.45 733.12 416.85 731.39 417.59 733.40 C 418.46 734.93 419.08 736.59 419.94 738.13 C 421.04 739.09 423.61 738.80 424.37 737.46 C 424.73 734.08 424.02 730.71 425.30 727.48 C 426.24 724.78 427.93 722.60 429.79 720.48 C 428.02 714.80 424.98 709.42 422.18 704.19 C 416.14 705.81 412.23 710.37 405.58 710.70 C 406.05 711.03 406.51 711.36 406.98 711.69 C 406.63 715.39 406.24 719.35 404.94 722.85 C 404.08 725.28 401.77 727.00 400.36 729.12 C 400.12 730.60 400.21 732.13 400.53 733.59 C 402.24 734.78 404.53 735.20 406.49 735.87 C 406.48 737.06 406.48 738.24 406.48 739.43 C 404.94 739.46 403.39 739.49 401.85 739.52 C 400.06 738.20 398.08 736.91 396.55 735.29 C 395.20 733.59 395.34 730.91 395.58 728.88 C 396.89 725.99 399.63 723.96 400.79 720.87 C 402.17 717.81 402.50 714.70 402.49 711.38 C 400.90 710.28 399.53 708.97 397.58 708.64 C 393.38 707.82 388.96 706.81 385.08 704.96 C 382.51 703.30 381.95 700.18 383.18 697.46 C 384.16 694.14 386.71 692.90 389.22 690.88 C 390.33 691.74 391.33 692.74 392.23 693.88 C 390.25 695.96 386.79 697.39 387.33 700.77 C 390.82 703.60 396.69 703.34 400.80 705.20 C 402.34 705.69 404.21 706.82 405.84 706.52 C 410.72 704.91 415.20 702.61 419.61 700.00 C 419.23 696.16 416.96 693.61 415.74 690.02 C 415.00 688.49 414.82 686.46 413.07 685.75 C 410.08 685.85 406.43 687.40 403.49 686.39 C 399.57 685.11 399.40 680.36 396.57 677.42 C 395.67 676.22 394.80 676.17 393.40 676.42 C 390.45 678.33 389.56 683.07 385.41 682.60 C 384.87 678.57 387.32 676.43 389.61 673.59 C 391.62 670.98 395.55 671.08 398.01 672.95 C 401.43 675.53 402.51 679.13 405.31 682.73 C 410.58 681.78 415.64 680.61 419.39 676.51 C 420.03 673.84 418.30 670.63 417.61 668.06 C 418.36 665.33 418.28 661.50 421.13 660.07 C 423.94 658.66 427.91 659.22 430.80 660.18 Z" fill="#1e191d" />
<path d="M 330.80 660.26 C 333.35 663.37 335.23 667.26 336.66 671.01 C 332.92 674.71 329.85 678.95 326.29 682.81 C 325.06 680.21 323.80 677.62 322.58 675.01 C 325.37 670.12 327.86 665.05 330.80 660.26 Z" fill="#ffffff" />
<path d="M 639.44 667.75 L 639.46 667.77 C 642.84 670.44 646.99 671.39 649.08 674.91 C 651.61 678.24 650.60 682.72 650.53 686.61 C 647.07 689.71 644.11 692.51 639.13 692.51 C 634.38 691.59 630.28 686.82 629.92 682.01 C 629.56 679.26 628.97 675.41 631.16 673.22 C 634.00 671.38 637.08 670.34 639.44 667.75 Z" fill="#211e4c" />
<path d="M 539.16 668.65 C 540.67 669.08 541.68 671.16 542.70 672.30 C 544.52 675.03 547.48 677.76 548.22 680.99 C 548.40 683.65 546.13 685.17 543.84 685.85 C 540.21 687.16 536.74 686.54 533.04 686.97 C 529.71 687.90 527.22 691.64 526.85 694.97 C 526.80 699.30 528.79 703.17 531.90 706.10 C 534.19 708.38 537.71 711.18 541.17 710.19 C 542.24 708.74 541.60 706.27 541.60 704.55 C 539.32 703.56 536.49 703.03 534.55 701.48 C 533.79 698.51 534.81 695.98 537.19 694.13 C 541.45 691.01 546.89 689.32 551.99 688.12 C 554.49 687.42 557.43 687.75 558.90 690.10 C 560.52 693.51 560.03 697.38 559.71 701.00 C 559.25 706.01 559.39 711.37 556.78 715.87 C 553.84 720.66 549.02 723.14 543.87 724.92 C 538.12 726.68 532.98 728.49 526.88 727.06 C 518.37 725.28 511.67 718.10 508.66 710.17 C 504.81 700.28 506.28 688.46 513.47 680.46 C 519.85 673.45 529.92 669.68 539.16 668.65 Z" fill="#1e191d" />
<path d="M 536.89 671.72 C 540.29 674.30 540.56 678.45 544.49 680.44 C 544.16 681.15 543.83 681.85 543.50 682.56 C 541.34 683.18 539.27 683.77 536.99 683.51 C 534.28 683.48 531.80 682.53 529.42 684.21 C 526.80 685.52 525.81 688.86 524.08 691.22 C 521.64 694.56 522.46 698.37 524.22 701.79 C 525.43 703.68 527.66 705.00 528.78 706.96 C 530.09 709.18 531.33 711.42 532.78 713.55 C 533.43 712.93 534.08 712.31 534.72 711.70 C 536.80 712.28 538.89 712.84 540.98 713.40 C 541.55 712.84 542.13 712.29 542.71 711.75 C 543.56 711.90 544.41 712.02 545.26 712.12 C 545.69 709.42 545.90 706.80 544.99 704.14 C 543.15 700.59 539.99 698.67 536.04 698.25 C 538.20 695.58 538.82 695.53 542.11 696.29 C 542.80 695.83 543.48 695.36 544.17 694.89 C 543.58 694.34 542.99 693.79 542.40 693.24 C 543.46 693.37 544.52 693.47 545.58 693.54 C 547.73 693.96 549.48 691.48 551.26 690.52 C 552.73 690.35 554.75 691.04 555.49 692.38 C 556.36 697.18 555.09 702.21 555.91 706.93 C 556.10 708.40 556.54 709.97 556.39 711.46 C 554.89 713.00 553.36 714.47 552.02 716.16 C 551.06 716.47 550.11 716.81 549.18 717.18 C 547.56 718.90 547.03 720.80 544.56 721.60 C 540.75 722.97 536.71 724.19 532.81 725.30 C 526.58 725.94 520.46 723.29 516.91 718.06 C 510.13 712.53 508.59 704.30 508.52 695.99 C 509.30 693.15 510.43 690.49 510.83 687.55 C 512.11 686.14 513.23 684.69 514.24 683.08 C 515.31 682.54 516.40 682.01 517.48 681.48 C 517.65 680.44 517.82 679.40 517.99 678.36 C 519.02 678.71 520.04 679.07 521.07 679.42 C 523.58 677.89 525.96 676.14 528.55 674.75 C 531.35 673.52 534.32 673.58 536.89 671.72 Z" fill="#211e4c" />
<path d="M 338.83 675.79 C 339.72 678.46 342.17 682.06 341.71 684.81 C 338.85 688.66 335.83 692.84 332.42 696.21 C 331.17 693.36 329.92 690.51 328.53 687.72 C 331.84 683.71 334.89 679.19 338.83 675.79 Z" fill="#ffffff" />
<path d="M 701.60 679.43 C 704.09 680.88 706.66 683.10 708.44 685.36 C 709.97 688.50 710.02 692.52 709.75 695.93 C 709.12 698.35 707.13 700.61 705.35 702.31 C 702.85 704.26 698.40 703.50 695.40 703.54 C 692.46 699.81 687.35 697.14 687.36 692.03 C 687.32 688.81 686.57 684.18 688.46 681.41 C 691.90 678.06 697.33 677.00 701.60 679.43 Z" fill="#211e4c" />
<path d="M 668.46 679.50 C 671.91 679.26 675.93 681.34 678.67 683.32 C 681.32 686.42 684.56 691.27 683.45 695.54 C 682.74 698.24 681.12 701.10 679.08 703.00 C 676.25 704.82 673.02 704.99 669.78 704.37 C 665.17 704.07 662.01 698.94 659.72 695.44 C 658.66 690.92 659.58 685.33 662.82 681.83 C 664.20 680.23 666.47 679.83 668.46 679.50 Z" fill="#211e4c" />
<path d="M 344.00 689.46 L 344.23 689.17 C 345.58 692.92 348.18 696.95 348.70 700.85 C 345.90 704.99 342.52 708.81 339.42 712.75 C 337.80 709.03 336.44 705.25 334.58 701.64 C 337.46 697.39 340.90 693.54 344.00 689.46 Z" fill="#ffffff" />
<path d="M 641.11 698.44 C 643.95 698.25 647.86 697.78 650.10 699.93 C 652.59 702.26 655.01 704.25 654.78 707.99 C 655.41 713.34 652.52 716.98 648.81 720.35 C 646.10 720.03 643.24 720.00 640.60 719.31 C 638.59 717.72 636.80 715.80 635.13 713.87 C 633.31 711.91 633.88 708.39 634.19 705.98 C 634.79 702.41 637.12 698.63 641.11 698.44 Z" fill="#211e4c" />
<path d="M 351.20 705.31 L 351.35 705.66 C 352.70 708.83 354.06 712.00 355.55 715.11 C 352.50 719.84 349.67 724.81 346.20 729.25 C 344.48 725.50 342.94 721.68 341.42 717.85 C 344.53 713.55 347.96 709.51 351.20 705.31 Z" fill="#ffffff" />
<path d="M 670.43 708.59 C 672.28 708.55 674.19 710.29 675.69 711.26 C 678.90 713.32 680.29 717.25 681.22 720.77 C 680.79 723.79 678.81 727.39 676.82 729.72 C 673.69 731.65 669.13 732.15 665.85 730.17 C 660.37 727.80 657.61 719.88 660.58 714.66 C 662.31 710.60 666.23 708.86 670.43 708.59 Z" fill="#211e4c" />
<path d="M 357.88 720.33 L 357.99 720.16 C 359.43 723.55 361.10 726.82 362.71 730.13 C 360.04 735.01 356.44 739.35 354.09 744.39 C 352.25 741.23 349.66 737.75 349.01 734.12 C 351.62 729.36 354.85 724.84 357.88 720.33 Z" fill="#ffffff" />
<path d="M 365.36 735.11 C 367.06 738.07 368.67 741.07 370.47 743.97 C 367.81 748.25 365.22 752.56 362.53 756.82 C 360.42 754.19 358.52 751.42 356.53 748.70 C 359.39 744.14 362.08 739.38 365.36 735.11 Z" fill="#ffffff" />
<path d="M 372.96 748.96 C 375.90 751.21 377.78 755.49 380.74 758.08 C 378.59 761.74 376.18 765.22 373.90 768.80 C 371.06 766.26 368.44 763.51 365.79 760.79 C 367.83 756.75 370.33 752.64 372.96 748.96 Z" fill="#ffffff" />
<path d="M 383.97 761.78 C 386.22 763.25 388.41 764.80 390.65 766.29 C 388.90 769.65 387.49 773.15 385.93 776.60 C 383.03 776.09 380.16 773.21 377.51 771.82 C 379.54 768.40 381.71 765.04 383.97 761.78 Z" fill="#ffffff" />
<path d="M 487.63 765.52 C 489.96 765.19 492.37 765.27 494.72 765.26 C 492.74 769.82 490.76 774.40 489.05 779.07 C 486.74 779.29 484.43 779.44 482.11 779.57 C 483.87 774.88 485.44 770.02 487.63 765.52 Z" fill="#ffffff" />
<path d="M 499.66 765.40 C 501.13 765.25 502.63 765.30 504.11 765.28 C 502.88 769.90 501.01 774.23 499.37 778.71 C 497.64 778.87 495.91 779.04 494.18 779.21 C 495.53 774.58 497.58 769.76 499.66 765.40 Z" fill="#ffffff" />
<path d="M 482.06 766.06 C 480.77 770.75 478.65 775.09 477.13 779.71 C 474.51 780.12 471.88 780.41 469.24 780.62 C 470.68 776.03 472.13 771.42 473.83 766.91 C 476.55 766.49 479.32 766.26 482.06 766.06 Z" fill="#ffffff" />
<path d="M 508.89 766.24 C 511.25 766.20 513.68 766.74 515.99 767.19 C 513.86 771.10 512.15 775.21 510.04 779.11 C 508.13 779.26 506.19 779.19 504.27 779.18 C 505.62 774.80 507.34 770.54 508.89 766.24 Z" fill="#ffffff" />
<path d="M 468.49 768.16 C 466.88 772.37 465.87 776.84 464.05 780.96 C 462.19 781.62 460.02 781.57 458.07 781.79 C 459.59 777.70 461.11 773.60 462.79 769.57 C 464.66 768.99 466.57 768.56 468.49 768.16 Z" fill="#ffffff" />
<path d="M 394.71 768.18 C 397.45 769.39 400.21 770.55 403.03 771.56 C 401.58 774.94 400.17 778.35 398.54 781.64 C 396.10 782.40 392.48 780.00 390.09 779.28 C 391.20 775.41 393.01 771.94 394.71 768.18 Z" fill="#ffffff" />
<path d="M 457.49 770.84 C 455.78 774.70 454.27 778.63 452.78 782.57 C 450.29 783.02 447.80 783.43 445.29 783.77 C 446.49 780.08 447.42 776.31 448.61 772.62 C 451.58 772.11 454.54 771.52 457.49 770.84 Z" fill="#ffffff" />
<path d="M 407.47 773.40 C 410.60 773.01 414.50 774.55 417.78 774.69 C 416.06 778.30 414.48 781.94 412.45 785.38 C 409.26 784.80 406.06 784.35 402.87 783.81 C 404.22 780.27 405.68 776.74 407.47 773.40 Z" fill="#ffffff" />
<path d="M 434.72 774.71 C 437.65 774.19 440.64 773.98 443.58 773.52 C 442.45 777.16 441.37 780.81 440.38 784.50 C 437.04 785.07 433.73 785.46 430.35 785.69 C 431.89 782.07 433.02 778.25 434.72 774.71 Z" fill="#ffffff" />
<path d="M 423.00 774.97 C 425.20 774.79 427.42 774.85 429.63 774.83 C 428.20 778.48 426.77 782.13 425.42 785.80 C 422.90 785.87 420.38 785.88 417.87 785.81 C 419.36 782.13 420.89 778.34 423.00 774.97 Z" fill="#ffffff" />
</svg>